<svg width="22" height="22" viewBox="0 0 22 22" fill="none" xmlns="http://www.w3.org/2000/svg">
<path fill-rule="evenodd" clip-rule="evenodd" d="M15.9779 12.7892C16.6526 12.7892 17.2189 13.346 17.1158 14.0123C16.5105 17.9323 13.1547 20.8429 9.10737 20.8429C4.62947 20.8429 1 17.2134 1 12.7365C1 9.04812 3.80211 5.61233 6.95684 4.83548C7.63474 4.66812 8.32947 5.14496 8.32947 5.84285C8.32947 10.5713 8.48842 11.7944 9.38632 12.4597C10.2842 13.125 11.34 12.7892 15.9779 12.7892Z" stroke="#6699CC" stroke-width="1.5" stroke-linecap="round" stroke-linejoin="round"/>
<path fill-rule="evenodd" clip-rule="evenodd" d="M20.3926 8.8516C20.4463 5.8137 16.7147 0.916861 12.1673 1.00107C11.8136 1.00739 11.5305 1.30212 11.5147 1.65476C11.4 4.15265 11.5547 7.38949 11.641 8.85686C11.6673 9.3137 12.0263 9.67265 12.4821 9.69897C13.9905 9.78528 17.3452 9.90318 19.8073 9.53055C20.1421 9.48002 20.3873 9.18949 20.3926 8.8516Z" stroke="#6699CC" stroke-width="1.5" stroke-linecap="round" stroke-linejoin="round"/>
</svg>
