<svg width="399" height="15" viewBox="0 0 399 15" fill="none" xmlns="http://www.w3.org/2000/svg">
<path d="M1.65057 11.5H0.357955L4.09659 1.31818H5.36932L9.10795 11.5H7.81534L4.77273 2.92898H4.69318L1.65057 11.5ZM2.12784 7.52273H7.33807V8.61648H2.12784V7.52273ZM15.6456 6.90625V11.5H14.4723V1.31818H15.6456V5.05682H15.745C15.924 4.66241 16.1925 4.34919 16.5504 4.11719C16.9117 3.88187 17.3923 3.7642 17.9922 3.7642C18.5125 3.7642 18.9683 3.86861 19.3594 4.07741C19.7505 4.28291 20.0537 4.59943 20.2692 5.02699C20.4879 5.45123 20.5973 5.99148 20.5973 6.64773V11.5H19.424V6.72727C19.424 6.12074 19.2666 5.65175 18.9517 5.32031C18.6402 4.98556 18.2076 4.81818 17.6541 4.81818C17.2696 4.81818 16.925 4.89938 16.62 5.06179C16.3184 5.22419 16.0798 5.46117 15.9041 5.77273C15.7318 6.08428 15.6456 6.46212 15.6456 6.90625ZM22.7438 11.5V3.86364H23.9171V11.5H22.7438ZM23.3404 2.59091C23.1117 2.59091 22.9145 2.51302 22.7488 2.35724C22.5864 2.20147 22.5051 2.0142 22.5051 1.79545C22.5051 1.5767 22.5864 1.38944 22.7488 1.23366C22.9145 1.07789 23.1117 1 23.3404 1C23.5691 1 23.7646 1.07789 23.927 1.23366C24.0927 1.38944 24.1756 1.5767 24.1756 1.79545C24.1756 2.0142 24.0927 2.20147 23.927 2.35724C23.7646 2.51302 23.5691 2.59091 23.3404 2.59091ZM29.1484 14.5227C28.5817 14.5227 28.0945 14.4498 27.6868 14.304C27.2791 14.1615 26.9394 13.9725 26.6676 13.7372C26.3991 13.5052 26.1854 13.2566 26.0263 12.9915L26.9609 12.3352C27.067 12.4744 27.2012 12.6335 27.3636 12.8125C27.526 12.9948 27.7481 13.1522 28.0298 13.2848C28.3149 13.4207 28.6877 13.4886 29.1484 13.4886C29.7649 13.4886 30.2737 13.3395 30.6747 13.0412C31.0758 12.7429 31.2763 12.2756 31.2763 11.6392V10.0881H31.1768C31.0907 10.2273 30.968 10.3996 30.8089 10.6051C30.6532 10.8073 30.4278 10.9879 30.1328 11.147C29.8411 11.3028 29.4467 11.3807 28.9496 11.3807C28.3331 11.3807 27.7796 11.2348 27.2891 10.9432C26.8018 10.6515 26.4157 10.2273 26.1307 9.67045C25.849 9.11364 25.7081 8.4375 25.7081 7.64205C25.7081 6.85985 25.8456 6.17874 26.1207 5.59872C26.3958 5.01539 26.7786 4.56463 27.2692 4.24645C27.7597 3.92495 28.3265 3.7642 28.9695 3.7642C29.4666 3.7642 29.861 3.84706 30.1527 4.01278C30.4477 4.17519 30.6731 4.3608 30.8288 4.5696C30.9879 4.77509 31.1106 4.94413 31.1967 5.0767H31.3161V3.86364H32.4496V11.7188C32.4496 12.375 32.3004 12.9086 32.0021 13.3196C31.7071 13.7339 31.3094 14.0372 30.8089 14.2294C30.3118 14.425 29.7583 14.5227 29.1484 14.5227ZM29.1087 10.3267C29.5793 10.3267 29.977 10.219 30.3018 10.0036C30.6267 9.78812 30.8736 9.47822 31.0426 9.07386C31.2116 8.66951 31.2962 8.18561 31.2962 7.62216C31.2962 7.07197 31.2133 6.58641 31.0476 6.16548C30.8819 5.74455 30.6366 5.41477 30.3118 5.17614C29.987 4.9375 29.5859 4.81818 29.1087 4.81818C28.6115 4.81818 28.1972 4.94413 27.8658 5.19602C27.5376 5.44792 27.2907 5.78598 27.125 6.21023C26.9626 6.63447 26.8814 7.10511 26.8814 7.62216C26.8814 8.15246 26.9643 8.62145 27.13 9.02912C27.299 9.43348 27.5476 9.75166 27.8757 9.98366C28.2071 10.2124 28.6181 10.3267 29.1087 10.3267ZM35.7706 6.90625V11.5H34.5973V1.31818H35.7706V5.05682H35.87C36.049 4.66241 36.3175 4.34919 36.6754 4.11719C37.0367 3.88187 37.5173 3.7642 38.1172 3.7642C38.6375 3.7642 39.0933 3.86861 39.4844 4.07741C39.8755 4.28291 40.1787 4.59943 40.3942 5.02699C40.6129 5.45123 40.7223 5.99148 40.7223 6.64773V11.5H39.549V6.72727C39.549 6.12074 39.3916 5.65175 39.0767 5.32031C38.7652 4.98556 38.3326 4.81818 37.7791 4.81818C37.3946 4.81818 37.05 4.89938 36.745 5.06179C36.4434 5.22419 36.2048 5.46117 36.0291 5.77273C35.8568 6.08428 35.7706 6.46212 35.7706 6.90625ZM47.2438 6.58807V7.68182H42.7892V6.58807H47.2438ZM52.3906 14.5227C51.8239 14.5227 51.3366 14.4498 50.929 14.304C50.5213 14.1615 50.1816 13.9725 49.9098 13.7372C49.6413 13.5052 49.4276 13.2566 49.2685 12.9915L50.2031 12.3352C50.3092 12.4744 50.4434 12.6335 50.6058 12.8125C50.7682 12.9948 50.9903 13.1522 51.272 13.2848C51.5571 13.4207 51.9299 13.4886 52.3906 13.4886C53.0071 13.4886 53.5159 13.3395 53.9169 13.0412C54.3179 12.7429 54.5185 12.2756 54.5185 11.6392V10.0881H54.419C54.3329 10.2273 54.2102 10.3996 54.0511 10.6051C53.8954 10.8073 53.67 10.9879 53.375 11.147C53.0833 11.3028 52.6889 11.3807 52.1918 11.3807C51.5753 11.3807 51.0218 11.2348 50.5312 10.9432C50.044 10.6515 49.6579 10.2273 49.3729 9.67045C49.0911 9.11364 48.9503 8.4375 48.9503 7.64205C48.9503 6.85985 49.0878 6.17874 49.3629 5.59872C49.638 5.01539 50.0208 4.56463 50.5114 4.24645C51.0019 3.92495 51.5687 3.7642 52.2116 3.7642C52.7088 3.7642 53.1032 3.84706 53.3949 4.01278C53.6899 4.17519 53.9152 4.3608 54.071 4.5696C54.2301 4.77509 54.3527 4.94413 54.4389 5.0767H54.5582V3.86364H55.6918V11.7188C55.6918 12.375 55.5426 12.9086 55.2443 13.3196C54.9493 13.7339 54.5516 14.0372 54.0511 14.2294C53.554 14.425 53.0005 14.5227 52.3906 14.5227ZM52.3509 10.3267C52.8215 10.3267 53.2192 10.219 53.544 10.0036C53.8688 9.78812 54.1158 9.47822 54.2848 9.07386C54.4538 8.66951 54.5384 8.18561 54.5384 7.62216C54.5384 7.07197 54.4555 6.58641 54.2898 6.16548C54.1241 5.74455 53.8788 5.41477 53.554 5.17614C53.2292 4.9375 52.8281 4.81818 52.3509 4.81818C51.8537 4.81818 51.4394 4.94413 51.108 5.19602C50.7798 5.44792 50.5329 5.78598 50.3672 6.21023C50.2048 6.63447 50.1236 7.10511 50.1236 7.62216C50.1236 8.15246 50.2064 8.62145 50.3722 9.02912C50.5412 9.43348 50.7898 9.75166 51.1179 9.98366C51.4493 10.2124 51.8603 10.3267 52.3509 10.3267ZM57.8395 11.5V3.86364H58.973V5.01705H59.0526C59.1918 4.6392 59.4437 4.33262 59.8082 4.0973C60.1728 3.86198 60.5838 3.74432 61.0412 3.74432C61.1274 3.74432 61.2351 3.74597 61.3643 3.74929C61.4936 3.7526 61.5914 3.75758 61.6577 3.7642V4.95739C61.6179 4.94744 61.5268 4.93253 61.3842 4.91264C61.245 4.88944 61.0975 4.87784 60.9418 4.87784C60.5705 4.87784 60.2391 4.95573 59.9474 5.11151C59.6591 5.26397 59.4304 5.47609 59.2614 5.74787C59.0956 6.01634 59.0128 6.32292 59.0128 6.66761V11.5H57.8395ZM65.9183 11.6591C65.2289 11.6591 64.6241 11.495 64.1037 11.1669C63.5866 10.8388 63.1823 10.3797 62.8906 9.78977C62.6023 9.19981 62.4581 8.51042 62.4581 7.72159C62.4581 6.92614 62.6023 6.23177 62.8906 5.63849C63.1823 5.04522 63.5866 4.58452 64.1037 4.25639C64.6241 3.92827 65.2289 3.7642 65.9183 3.7642C66.6077 3.7642 67.2109 3.92827 67.728 4.25639C68.2483 4.58452 68.6527 5.04522 68.9411 5.63849C69.2327 6.23177 69.3786 6.92614 69.3786 7.72159C69.3786 8.51042 69.2327 9.19981 68.9411 9.78977C68.6527 10.3797 68.2483 10.8388 67.728 11.1669C67.2109 11.495 66.6077 11.6591 65.9183 11.6591ZM65.9183 10.6051C66.442 10.6051 66.8729 10.4709 67.2109 10.2024C67.549 9.93395 67.7992 9.58097 67.9616 9.14347C68.1241 8.70597 68.2053 8.23201 68.2053 7.72159C68.2053 7.21117 68.1241 6.73556 67.9616 6.29474C67.7992 5.85393 67.549 5.49763 67.2109 5.22585C66.8729 4.95407 66.442 4.81818 65.9183 4.81818C65.3946 4.81818 64.9638 4.95407 64.6257 5.22585C64.2876 5.49763 64.0374 5.85393 63.875 6.29474C63.7126 6.73556 63.6314 7.21117 63.6314 7.72159C63.6314 8.23201 63.7126 8.70597 63.875 9.14347C64.0374 9.58097 64.2876 9.93395 64.6257 10.2024C64.9638 10.4709 65.3946 10.6051 65.9183 10.6051ZM72.6399 11.5L70.3132 3.86364H71.5462L73.1967 9.71023H73.2763L74.907 3.86364H76.1598L77.7706 9.69034H77.8501L79.5007 3.86364H80.7337L78.407 11.5H77.2536L75.5831 5.63352H75.4638L73.7933 11.5H72.6399ZM85.6058 3.86364V4.85795H81.6484V3.86364H85.6058ZM82.8018 2.03409H83.9751V9.3125C83.9751 9.64394 84.0232 9.89252 84.1193 10.0582C84.2188 10.2206 84.3447 10.33 84.4972 10.3864C84.6529 10.4394 84.817 10.4659 84.9893 10.4659C85.1186 10.4659 85.2247 10.4593 85.3075 10.446C85.3904 10.4295 85.4567 10.4162 85.5064 10.4062L85.745 11.4602C85.6655 11.4901 85.5545 11.5199 85.4119 11.5497C85.2694 11.5829 85.0888 11.5994 84.87 11.5994C84.5386 11.5994 84.2138 11.5282 83.8956 11.3857C83.5807 11.2431 83.3189 11.026 83.1101 10.7344C82.9046 10.4427 82.8018 10.0748 82.8018 9.63068V2.03409ZM88.7081 6.90625V11.5H87.5348V1.31818H88.7081V5.05682H88.8075C88.9865 4.66241 89.255 4.34919 89.6129 4.11719C89.9742 3.88187 90.4548 3.7642 91.0547 3.7642C91.575 3.7642 92.0308 3.86861 92.4219 4.07741C92.813 4.28291 93.1162 4.59943 93.3317 5.02699C93.5504 5.45123 93.6598 5.99148 93.6598 6.64773V11.5H92.4865V6.72727C92.4865 6.12074 92.3291 5.65175 92.0142 5.32031C91.7027 4.98556 91.2701 4.81818 90.7166 4.81818C90.3321 4.81818 89.9875 4.89938 89.6825 5.06179C89.3809 5.22419 89.1423 5.46117 88.9666 5.77273C88.7943 6.08428 88.7081 6.46212 88.7081 6.90625ZM102.945 11.6591C102.21 11.6591 101.575 11.4967 101.041 11.1719C100.511 10.8438 100.102 10.3864 99.8134 9.79972C99.5283 9.20975 99.3858 8.52367 99.3858 7.74148C99.3858 6.95928 99.5283 6.26989 99.8134 5.6733C100.102 5.07339 100.503 4.60606 101.017 4.27131C101.534 3.93324 102.137 3.7642 102.826 3.7642C103.224 3.7642 103.617 3.83049 104.004 3.96307C104.392 4.09564 104.745 4.31108 105.063 4.60938C105.382 4.90436 105.635 5.29545 105.824 5.78267C106.013 6.26989 106.107 6.86979 106.107 7.58239V8.07955H100.221V7.06534H104.914C104.914 6.63447 104.828 6.25 104.656 5.91193C104.487 5.57386 104.245 5.30705 103.93 5.11151C103.618 4.91596 103.25 4.81818 102.826 4.81818C102.359 4.81818 101.954 4.93419 101.613 5.16619C101.275 5.39489 101.015 5.69318 100.833 6.06108C100.65 6.42898 100.559 6.82339 100.559 7.24432V7.92045C100.559 8.49716 100.659 8.98603 100.857 9.38707C101.06 9.7848 101.34 10.0881 101.698 10.2969C102.056 10.5024 102.472 10.6051 102.945 10.6051C103.254 10.6051 103.532 10.562 103.781 10.4759C104.033 10.3864 104.25 10.2538 104.432 10.0781C104.614 9.89915 104.755 9.67708 104.855 9.41193L105.988 9.73011C105.869 10.1146 105.668 10.4527 105.387 10.7443C105.105 11.0327 104.757 11.258 104.343 11.4205C103.928 11.5795 103.463 11.6591 102.945 11.6591ZM113.102 14.3636V10.3267H113.003C112.917 10.4659 112.794 10.6416 112.635 10.8537C112.476 11.0625 112.249 11.2498 111.954 11.4155C111.659 11.5779 111.266 11.6591 110.776 11.6591C110.139 11.6591 109.578 11.4983 109.09 11.1768C108.603 10.852 108.222 10.3946 107.947 9.80469C107.672 9.21141 107.534 8.51042 107.534 7.7017C107.534 6.89962 107.672 6.2036 107.947 5.61364C108.222 5.02367 108.605 4.56794 109.095 4.24645C109.586 3.92495 110.153 3.7642 110.796 3.7642C111.293 3.7642 111.686 3.84706 111.974 4.01278C112.266 4.17519 112.488 4.3608 112.64 4.5696C112.796 4.77509 112.917 4.94413 113.003 5.0767H113.142V3.86364H114.276V14.3636H113.102ZM110.935 10.6051C111.405 10.6051 111.803 10.4825 112.128 10.2372C112.453 9.98864 112.7 9.6456 112.869 9.2081C113.038 8.76728 113.122 8.25852 113.122 7.68182C113.122 7.11174 113.039 6.61293 112.874 6.18537C112.708 5.7545 112.463 5.41974 112.138 5.18111C111.813 4.93916 111.412 4.81818 110.935 4.81818C110.438 4.81818 110.023 4.94579 109.692 5.20099C109.364 5.45289 109.117 5.79593 108.951 6.23011C108.789 6.66098 108.708 7.14489 108.708 7.68182C108.708 8.22538 108.79 8.71922 108.956 9.16335C109.125 9.60417 109.374 9.95549 109.702 10.2173C110.033 10.4759 110.444 10.6051 110.935 10.6051ZM121.236 8.37784V3.86364H122.409V11.5H121.236V10.2074H121.156C120.977 10.5952 120.699 10.925 120.321 11.1967C119.943 11.4652 119.466 11.5994 118.889 11.5994C118.412 11.5994 117.988 11.495 117.617 11.2862C117.245 11.0741 116.954 10.7559 116.742 10.3317C116.53 9.90412 116.423 9.36553 116.423 8.71591V3.86364H117.597V8.63636C117.597 9.19318 117.753 9.63731 118.064 9.96875C118.379 10.3002 118.78 10.4659 119.267 10.4659C119.559 10.4659 119.856 10.3913 120.157 10.2422C120.462 10.093 120.717 9.86435 120.923 9.55611C121.132 9.24787 121.236 8.85511 121.236 8.37784ZM124.558 11.5V3.86364H125.732V11.5H124.558ZM125.155 2.59091C124.926 2.59091 124.729 2.51302 124.563 2.35724C124.401 2.20147 124.32 2.0142 124.32 1.79545C124.32 1.5767 124.401 1.38944 124.563 1.23366C124.729 1.07789 124.926 1 125.155 1C125.384 1 125.579 1.07789 125.741 1.23366C125.907 1.38944 125.99 1.5767 125.99 1.79545C125.99 2.0142 125.907 2.20147 125.741 2.35724C125.579 2.51302 125.384 2.59091 125.155 2.59091ZM131.202 3.86364V4.85795H127.244V3.86364H131.202ZM128.398 2.03409H129.571V9.3125C129.571 9.64394 129.619 9.89252 129.715 10.0582C129.814 10.2206 129.94 10.33 130.093 10.3864C130.249 10.4394 130.413 10.4659 130.585 10.4659C130.714 10.4659 130.82 10.4593 130.903 10.446C130.986 10.4295 131.052 10.4162 131.102 10.4062L131.341 11.4602C131.261 11.4901 131.15 11.5199 131.008 11.5497C130.865 11.5829 130.684 11.5994 130.466 11.5994C130.134 11.5994 129.809 11.5282 129.491 11.3857C129.176 11.2431 128.915 11.026 128.706 10.7344C128.5 10.4427 128.398 10.0748 128.398 9.63068V2.03409ZM133.722 14.3636C133.523 14.3636 133.346 14.3471 133.19 14.3139C133.034 14.2841 132.927 14.2543 132.867 14.2244L133.165 13.1903C133.45 13.2633 133.702 13.2898 133.921 13.2699C134.14 13.25 134.334 13.1522 134.503 12.9766C134.675 12.8042 134.832 12.5241 134.975 12.1364L135.194 11.5398L132.37 3.86364H133.643L135.751 9.94886H135.83L137.938 3.86364H139.211L135.969 12.6136C135.823 13.008 135.643 13.3345 135.427 13.593C135.212 13.8549 134.962 14.0488 134.677 14.1747C134.395 14.3007 134.077 14.3636 133.722 14.3636ZM148.097 3.86364V4.85795H143.981V3.86364H148.097ZM145.214 11.5V2.80966C145.214 2.37216 145.317 2.00758 145.522 1.71591C145.728 1.42424 145.994 1.20549 146.323 1.05966C146.651 0.913825 146.997 0.840908 147.362 0.840908C147.65 0.840908 147.885 0.864109 148.068 0.910511C148.25 0.956912 148.386 0.999999 148.475 1.03977L148.137 2.05398C148.078 2.03409 147.995 2.00923 147.889 1.9794C147.786 1.94957 147.65 1.93466 147.481 1.93466C147.093 1.93466 146.813 2.03243 146.641 2.22798C146.472 2.42353 146.387 2.71023 146.387 3.08807V11.5H145.214ZM154.554 8.37784V3.86364H155.728V11.5H154.554V10.2074H154.475C154.296 10.5952 154.017 10.925 153.64 11.1967C153.262 11.4652 152.784 11.5994 152.208 11.5994C151.73 11.5994 151.306 11.495 150.935 11.2862C150.564 11.0741 150.272 10.7559 150.06 10.3317C149.848 9.90412 149.742 9.36553 149.742 8.71591V3.86364H150.915V8.63636C150.915 9.19318 151.071 9.63731 151.382 9.96875C151.697 10.3002 152.098 10.4659 152.586 10.4659C152.877 10.4659 153.174 10.3913 153.475 10.2422C153.78 10.093 154.036 9.86435 154.241 9.55611C154.45 9.24787 154.554 8.85511 154.554 8.37784ZM159.05 6.90625V11.5H157.877V3.86364H159.01V5.05682H159.11C159.289 4.66903 159.56 4.35748 159.925 4.12216C160.289 3.88352 160.76 3.7642 161.337 3.7642C161.854 3.7642 162.306 3.87027 162.694 4.08239C163.082 4.29119 163.383 4.60938 163.599 5.03693C163.814 5.46117 163.922 5.99811 163.922 6.64773V11.5H162.749V6.72727C162.749 6.12737 162.593 5.66004 162.281 5.32528C161.97 4.98722 161.542 4.81818 160.999 4.81818C160.624 4.81818 160.289 4.89938 159.994 5.06179C159.703 5.22419 159.472 5.46117 159.303 5.77273C159.134 6.08428 159.05 6.46212 159.05 6.90625ZM168.95 11.6591C168.313 11.6591 167.751 11.4983 167.264 11.1768C166.777 10.852 166.396 10.3946 166.121 9.80469C165.846 9.21141 165.708 8.51042 165.708 7.7017C165.708 6.89962 165.846 6.2036 166.121 5.61364C166.396 5.02367 166.779 4.56794 167.269 4.24645C167.76 3.92495 168.326 3.7642 168.969 3.7642C169.467 3.7642 169.859 3.84706 170.148 4.01278C170.439 4.17519 170.661 4.3608 170.814 4.5696C170.97 4.77509 171.091 4.94413 171.177 5.0767H171.276V1.31818H172.45V11.5H171.316V10.3267H171.177C171.091 10.4659 170.968 10.6416 170.809 10.8537C170.65 11.0625 170.423 11.2498 170.128 11.4155C169.833 11.5779 169.44 11.6591 168.95 11.6591ZM169.109 10.6051C169.579 10.6051 169.977 10.4825 170.302 10.2372C170.627 9.98864 170.874 9.6456 171.043 9.2081C171.212 8.76728 171.296 8.25852 171.296 7.68182C171.296 7.11174 171.213 6.61293 171.048 6.18537C170.882 5.7545 170.637 5.41974 170.312 5.18111C169.987 4.93916 169.586 4.81818 169.109 4.81818C168.612 4.81818 168.197 4.94579 167.866 5.20099C167.538 5.45289 167.291 5.79593 167.125 6.23011C166.963 6.66098 166.881 7.14489 166.881 7.68182C166.881 8.22538 166.964 8.71922 167.13 9.16335C167.299 9.60417 167.548 9.95549 167.876 10.2173C168.207 10.4759 168.618 10.6051 169.109 10.6051ZM182.099 3.86364V4.85795H177.983V3.86364H182.099ZM179.216 11.5V2.80966C179.216 2.37216 179.319 2.00758 179.524 1.71591C179.73 1.42424 179.996 1.20549 180.325 1.05966C180.653 0.913825 180.999 0.840908 181.364 0.840908C181.652 0.840908 181.887 0.864109 182.07 0.910511C182.252 0.956912 182.388 0.999999 182.477 1.03977L182.139 2.05398C182.08 2.03409 181.997 2.00923 181.891 1.9794C181.788 1.94957 181.652 1.93466 181.483 1.93466C181.095 1.93466 180.815 2.03243 180.643 2.22798C180.474 2.42353 180.389 2.71023 180.389 3.08807V11.5H179.216ZM186.532 11.6591C185.842 11.6591 185.237 11.495 184.717 11.1669C184.2 10.8388 183.796 10.3797 183.504 9.78977C183.216 9.19981 183.071 8.51042 183.071 7.72159C183.071 6.92614 183.216 6.23177 183.504 5.63849C183.796 5.04522 184.2 4.58452 184.717 4.25639C185.237 3.92827 185.842 3.7642 186.532 3.7642C187.221 3.7642 187.824 3.92827 188.341 4.25639C188.862 4.58452 189.266 5.04522 189.554 5.63849C189.846 6.23177 189.992 6.92614 189.992 7.72159C189.992 8.51042 189.846 9.19981 189.554 9.78977C189.266 10.3797 188.862 10.8388 188.341 11.1669C187.824 11.495 187.221 11.6591 186.532 11.6591ZM186.532 10.6051C187.055 10.6051 187.486 10.4709 187.824 10.2024C188.162 9.93395 188.413 9.58097 188.575 9.14347C188.737 8.70597 188.819 8.23201 188.819 7.72159C188.819 7.21117 188.737 6.73556 188.575 6.29474C188.413 5.85393 188.162 5.49763 187.824 5.22585C187.486 4.95407 187.055 4.81818 186.532 4.81818C186.008 4.81818 185.577 4.95407 185.239 5.22585C184.901 5.49763 184.651 5.85393 184.488 6.29474C184.326 6.73556 184.245 7.21117 184.245 7.72159C184.245 8.23201 184.326 8.70597 184.488 9.14347C184.651 9.58097 184.901 9.93395 185.239 10.2024C185.577 10.4709 186.008 10.6051 186.532 10.6051ZM194.885 11.6591C194.169 11.6591 193.553 11.4901 193.036 11.152C192.519 10.8139 192.121 10.3482 191.843 9.75497C191.564 9.16169 191.425 8.4839 191.425 7.72159C191.425 6.94602 191.567 6.2616 191.852 5.66832C192.141 5.07173 192.542 4.60606 193.056 4.27131C193.573 3.93324 194.176 3.7642 194.865 3.7642C195.402 3.7642 195.886 3.86364 196.317 4.0625C196.748 4.26136 197.101 4.53977 197.376 4.89773C197.651 5.25568 197.822 5.6733 197.888 6.15057H196.715C196.625 5.80256 196.426 5.49432 196.118 5.22585C195.813 4.95407 195.402 4.81818 194.885 4.81818C194.428 4.81818 194.027 4.9375 193.682 5.17614C193.341 5.41146 193.074 5.74455 192.882 6.17543C192.693 6.60298 192.598 7.10511 192.598 7.68182C192.598 8.27178 192.691 8.78551 192.877 9.22301C193.066 9.66051 193.331 10.0002 193.672 10.2422C194.017 10.4841 194.421 10.6051 194.885 10.6051C195.19 10.6051 195.467 10.5521 195.715 10.446C195.964 10.34 196.174 10.1875 196.347 9.98864C196.519 9.78977 196.642 9.55114 196.715 9.27273H197.888C197.822 9.72348 197.658 10.1295 197.396 10.4908C197.137 10.8487 196.794 11.1338 196.367 11.3459C195.942 11.5547 195.449 11.6591 194.885 11.6591ZM204.416 8.37784V3.86364H205.589V11.5H204.416V10.2074H204.336C204.157 10.5952 203.879 10.925 203.501 11.1967C203.123 11.4652 202.646 11.5994 202.069 11.5994C201.592 11.5994 201.168 11.495 200.796 11.2862C200.425 11.0741 200.133 10.7559 199.921 10.3317C199.709 9.90412 199.603 9.36553 199.603 8.71591V3.86364H200.776V8.63636C200.776 9.19318 200.932 9.63731 201.244 9.96875C201.559 10.3002 201.96 10.4659 202.447 10.4659C202.739 10.4659 203.035 10.3913 203.337 10.2422C203.642 10.093 203.897 9.86435 204.102 9.55611C204.311 9.24787 204.416 8.85511 204.416 8.37784ZM213.147 5.57386L212.093 5.87216C212.027 5.6965 211.929 5.5258 211.8 5.36009C211.674 5.19105 211.501 5.05185 211.283 4.94247C211.064 4.8331 210.784 4.77841 210.442 4.77841C209.975 4.77841 209.586 4.88613 209.274 5.10156C208.966 5.31368 208.812 5.58381 208.812 5.91193C208.812 6.2036 208.918 6.43395 209.13 6.60298C209.342 6.77202 209.674 6.91288 210.124 7.02557L211.258 7.30398C211.941 7.4697 212.449 7.72325 212.784 8.06463C213.119 8.4027 213.286 8.83854 213.286 9.37216C213.286 9.80966 213.16 10.2008 212.908 10.5455C212.66 10.8902 212.312 11.1619 211.864 11.3608C211.417 11.5597 210.897 11.6591 210.303 11.6591C209.524 11.6591 208.88 11.4901 208.369 11.152C207.859 10.8139 207.536 10.3201 207.4 9.67045L208.513 9.39205C208.62 9.80303 208.82 10.1113 209.115 10.3168C209.413 10.5223 209.803 10.625 210.283 10.625C210.83 10.625 211.264 10.509 211.586 10.277C211.911 10.0417 212.073 9.75994 212.073 9.43182C212.073 9.16667 211.98 8.9446 211.795 8.76562C211.609 8.58333 211.324 8.44744 210.94 8.35795L209.667 8.05966C208.968 7.89394 208.454 7.63707 208.126 7.28906C207.801 6.93774 207.638 6.49858 207.638 5.97159C207.638 5.54072 207.759 5.15956 208.001 4.82812C208.247 4.49669 208.58 4.23651 209.001 4.04758C209.425 3.85866 209.906 3.7642 210.442 3.7642C211.198 3.7642 211.791 3.92992 212.222 4.26136C212.656 4.5928 212.965 5.0303 213.147 5.57386ZM218.254 11.6591C217.518 11.6591 216.884 11.4967 216.35 11.1719C215.82 10.8438 215.41 10.3864 215.122 9.79972C214.837 9.20975 214.694 8.52367 214.694 7.74148C214.694 6.95928 214.837 6.26989 215.122 5.6733C215.41 5.07339 215.811 4.60606 216.325 4.27131C216.842 3.93324 217.445 3.7642 218.135 3.7642C218.532 3.7642 218.925 3.83049 219.313 3.96307C219.701 4.09564 220.054 4.31108 220.372 4.60938C220.69 4.90436 220.944 5.29545 221.133 5.78267C221.322 6.26989 221.416 6.86979 221.416 7.58239V8.07955H215.53V7.06534H220.223C220.223 6.63447 220.137 6.25 219.964 5.91193C219.795 5.57386 219.553 5.30705 219.238 5.11151C218.927 4.91596 218.559 4.81818 218.135 4.81818C217.667 4.81818 217.263 4.93419 216.922 5.16619C216.584 5.39489 216.323 5.69318 216.141 6.06108C215.959 6.42898 215.868 6.82339 215.868 7.24432V7.92045C215.868 8.49716 215.967 8.98603 216.166 9.38707C216.368 9.7848 216.648 10.0881 217.006 10.2969C217.364 10.5024 217.78 10.6051 218.254 10.6051C218.562 10.6051 218.841 10.562 219.089 10.4759C219.341 10.3864 219.558 10.2538 219.741 10.0781C219.923 9.89915 220.064 9.67708 220.163 9.41193L221.297 9.73011C221.177 10.1146 220.977 10.4527 220.695 10.7443C220.413 11.0327 220.065 11.258 219.651 11.4205C219.237 11.5795 218.771 11.6591 218.254 11.6591ZM226.084 11.6591C225.448 11.6591 224.886 11.4983 224.399 11.1768C223.912 10.852 223.531 10.3946 223.256 9.80469C222.98 9.21141 222.843 8.51042 222.843 7.7017C222.843 6.89962 222.98 6.2036 223.256 5.61364C223.531 5.02367 223.913 4.56794 224.404 4.24645C224.894 3.92495 225.461 3.7642 226.104 3.7642C226.601 3.7642 226.994 3.84706 227.282 4.01278C227.574 4.17519 227.796 4.3608 227.949 4.5696C228.104 4.77509 228.225 4.94413 228.312 5.0767H228.411V1.31818H229.584V11.5H228.451V10.3267H228.312C228.225 10.4659 228.103 10.6416 227.944 10.8537C227.785 11.0625 227.558 11.2498 227.263 11.4155C226.968 11.5779 226.575 11.6591 226.084 11.6591ZM226.243 10.6051C226.714 10.6051 227.112 10.4825 227.437 10.2372C227.761 9.98864 228.008 9.6456 228.177 9.2081C228.346 8.76728 228.431 8.25852 228.431 7.68182C228.431 7.11174 228.348 6.61293 228.182 6.18537C228.017 5.7545 227.771 5.41974 227.447 5.18111C227.122 4.93916 226.721 4.81818 226.243 4.81818C225.746 4.81818 225.332 4.94579 225.001 5.20099C224.672 5.45289 224.425 5.79593 224.26 6.23011C224.097 6.66098 224.016 7.14489 224.016 7.68182C224.016 8.22538 224.099 8.71922 224.265 9.16335C224.434 9.60417 224.682 9.95549 225.01 10.2173C225.342 10.4759 225.753 10.6051 226.243 10.6051ZM238.936 11.6591C238.247 11.6591 237.642 11.495 237.121 11.1669C236.604 10.8388 236.2 10.3797 235.908 9.78977C235.62 9.19981 235.476 8.51042 235.476 7.72159C235.476 6.92614 235.62 6.23177 235.908 5.63849C236.2 5.04522 236.604 4.58452 237.121 4.25639C237.642 3.92827 238.247 3.7642 238.936 3.7642C239.625 3.7642 240.229 3.92827 240.746 4.25639C241.266 4.58452 241.67 5.04522 241.959 5.63849C242.25 6.23177 242.396 6.92614 242.396 7.72159C242.396 8.51042 242.25 9.19981 241.959 9.78977C241.67 10.3797 241.266 10.8388 240.746 11.1669C240.229 11.495 239.625 11.6591 238.936 11.6591ZM238.936 10.6051C239.46 10.6051 239.89 10.4709 240.229 10.2024C240.567 9.93395 240.817 9.58097 240.979 9.14347C241.142 8.70597 241.223 8.23201 241.223 7.72159C241.223 7.21117 241.142 6.73556 240.979 6.29474C240.817 5.85393 240.567 5.49763 240.229 5.22585C239.89 4.95407 239.46 4.81818 238.936 4.81818C238.412 4.81818 237.981 4.95407 237.643 5.22585C237.305 5.49763 237.055 5.85393 236.893 6.29474C236.73 6.73556 236.649 7.21117 236.649 7.72159C236.649 8.23201 236.73 8.70597 236.893 9.14347C237.055 9.58097 237.305 9.93395 237.643 10.2024C237.981 10.4709 238.412 10.6051 238.936 10.6051ZM245.36 6.90625V11.5H244.187V3.86364H245.321V5.05682H245.42C245.599 4.66903 245.871 4.35748 246.235 4.12216C246.6 3.88352 247.071 3.7642 247.647 3.7642C248.164 3.7642 248.617 3.87027 249.005 4.08239C249.392 4.29119 249.694 4.60938 249.909 5.03693C250.125 5.46117 250.233 5.99811 250.233 6.64773V11.5H249.059V6.72727C249.059 6.12737 248.904 5.66004 248.592 5.32528C248.28 4.98722 247.853 4.81818 247.309 4.81818C246.935 4.81818 246.6 4.89938 246.305 5.06179C246.013 5.22419 245.783 5.46117 245.614 5.77273C245.445 6.08428 245.36 6.46212 245.36 6.90625ZM259.635 3.86364V4.85795H255.678V3.86364H259.635ZM256.831 2.03409H258.004V9.3125C258.004 9.64394 258.052 9.89252 258.149 10.0582C258.248 10.2206 258.374 10.33 258.526 10.3864C258.682 10.4394 258.846 10.4659 259.019 10.4659C259.148 10.4659 259.254 10.4593 259.337 10.446C259.42 10.4295 259.486 10.4162 259.536 10.4062L259.774 11.4602C259.695 11.4901 259.584 11.5199 259.441 11.5497C259.299 11.5829 259.118 11.5994 258.899 11.5994C258.568 11.5994 258.243 11.5282 257.925 11.3857C257.61 11.2431 257.348 11.026 257.139 10.7344C256.934 10.4427 256.831 10.0748 256.831 9.63068V2.03409ZM264.52 11.6591C263.784 11.6591 263.149 11.4967 262.616 11.1719C262.085 10.8438 261.676 10.3864 261.388 9.79972C261.103 9.20975 260.96 8.52367 260.96 7.74148C260.96 6.95928 261.103 6.26989 261.388 5.6733C261.676 5.07339 262.077 4.60606 262.591 4.27131C263.108 3.93324 263.711 3.7642 264.4 3.7642C264.798 3.7642 265.191 3.83049 265.579 3.96307C265.966 4.09564 266.319 4.31108 266.638 4.60938C266.956 4.90436 267.209 5.29545 267.398 5.78267C267.587 6.26989 267.682 6.86979 267.682 7.58239V8.07955H261.795V7.06534H266.488C266.488 6.63447 266.402 6.25 266.23 5.91193C266.061 5.57386 265.819 5.30705 265.504 5.11151C265.193 4.91596 264.825 4.81818 264.4 4.81818C263.933 4.81818 263.529 4.93419 263.187 5.16619C262.849 5.39489 262.589 5.69318 262.407 6.06108C262.224 6.42898 262.133 6.82339 262.133 7.24432V7.92045C262.133 8.49716 262.233 8.98603 262.432 9.38707C262.634 9.7848 262.914 10.0881 263.272 10.2969C263.63 10.5024 264.046 10.6051 264.52 10.6051C264.828 10.6051 265.106 10.562 265.355 10.4759C265.607 10.3864 265.824 10.2538 266.006 10.0781C266.189 9.89915 266.329 9.67708 266.429 9.41193L267.562 9.73011C267.443 10.1146 267.242 10.4527 266.961 10.7443C266.679 11.0327 266.331 11.258 265.917 11.4205C265.502 11.5795 265.037 11.6591 264.52 11.6591ZM272.569 11.6591C271.853 11.6591 271.236 11.4901 270.719 11.152C270.202 10.8139 269.805 10.3482 269.526 9.75497C269.248 9.16169 269.108 8.4839 269.108 7.72159C269.108 6.94602 269.251 6.2616 269.536 5.66832C269.824 5.07173 270.225 4.60606 270.739 4.27131C271.256 3.93324 271.859 3.7642 272.549 3.7642C273.086 3.7642 273.57 3.86364 274.001 4.0625C274.431 4.26136 274.784 4.53977 275.059 4.89773C275.335 5.25568 275.505 5.6733 275.572 6.15057H274.398C274.309 5.80256 274.11 5.49432 273.802 5.22585C273.497 4.95407 273.086 4.81818 272.569 4.81818C272.111 4.81818 271.71 4.9375 271.366 5.17614C271.024 5.41146 270.757 5.74455 270.565 6.17543C270.376 6.60298 270.282 7.10511 270.282 7.68182C270.282 8.27178 270.375 8.78551 270.56 9.22301C270.749 9.66051 271.014 10.0002 271.356 10.2422C271.7 10.4841 272.105 10.6051 272.569 10.6051C272.874 10.6051 273.15 10.5521 273.399 10.446C273.648 10.34 273.858 10.1875 274.03 9.98864C274.203 9.78977 274.325 9.55114 274.398 9.27273H275.572C275.505 9.72348 275.341 10.1295 275.079 10.4908C274.821 10.8487 274.478 11.1338 274.05 11.3459C273.626 11.5547 273.132 11.6591 272.569 11.6591ZM278.46 6.90625V11.5H277.287V1.31818H278.46V5.05682H278.559C278.738 4.66241 279.007 4.34919 279.365 4.11719C279.726 3.88187 280.207 3.7642 280.807 3.7642C281.327 3.7642 281.783 3.86861 282.174 4.07741C282.565 4.28291 282.868 4.59943 283.084 5.02699C283.302 5.45123 283.412 5.99148 283.412 6.64773V11.5H282.238V6.72727C282.238 6.12074 282.081 5.65175 281.766 5.32031C281.455 4.98556 281.022 4.81818 280.469 4.81818C280.084 4.81818 279.739 4.89938 279.434 5.06179C279.133 5.22419 278.894 5.46117 278.719 5.77273C278.546 6.08428 278.46 6.46212 278.46 6.90625ZM286.732 6.90625V11.5H285.558V3.86364H286.692V5.05682H286.791C286.97 4.66903 287.242 4.35748 287.607 4.12216C287.971 3.88352 288.442 3.7642 289.018 3.7642C289.536 3.7642 289.988 3.87027 290.376 4.08239C290.763 4.29119 291.065 4.60938 291.281 5.03693C291.496 5.46117 291.604 5.99811 291.604 6.64773V11.5H290.43V6.72727C290.43 6.12737 290.275 5.66004 289.963 5.32528C289.652 4.98722 289.224 4.81818 288.68 4.81818C288.306 4.81818 287.971 4.89938 287.676 5.06179C287.384 5.22419 287.154 5.46117 286.985 5.77273C286.816 6.08428 286.732 6.46212 286.732 6.90625ZM296.85 11.6591C296.161 11.6591 295.556 11.495 295.035 11.1669C294.518 10.8388 294.114 10.3797 293.822 9.78977C293.534 9.19981 293.39 8.51042 293.39 7.72159C293.39 6.92614 293.534 6.23177 293.822 5.63849C294.114 5.04522 294.518 4.58452 295.035 4.25639C295.556 3.92827 296.161 3.7642 296.85 3.7642C297.539 3.7642 298.143 3.92827 298.66 4.25639C299.18 4.58452 299.584 5.04522 299.873 5.63849C300.164 6.23177 300.31 6.92614 300.31 7.72159C300.31 8.51042 300.164 9.19981 299.873 9.78977C299.584 10.3797 299.18 10.8388 298.66 11.1669C298.143 11.495 297.539 11.6591 296.85 11.6591ZM296.85 10.6051C297.374 10.6051 297.805 10.4709 298.143 10.2024C298.481 9.93395 298.731 9.58097 298.893 9.14347C299.056 8.70597 299.137 8.23201 299.137 7.72159C299.137 7.21117 299.056 6.73556 298.893 6.29474C298.731 5.85393 298.481 5.49763 298.143 5.22585C297.805 4.95407 297.374 4.81818 296.85 4.81818C296.326 4.81818 295.895 4.95407 295.557 5.22585C295.219 5.49763 294.969 5.85393 294.807 6.29474C294.644 6.73556 294.563 7.21117 294.563 7.72159C294.563 8.23201 294.644 8.70597 294.807 9.14347C294.969 9.58097 295.219 9.93395 295.557 10.2024C295.895 10.4709 296.326 10.6051 296.85 10.6051ZM303.275 1.31818V11.5H302.101V1.31818H303.275ZM308.526 11.6591C307.836 11.6591 307.231 11.495 306.711 11.1669C306.194 10.8388 305.79 10.3797 305.498 9.78977C305.21 9.19981 305.066 8.51042 305.066 7.72159C305.066 6.92614 305.21 6.23177 305.498 5.63849C305.79 5.04522 306.194 4.58452 306.711 4.25639C307.231 3.92827 307.836 3.7642 308.526 3.7642C309.215 3.7642 309.818 3.92827 310.335 4.25639C310.856 4.58452 311.26 5.04522 311.548 5.63849C311.84 6.23177 311.986 6.92614 311.986 7.72159C311.986 8.51042 311.84 9.19981 311.548 9.78977C311.26 10.3797 310.856 10.8388 310.335 11.1669C309.818 11.495 309.215 11.6591 308.526 11.6591ZM308.526 10.6051C309.049 10.6051 309.48 10.4709 309.818 10.2024C310.156 9.93395 310.407 9.58097 310.569 9.14347C310.731 8.70597 310.813 8.23201 310.813 7.72159C310.813 7.21117 310.731 6.73556 310.569 6.29474C310.407 5.85393 310.156 5.49763 309.818 5.22585C309.48 4.95407 309.049 4.81818 308.526 4.81818C308.002 4.81818 307.571 4.95407 307.233 5.22585C306.895 5.49763 306.645 5.85393 306.482 6.29474C306.32 6.73556 306.239 7.21117 306.239 7.72159C306.239 8.23201 306.32 8.70597 306.482 9.14347C306.645 9.58097 306.895 9.93395 307.233 10.2024C307.571 10.4709 308.002 10.6051 308.526 10.6051ZM316.859 14.5227C316.293 14.5227 315.805 14.4498 315.398 14.304C314.99 14.1615 314.65 13.9725 314.379 13.7372C314.11 13.5052 313.896 13.2566 313.737 12.9915L314.672 12.3352C314.778 12.4744 314.912 12.6335 315.075 12.8125C315.237 12.9948 315.459 13.1522 315.741 13.2848C316.026 13.4207 316.399 13.4886 316.859 13.4886C317.476 13.4886 317.985 13.3395 318.386 13.0412C318.787 12.7429 318.987 12.2756 318.987 11.6392V10.0881H318.888C318.802 10.2273 318.679 10.3996 318.52 10.6051C318.364 10.8073 318.139 10.9879 317.844 11.147C317.552 11.3028 317.158 11.3807 316.661 11.3807C316.044 11.3807 315.491 11.2348 315 10.9432C314.513 10.6515 314.127 10.2273 313.842 9.67045C313.56 9.11364 313.419 8.4375 313.419 7.64205C313.419 6.85985 313.557 6.17874 313.832 5.59872C314.107 5.01539 314.49 4.56463 314.98 4.24645C315.471 3.92495 316.037 3.7642 316.68 3.7642C317.178 3.7642 317.572 3.84706 317.864 4.01278C318.159 4.17519 318.384 4.3608 318.54 4.5696C318.699 4.77509 318.821 4.94413 318.908 5.0767H319.027V3.86364H320.161V11.7188C320.161 12.375 320.011 12.9086 319.713 13.3196C319.418 13.7339 319.02 14.0372 318.52 14.2294C318.023 14.425 317.469 14.5227 316.859 14.5227ZM316.82 10.3267C317.29 10.3267 317.688 10.219 318.013 10.0036C318.338 9.78812 318.585 9.47822 318.754 9.07386C318.923 8.66951 319.007 8.18561 319.007 7.62216C319.007 7.07197 318.924 6.58641 318.759 6.16548C318.593 5.74455 318.348 5.41477 318.023 5.17614C317.698 4.9375 317.297 4.81818 316.82 4.81818C316.322 4.81818 315.908 4.94413 315.577 5.19602C315.249 5.44792 315.002 5.78598 314.836 6.21023C314.674 6.63447 314.592 7.10511 314.592 7.62216C314.592 8.15246 314.675 8.62145 314.841 9.02912C315.01 9.43348 315.259 9.75166 315.587 9.98366C315.918 10.2124 316.329 10.3267 316.82 10.3267ZM323.064 14.3636C322.865 14.3636 322.688 14.3471 322.532 14.3139C322.376 14.2841 322.268 14.2543 322.209 14.2244L322.507 13.1903C322.792 13.2633 323.044 13.2898 323.263 13.2699C323.482 13.25 323.675 13.1522 323.844 12.9766C324.017 12.8042 324.174 12.5241 324.317 12.1364L324.536 11.5398L321.712 3.86364H322.984L325.092 9.94886H325.172L327.28 3.86364H328.553L325.311 12.6136C325.165 13.008 324.985 13.3345 324.769 13.593C324.554 13.8549 324.304 14.0488 324.018 14.1747C323.737 14.3007 323.419 14.3636 323.064 14.3636ZM339.448 5.57386L338.394 5.87216C338.328 5.6965 338.23 5.5258 338.1 5.36009C337.975 5.19105 337.802 5.05185 337.583 4.94247C337.365 4.8331 337.085 4.77841 336.743 4.77841C336.276 4.77841 335.886 4.88613 335.575 5.10156C335.267 5.31368 335.113 5.58381 335.113 5.91193C335.113 6.2036 335.219 6.43395 335.431 6.60298C335.643 6.77202 335.974 6.91288 336.425 7.02557L337.559 7.30398C338.241 7.4697 338.75 7.72325 339.085 8.06463C339.42 8.4027 339.587 8.83854 339.587 9.37216C339.587 9.80966 339.461 10.2008 339.209 10.5455C338.961 10.8902 338.613 11.1619 338.165 11.3608C337.718 11.5597 337.197 11.6591 336.604 11.6591C335.825 11.6591 335.181 11.4901 334.67 11.152C334.16 10.8139 333.837 10.3201 333.701 9.67045L334.814 9.39205C334.92 9.80303 335.121 10.1113 335.416 10.3168C335.714 10.5223 336.104 10.625 336.584 10.625C337.131 10.625 337.565 10.509 337.887 10.277C338.212 10.0417 338.374 9.75994 338.374 9.43182C338.374 9.16667 338.281 8.9446 338.096 8.76562C337.91 8.58333 337.625 8.44744 337.24 8.35795L335.968 8.05966C335.268 7.89394 334.755 7.63707 334.426 7.28906C334.102 6.93774 333.939 6.49858 333.939 5.97159C333.939 5.54072 334.06 5.15956 334.302 4.82812C334.547 4.49669 334.881 4.23651 335.301 4.04758C335.726 3.85866 336.206 3.7642 336.743 3.7642C337.499 3.7642 338.092 3.92992 338.523 4.26136C338.957 4.5928 339.266 5.0303 339.448 5.57386ZM344.674 3.86364V4.85795H340.717V3.86364H344.674ZM341.87 2.03409H343.044V9.3125C343.044 9.64394 343.092 9.89252 343.188 10.0582C343.287 10.2206 343.413 10.33 343.566 10.3864C343.721 10.4394 343.885 10.4659 344.058 10.4659C344.187 10.4659 344.293 10.4593 344.376 10.446C344.459 10.4295 344.525 10.4162 344.575 10.4062L344.813 11.4602C344.734 11.4901 344.623 11.5199 344.48 11.5497C344.338 11.5829 344.157 11.5994 343.938 11.5994C343.607 11.5994 343.282 11.5282 342.964 11.3857C342.649 11.2431 342.387 11.026 342.178 10.7344C341.973 10.4427 341.87 10.0748 341.87 9.63068V2.03409ZM348.686 11.679C348.202 11.679 347.763 11.5878 347.369 11.4055C346.974 11.2199 346.661 10.9531 346.429 10.6051C346.197 10.2538 346.081 9.82955 346.081 9.33239C346.081 8.89489 346.167 8.54025 346.34 8.26847C346.512 7.99337 346.742 7.77794 347.031 7.62216C347.319 7.46638 347.637 7.35038 347.985 7.27415C348.337 7.1946 348.69 7.13163 349.044 7.08523C349.508 7.02557 349.884 6.98082 350.173 6.95099C350.464 6.91785 350.677 6.86316 350.809 6.78693C350.945 6.7107 351.013 6.57812 351.013 6.3892V6.34943C351.013 5.8589 350.879 5.47775 350.61 5.20597C350.345 4.93419 349.942 4.7983 349.402 4.7983C348.842 4.7983 348.403 4.92093 348.085 5.16619C347.767 5.41146 347.543 5.6733 347.414 5.9517L346.3 5.55398C346.499 5.08996 346.764 4.72869 347.095 4.47017C347.43 4.20833 347.795 4.02604 348.189 3.9233C348.587 3.81723 348.978 3.7642 349.362 3.7642C349.608 3.7642 349.889 3.79403 350.208 3.85369C350.529 3.91004 350.839 4.0277 351.137 4.20668C351.439 4.38565 351.689 4.65578 351.888 5.01705C352.087 5.37831 352.186 5.86222 352.186 6.46875V11.5H351.013V10.4659H350.953C350.874 10.6316 350.741 10.8089 350.556 10.9979C350.37 11.1868 350.123 11.3475 349.815 11.4801C349.507 11.6127 349.13 11.679 348.686 11.679ZM348.865 10.625C349.329 10.625 349.72 10.5339 350.039 10.3516C350.36 10.1693 350.602 9.93395 350.764 9.6456C350.93 9.35724 351.013 9.05398 351.013 8.7358V7.66193C350.963 7.72159 350.854 7.77628 350.685 7.82599C350.519 7.8724 350.327 7.91383 350.108 7.95028C349.893 7.98343 349.682 8.01326 349.477 8.03977C349.275 8.06297 349.11 8.08286 348.985 8.09943C348.68 8.1392 348.395 8.20384 348.129 8.29332C347.868 8.3795 347.655 8.51042 347.493 8.68608C347.334 8.85843 347.254 9.09375 347.254 9.39205C347.254 9.79972 347.405 10.108 347.707 10.3168C348.012 10.5223 348.398 10.625 348.865 10.625ZM354.328 11.5V3.86364H355.461V5.01705H355.541C355.68 4.6392 355.932 4.33262 356.297 4.0973C356.661 3.86198 357.072 3.74432 357.529 3.74432C357.616 3.74432 357.723 3.74597 357.853 3.74929C357.982 3.7526 358.08 3.75758 358.146 3.7642V4.95739C358.106 4.94744 358.015 4.93253 357.873 4.91264C357.733 4.88944 357.586 4.87784 357.43 4.87784C357.059 4.87784 356.727 4.95573 356.436 5.11151C356.147 5.26397 355.919 5.47609 355.75 5.74787C355.584 6.01634 355.501 6.32292 355.501 6.66761V11.5H354.328ZM363.336 3.86364V4.85795H359.379V3.86364H363.336ZM360.532 2.03409H361.706V9.3125C361.706 9.64394 361.754 9.89252 361.85 10.0582C361.949 10.2206 362.075 10.33 362.228 10.3864C362.383 10.4394 362.547 10.4659 362.72 10.4659C362.849 10.4659 362.955 10.4593 363.038 10.446C363.121 10.4295 363.187 10.4162 363.237 10.4062L363.475 11.4602C363.396 11.4901 363.285 11.5199 363.142 11.5497C363 11.5829 362.819 11.5994 362.6 11.5994C362.269 11.5994 361.944 11.5282 361.626 11.3857C361.311 11.2431 361.049 11.026 360.841 10.7344C360.635 10.4427 360.532 10.0748 360.532 9.63068V2.03409ZM369.914 8.37784V3.86364H371.087V11.5H369.914V10.2074H369.834C369.655 10.5952 369.377 10.925 368.999 11.1967C368.621 11.4652 368.144 11.5994 367.567 11.5994C367.09 11.5994 366.666 11.495 366.294 11.2862C365.923 11.0741 365.632 10.7559 365.419 10.3317C365.207 9.90412 365.101 9.36553 365.101 8.71591V3.86364H366.275V8.63636C366.275 9.19318 366.43 9.63731 366.742 9.96875C367.057 10.3002 367.458 10.4659 367.945 10.4659C368.237 10.4659 368.533 10.3913 368.835 10.2422C369.14 10.093 369.395 9.86435 369.6 9.55611C369.809 9.24787 369.914 8.85511 369.914 8.37784ZM373.236 14.3636V3.86364H374.369V5.0767H374.509C374.595 4.94413 374.714 4.77509 374.867 4.5696C375.022 4.3608 375.244 4.17519 375.533 4.01278C375.825 3.84706 376.219 3.7642 376.716 3.7642C377.359 3.7642 377.926 3.92495 378.416 4.24645C378.907 4.56794 379.29 5.02367 379.565 5.61364C379.84 6.2036 379.977 6.89962 379.977 7.7017C379.977 8.51042 379.84 9.21141 379.565 9.80469C379.29 10.3946 378.909 10.852 378.421 11.1768C377.934 11.4983 377.372 11.6591 376.736 11.6591C376.245 11.6591 375.853 11.5779 375.558 11.4155C375.263 11.2498 375.036 11.0625 374.877 10.8537C374.718 10.6416 374.595 10.4659 374.509 10.3267H374.409V14.3636H373.236ZM374.389 7.68182C374.389 8.25852 374.474 8.76728 374.643 9.2081C374.812 9.6456 375.059 9.98864 375.384 10.2372C375.709 10.4825 376.106 10.6051 376.577 10.6051C377.067 10.6051 377.477 10.4759 377.805 10.2173C378.136 9.95549 378.385 9.60417 378.551 9.16335C378.72 8.71922 378.804 8.22538 378.804 7.68182C378.804 7.14489 378.721 6.66098 378.556 6.23011C378.393 5.79593 378.146 5.45289 377.815 5.20099C377.487 4.94579 377.074 4.81818 376.577 4.81818C376.1 4.81818 375.699 4.93916 375.374 5.18111C375.049 5.41974 374.804 5.7545 374.638 6.18537C374.472 6.61293 374.389 7.11174 374.389 7.68182ZM387.176 5.57386L386.122 5.87216C386.056 5.6965 385.958 5.5258 385.829 5.36009C385.703 5.19105 385.531 5.05185 385.312 4.94247C385.093 4.8331 384.813 4.77841 384.472 4.77841C384.004 4.77841 383.615 4.88613 383.303 5.10156C382.995 5.31368 382.841 5.58381 382.841 5.91193C382.841 6.2036 382.947 6.43395 383.159 6.60298C383.371 6.77202 383.703 6.91288 384.154 7.02557L385.287 7.30398C385.97 7.4697 386.479 7.72325 386.813 8.06463C387.148 8.4027 387.316 8.83854 387.316 9.37216C387.316 9.80966 387.19 10.2008 386.938 10.5455C386.689 10.8902 386.341 11.1619 385.894 11.3608C385.446 11.5597 384.926 11.6591 384.333 11.6591C383.554 11.6591 382.909 11.4901 382.399 11.152C381.888 10.8139 381.565 10.3201 381.429 9.67045L382.543 9.39205C382.649 9.80303 382.849 10.1113 383.144 10.3168C383.443 10.5223 383.832 10.625 384.313 10.625C384.86 10.625 385.294 10.509 385.615 10.277C385.94 10.0417 386.102 9.75994 386.102 9.43182C386.102 9.16667 386.01 8.9446 385.824 8.76562C385.638 8.58333 385.353 8.44744 384.969 8.35795L383.696 8.05966C382.997 7.89394 382.483 7.63707 382.155 7.28906C381.83 6.93774 381.668 6.49858 381.668 5.97159C381.668 5.54072 381.789 5.15956 382.031 4.82812C382.276 4.49669 382.609 4.23651 383.03 4.04758C383.454 3.85866 383.935 3.7642 384.472 3.7642C385.227 3.7642 385.821 3.92992 386.252 4.26136C386.686 4.5928 386.994 5.0303 387.176 5.57386ZM389.937 11.5795C389.692 11.5795 389.481 11.4917 389.305 11.3161C389.13 11.1404 389.042 10.9299 389.042 10.6847C389.042 10.4394 389.13 10.2289 389.305 10.0533C389.481 9.8776 389.692 9.78977 389.937 9.78977C390.182 9.78977 390.393 9.8776 390.568 10.0533C390.744 10.2289 390.832 10.4394 390.832 10.6847C390.832 10.8471 390.79 10.9962 390.707 11.1321C390.628 11.268 390.52 11.3774 390.384 11.4602C390.252 11.5398 390.103 11.5795 389.937 11.5795ZM393.792 11.5795C393.547 11.5795 393.337 11.4917 393.161 11.3161C392.985 11.1404 392.897 10.9299 392.897 10.6847C392.897 10.4394 392.985 10.2289 393.161 10.0533C393.337 9.8776 393.547 9.78977 393.792 9.78977C394.038 9.78977 394.248 9.8776 394.424 10.0533C394.599 10.2289 394.687 10.4394 394.687 10.6847C394.687 10.8471 394.646 10.9962 394.563 11.1321C394.483 11.268 394.376 11.3774 394.24 11.4602C394.107 11.5398 393.958 11.5795 393.792 11.5795ZM397.648 11.5795C397.402 11.5795 397.192 11.4917 397.016 11.3161C396.841 11.1404 396.753 10.9299 396.753 10.6847C396.753 10.4394 396.841 10.2289 397.016 10.0533C397.192 9.8776 397.402 9.78977 397.648 9.78977C397.893 9.78977 398.103 9.8776 398.279 10.0533C398.455 10.2289 398.543 10.4394 398.543 10.6847C398.543 10.8471 398.501 10.9962 398.418 11.1321C398.339 11.268 398.231 11.3774 398.095 11.4602C397.963 11.5398 397.813 11.5795 397.648 11.5795Z" fill="#808080"/>
</svg>
