<svg width="80" height="81" viewBox="0 0 80 81" fill="none" xmlns="http://www.w3.org/2000/svg">
<rect y="0.5" width="80" height="80" rx="10" fill="#F0F5FA"/>
<path fill-rule="evenodd" clip-rule="evenodd" d="M23 32.3328C23 27.4546 26.9546 23.5 31.8328 23.5H47.1942C52.0724 23.5 56.027 27.4546 56.027 32.3328V47.6942C56.027 52.5724 52.0724 56.527 47.1942 56.527H31.8328C26.9546 56.527 23 52.5724 23 47.6942V32.3328ZM35.8172 46.5739C35.9614 46.7902 36.2072 46.9164 36.467 46.9074C36.7268 46.8985 36.9634 46.7557 37.0924 46.53L42.5417 36.9938L44.9872 41.8849C45.1143 42.139 45.374 42.2995 45.658 42.2995H48.7303C49.1445 42.2995 49.4803 41.9637 49.4803 41.5495C49.4803 41.1353 49.1445 40.7995 48.7303 40.7995H46.1216L43.2566 35.0695C43.1329 34.8221 42.8831 34.6629 42.6066 34.6552C42.3301 34.6475 42.0718 34.7926 41.9346 35.0328L36.3921 44.7322L33.993 41.1334C33.8539 40.9248 33.6197 40.7995 33.3689 40.7995L30.2966 40.7995C29.8824 40.7995 29.5466 41.1353 29.5466 41.5495C29.5466 41.9637 29.8824 42.2995 30.2966 42.2995L32.9675 42.2995L35.8172 46.5739Z" fill="#6699CC"/>
</svg>
