<svg width="16" height="17" viewBox="0 0 16 17" fill="none" xmlns="http://www.w3.org/2000/svg">
<path d="M3.6129 4.4099L3.70711 4.49309L6 6.7852L7.29289 5.49309C7.65338 5.1326 8.22061 5.10487 8.6129 5.4099L8.70711 5.49309L11.5 8.2852L12.2929 7.49309C12.8955 6.89051 13.9072 7.27253 13.994 8.08656L14 8.2002L13.9983 11.2596L13.9893 11.3471L13.9643 11.466L13.9401 11.5419L13.9063 11.6234L13.854 11.7209L13.7871 11.8172L13.7071 11.9073C13.6717 11.9427 13.6343 11.9749 13.5953 12.0039L13.4841 12.0755L13.3713 12.129L13.266 12.1644L13.1485 12.1892L13.0892 12.1962L13 12.2002H10C9.14783 12.2002 8.70257 11.2147 9.21677 10.5777L9.29289 10.4931L10.085 9.7002L8 7.6152L6.70711 8.9073C6.34662 9.26779 5.77939 9.29552 5.3871 8.99049L5.29289 8.9073L2.29289 5.9073C1.90237 5.51678 1.90237 4.88361 2.29289 4.49309C2.65338 4.1326 3.22061 4.10487 3.6129 4.4099Z" fill="#EF4444"/>
</svg>
