<svg width="40" height="40" viewBox="0 0 40 40" fill="none" xmlns="http://www.w3.org/2000/svg">
<rect width="39.5844" height="39.5844" rx="6" fill="#F0F5FA"/>
<path fill-rule="evenodd" clip-rule="evenodd" d="M11 15.7028C11 13.1055 13.1055 11 15.7028 11H23.8816C26.4788 11 28.5844 13.1055 28.5844 15.7028V23.8816C28.5844 26.4788 26.4788 28.5844 23.8816 28.5844H15.7028C13.1055 28.5844 11 26.4788 11 23.8816V15.7028ZM17.5324 23.4795C17.6766 23.6958 17.9225 23.822 18.1823 23.8131C18.442 23.8041 18.6787 23.6613 18.8076 23.4356L21.3838 18.9272L22.3929 20.9453C22.5199 21.1994 22.7796 21.3599 23.0637 21.3599H24.6995C25.1137 21.3599 25.4495 21.0241 25.4495 20.6099C25.4495 20.1957 25.1137 19.8599 24.6995 19.8599H23.5272L22.0988 17.003C21.9751 16.7556 21.7252 16.5963 21.4488 16.5887C21.1723 16.581 20.914 16.7261 20.7768 16.9663L18.1073 21.6378L17.1447 20.1939C17.0056 19.9852 16.7714 19.8599 16.5207 19.8599H14.8849C14.4707 19.8599 14.1349 20.1957 14.1349 20.6099C14.1349 21.0241 14.4707 21.3599 14.8849 21.3599H16.1193L17.5324 23.4795Z" fill="#6699CC"/>
</svg>
