<svg width="16" height="17" viewBox="0 0 16 17" fill="none" xmlns="http://www.w3.org/2000/svg">
<path d="M3.6129 11.9094L3.70711 11.8262L6 9.53414L7.29289 10.8262C7.65338 11.1867 8.22061 11.2145 8.6129 10.9094L8.70711 10.8262L11.5 8.03414L12.2929 8.82625C12.8955 9.42882 13.9072 9.04681 13.994 8.23277L14 8.11914L13.9983 5.05976L13.9893 4.97219L13.9643 4.8533L13.9401 4.77747L13.9063 4.69592L13.854 4.59843L13.7871 4.50212L13.7071 4.412C13.6717 4.37664 13.6343 4.34445 13.5953 4.31548L13.4841 4.24381L13.3713 4.19037L13.266 4.15499L13.1485 4.13016L13.0892 4.12311L13 4.11914H10C9.14783 4.11914 8.70257 5.10465 9.21677 5.74167L9.29289 5.82625L10.085 6.61914L8 8.70414L6.70711 7.41203C6.34662 7.05155 5.77939 7.02382 5.3871 7.32885L5.29289 7.41203L2.29289 10.412C1.90237 10.8026 1.90237 11.4357 2.29289 11.8262C2.65338 12.1867 3.22061 12.2145 3.6129 11.9094Z" fill="#4ADE80"/>
</svg>
