<svg width="21" height="20" viewBox="0 0 21 20" fill="none" xmlns="http://www.w3.org/2000/svg">
<path fill-rule="evenodd" clip-rule="evenodd" d="M16.44 3.58032C18.13 3.58032 19.49 4.95032 19.49 6.64032V10.0803C17.03 11.5203 13.78 12.3903 10.24 12.3903C6.7 12.3903 3.46 11.5203 1 10.0803V6.63032C1 4.94032 2.37 3.58032 4.06 3.58032H16.44Z" stroke="#6699CC" stroke-width="1.5" stroke-linecap="round" stroke-linejoin="round"/>
<path d="M13.7452 3.576V3.21C13.7452 1.99 12.7552 1 11.5352 1H8.95524C7.73524 1 6.74524 1.99 6.74524 3.21V3.576" stroke="#6699CC" stroke-width="1.5" stroke-linecap="round" stroke-linejoin="round"/>
<path d="M1.02454 13.7332L1.21354 16.2422C1.34154 17.9332 2.75054 19.2402 4.44554 19.2402H16.0445C17.7395 19.2402 19.1485 17.9332 19.2765 16.2422L19.4655 13.7332" stroke="#6699CC" stroke-width="1.5" stroke-linecap="round" stroke-linejoin="round"/>
</svg>
