<svg width="750" height="620" viewBox="0 0 750 620" fill="none" xmlns="http://www.w3.org/2000/svg">
<path d="M356.684 619.991C495.084 619.991 607.279 608.253 607.279 593.773C607.279 579.293 495.084 567.554 356.684 567.554C218.285 567.554 106.09 579.293 106.09 593.773C106.09 608.253 218.285 619.991 356.684 619.991Z" fill="#ACD9EA"/>
<path d="M546.294 252.111H164.178C152.696 252.111 143.361 258.478 143.361 269.96V551.029C143.361 544.734 148.44 539.655 154.735 539.655H545.399C556.845 539.655 566.109 548.919 566.109 560.365V271.963C566.109 261.018 557.239 252.111 546.294 252.111Z" fill="#101933"/>
<path d="M546.294 252.111H164.178C152.696 252.111 143.361 258.478 143.361 269.96V551.029C143.361 544.734 148.44 539.655 154.735 539.655H545.399C556.845 539.655 566.109 548.919 566.109 560.365V271.963C566.109 261.018 557.239 252.111 546.294 252.111Z" fill="#101933"/>
<path d="M154.771 539.655C153.483 539.655 152.231 539.869 151.051 540.263V564.729C151.051 558.433 155.915 553.354 161.889 553.354H533.631C544.505 553.354 553.34 562.618 553.34 574.064V541.229C550.908 540.227 548.225 539.655 545.435 539.655H154.771Z" fill="#101933"/>
<path d="M534.49 265.847H170.831C159.886 265.847 151.015 272.213 151.015 283.695V540.299C152.195 539.906 153.412 539.691 154.735 539.691H545.399C548.189 539.691 550.872 540.263 553.304 541.265V285.698C553.34 274.717 544.899 265.847 534.49 265.847Z" fill="#090D23"/>
<path d="M436.439 11.1222L308.141 466.457L483.686 515.92L611.984 60.5847L436.439 11.1222Z" fill="#5079C9"/>
<path d="M417.815 443.792C430.708 442.708 440.282 431.377 439.199 418.483C438.115 405.589 426.784 396.015 413.89 397.099C400.996 398.183 391.422 409.514 392.506 422.407C393.59 435.301 404.921 444.875 417.815 443.792Z" fill="#1C4399"/>
<path d="M513.36 128.122C525.288 123.108 530.894 109.374 525.88 97.4451C520.866 85.5164 507.131 79.911 495.203 84.9249C483.274 89.9388 477.669 103.673 482.683 115.602C487.696 127.531 501.431 133.136 513.36 128.122Z" fill="#1C4399"/>
<path d="M323.777 457.673L474.935 500.274L596.334 69.2981L445.176 26.6978L323.777 457.673ZM579.952 73.805L463.31 487.862L340.159 453.166L456.8 39.1095L579.952 73.805Z" fill="#1C4399"/>
<path d="M535.643 284.814C546.455 246.444 521.386 205.807 479.651 194.047C437.916 182.288 395.319 203.859 384.508 242.229C373.696 280.598 398.765 321.236 440.5 332.996C482.235 344.755 524.832 323.183 535.643 284.814Z" fill="#1C4399"/>
<path d="M529.497 283.06C539.356 248.056 516.244 210.919 477.874 200.111C439.505 189.304 400.408 208.919 390.548 243.924C380.689 278.928 403.801 316.065 442.171 326.872C480.54 337.68 519.637 318.064 529.497 283.06Z" fill="#1C4399"/>
<path d="M485.236 236.122C481.517 235.085 477.832 234.799 474.327 235.264C470.822 235.765 467.531 236.981 464.562 238.877C461.737 240.629 459.268 242.883 457.301 245.565C455.37 248.176 453.009 251.753 450.326 256.26L425.968 249.393C428.937 245.243 433.014 243.169 438.058 243.24C442.851 243.276 445.891 241.202 447.071 237.052C447.679 234.835 447.429 232.724 446.32 230.757C445.211 228.79 443.566 227.466 441.456 226.858C439.596 226.322 437.378 226.25 434.839 226.644C432.335 227.037 429.759 227.86 427.184 229.112C423.786 230.686 420.925 232.867 418.671 235.622C416.525 238.269 414.594 241.702 412.948 245.744L406.76 243.991C402.325 242.74 400.715 244.814 400.179 246.781C399.642 248.713 399.928 251.288 404.507 252.576L410.552 254.293C409.014 262.77 409.836 269.924 413.02 275.575C416.275 281.334 421.461 285.268 428.508 287.236C433.909 288.738 438.702 288.845 442.815 287.522C446.893 286.198 450.434 283.909 453.331 280.762C456.157 277.685 459.09 273.679 462.058 268.779L489.421 276.469C487.991 278.651 486.417 280.332 484.664 281.441C482.804 282.622 480.873 283.373 478.977 283.695C477.01 284.017 474.22 284.231 470.607 284.41C468.854 284.482 467.316 285.054 466.029 286.127C464.777 287.2 463.847 288.702 463.31 290.598C462.631 292.959 462.917 295.212 464.097 297.251C465.278 299.29 466.923 300.613 468.962 301.185C471.644 301.937 474.542 302.115 477.654 301.758C480.73 301.4 483.949 300.363 487.168 298.682C490.387 297.001 493.392 294.604 496.11 291.528C498.757 288.523 501.01 284.732 502.87 280.297L518.895 284.803C520.862 285.34 522.364 285.447 523.509 285.09C524.689 284.696 525.548 283.695 525.977 282.121C526.478 280.368 526.156 279.045 525.047 278.15C524.045 277.328 522.328 276.612 519.86 275.897L505.124 271.748C506.197 265.953 506.054 260.517 504.73 255.688C503.335 250.716 500.903 246.495 497.469 243.169C494 239.771 489.886 237.446 485.236 236.122ZM439.095 270.353C437.056 271.605 434.481 271.784 431.441 270.925C428.221 270.031 426.04 268.421 425.002 266.168C423.965 263.986 423.393 261.196 423.285 257.834L445.39 264.058C443.173 267.026 441.062 269.137 439.095 270.353ZM490.208 258.049C491.925 260.767 492.676 264.129 492.426 268.135L466.923 260.946C469.284 257.44 471.68 254.901 474.041 253.363C476.437 251.825 479.406 251.503 482.768 252.469C485.916 253.363 488.42 255.259 490.208 258.049Z" fill="#5079C9"/>
<path d="M501.812 0.000106634L294.227 425.105L458.117 505.136L665.702 80.0302L501.812 0.000106634Z" fill="#5D8AD1"/>
<path d="M413.82 421.868C426.408 418.877 434.188 406.246 431.197 393.658C428.205 381.069 415.575 373.29 402.986 376.281C390.398 379.273 382.618 391.903 385.61 404.491C388.601 417.08 401.231 424.86 413.82 421.868Z" fill="#1C4399"/>
<path d="M572.859 115.664C578.171 103.866 572.913 89.9958 561.115 84.6843C549.317 79.3728 535.447 84.6311 530.135 96.429C524.824 108.227 530.082 122.097 541.88 127.408C553.678 132.72 567.548 127.462 572.859 115.664Z" fill="#1C4399"/>
<path d="M311.151 419.258L452.294 488.184L648.77 85.8591L507.628 16.9331L311.151 419.258ZM443.065 473.912L328.105 417.792L516.856 31.2048L631.816 87.3614L443.065 473.912Z" fill="#1C4399"/>
<path d="M550.499 287.012C567.992 251.189 550.586 206.725 511.622 187.699C472.657 168.672 426.89 182.287 409.398 218.109C391.905 253.932 409.311 298.395 448.276 317.422C487.24 336.449 533.007 322.834 550.499 287.012Z" fill="#1C4399"/>
<path d="M544.814 284.238C560.772 251.558 544.669 210.885 508.847 193.392C473.025 175.899 431.048 188.211 415.09 220.892C399.132 253.572 415.235 294.245 451.057 311.737C486.879 329.23 528.855 316.918 544.814 284.238Z" fill="#1C4399"/>
<path d="M499.043 227.36C495.502 227.217 492.032 227.825 488.778 229.148C485.666 230.364 482.876 232.153 480.408 234.442C478.047 236.66 475.078 239.771 471.609 243.706L448.86 232.618C452.508 229.041 456.908 227.753 461.844 228.755C466.565 229.649 469.927 228.147 471.823 224.248C472.825 222.173 472.968 220.063 472.217 217.917C471.466 215.771 470.106 214.197 468.103 213.231C466.351 212.373 464.205 211.908 461.629 211.836C459.09 211.765 456.407 212.122 453.653 212.873C450.04 213.803 446.821 215.449 444.138 217.774C441.527 219.991 439.023 223.032 436.698 226.716L430.94 223.89C426.791 221.851 424.859 223.604 423.965 225.428C423.071 227.217 422.928 229.828 427.184 231.867L432.835 234.621C429.795 242.669 429.33 249.858 431.476 256.01C433.622 262.27 438.058 267.027 444.639 270.246C449.682 272.714 454.404 273.644 458.66 273.072C462.917 272.5 466.816 270.89 470.214 268.315C473.54 265.811 477.153 262.377 480.944 258.085L506.483 270.568C504.695 272.464 502.835 273.823 500.939 274.61C498.9 275.433 496.861 275.862 494.93 275.79C492.962 275.755 490.137 275.468 486.56 275.003C484.807 274.753 483.198 275.039 481.767 275.862C480.336 276.685 479.156 278.008 478.297 279.761C477.224 281.978 477.081 284.232 477.868 286.449C478.655 288.667 480.05 290.277 481.946 291.207C484.45 292.423 487.275 293.138 490.387 293.317C493.499 293.496 496.825 293.067 500.295 291.993C503.765 290.92 507.163 289.096 510.382 286.557C513.529 284.089 516.427 280.762 519.038 276.72L533.989 284.017C535.813 284.911 537.28 285.269 538.496 285.126C539.748 284.983 540.749 284.124 541.465 282.658C542.252 281.013 542.18 279.653 541.286 278.58C540.427 277.579 538.889 276.577 536.6 275.433L522.865 268.708C524.975 263.2 525.798 257.834 525.333 252.827C524.868 247.676 523.223 243.098 520.397 239.199C517.607 235.3 513.959 232.26 509.631 230.15C506.125 228.433 502.584 227.503 499.043 227.36ZM458.088 255.545C455.87 256.404 453.295 256.153 450.434 254.758C447.429 253.292 445.569 251.325 444.925 248.928C444.281 246.603 444.246 243.742 444.746 240.415L465.385 250.502C462.702 253.006 460.27 254.723 458.088 255.545ZM510.596 252.612C511.777 255.581 511.92 259.051 510.99 262.914L487.168 251.289C490.137 248.249 492.927 246.174 495.538 245.101C498.185 244.028 501.118 244.242 504.301 245.78C507.234 247.211 509.344 249.536 510.596 252.612Z" fill="#5D8AD1"/>
<path d="M609.45 17.6637L301.194 376.539L439.551 495.38L747.807 136.505L609.45 17.6637Z" fill="#6D9DE2"/>
<path d="M440.616 387.088C444.386 374.71 437.407 361.621 425.03 357.852C412.652 354.082 399.562 361.061 395.793 373.438C392.024 385.816 399.003 398.906 411.38 402.675C423.758 406.444 436.847 399.465 440.616 387.088Z" fill="#204EA0"/>
<path d="M647.278 149.403C656.427 140.253 656.427 125.419 647.278 116.27C638.128 107.121 623.294 107.121 614.145 116.27C604.996 125.419 604.996 140.253 614.145 149.403C623.294 158.552 638.128 158.552 647.278 149.403Z" fill="#204EA0"/>
<path d="M319.02 375.191L438.165 477.525L729.894 137.866L610.748 35.5322L319.02 375.191ZM432.835 461.357L335.795 378.016L616.078 51.6639L713.118 135.005L432.835 461.357Z" fill="#204EA0"/>
<path d="M584.046 307.669C610.022 277.428 604.414 230.008 571.52 201.754C538.627 173.5 490.904 175.111 464.928 205.352C438.952 235.594 444.56 283.013 477.454 311.267C510.348 339.521 558.071 337.91 584.046 307.669Z" fill="#204EA0"/>
<path d="M579.248 303.556C602.945 275.968 597.641 232.545 567.399 206.569C537.158 180.594 493.432 181.901 469.735 209.49C446.038 237.079 451.343 280.501 481.584 306.477C511.825 332.453 555.551 331.145 579.248 303.556Z" fill="#204EA0"/>
<path d="M549.298 236.945C545.9 235.908 542.395 235.622 538.925 236.087C535.599 236.48 532.451 237.517 529.518 239.091C526.656 240.629 523.044 242.918 518.68 245.816L499.472 229.326C503.908 226.823 508.486 226.644 513.029 228.861C517.357 230.936 521.005 230.292 523.795 227.037C525.297 225.285 525.941 223.282 525.798 220.992C525.619 218.739 524.689 216.843 523.008 215.412C521.542 214.161 519.539 213.159 517.106 212.444C514.674 211.728 511.991 211.406 509.13 211.442C505.374 211.442 501.869 212.193 498.685 213.767C495.609 215.269 492.426 217.559 489.207 220.527L484.342 216.342C480.837 213.338 478.512 214.554 477.188 216.092C475.901 217.594 475.078 220.062 478.655 223.138L483.412 227.252C478.44 234.298 476.187 241.13 476.688 247.604C477.189 254.186 480.265 259.944 485.809 264.702C490.065 268.35 494.393 270.46 498.65 270.997C502.906 271.533 507.091 270.961 511.061 269.316C514.924 267.706 519.252 265.31 524.01 262.126L545.578 280.654C543.36 282.049 541.214 282.872 539.175 283.158C536.994 283.444 534.919 283.337 533.059 282.8C531.163 282.264 528.516 281.298 525.19 279.903C523.58 279.224 521.935 279.08 520.325 279.51C518.716 279.939 517.285 280.905 515.997 282.407C514.388 284.267 513.672 286.413 513.887 288.774C514.102 291.135 515.032 293.03 516.641 294.389C518.752 296.214 521.327 297.609 524.26 298.574C527.229 299.54 530.555 299.969 534.168 299.791C537.78 299.647 541.536 298.717 545.292 297.072C548.94 295.463 552.624 292.994 556.166 289.74L568.792 300.577C570.33 301.901 571.653 302.616 572.869 302.759C574.121 302.902 575.302 302.366 576.375 301.114C577.555 299.719 577.841 298.396 577.233 297.144C576.661 295.963 575.445 294.604 573.478 292.923L561.853 282.944C565.287 278.115 567.433 273.179 568.255 268.207C569.114 263.128 568.649 258.263 566.932 253.792C565.215 249.321 562.461 245.458 558.812 242.31C555.879 239.807 552.696 237.982 549.298 236.945ZM502.548 253.899C500.188 254.186 497.755 253.256 495.359 251.181C492.819 248.999 491.532 246.638 491.496 244.17C491.46 241.774 492.14 238.984 493.463 235.908L510.883 250.859C507.663 252.612 504.873 253.613 502.548 253.899ZM554.091 264.308C554.484 267.491 553.733 270.89 551.873 274.395L531.771 257.119C535.384 254.937 538.639 253.649 541.429 253.256C544.255 252.862 547.045 253.828 549.727 256.117C552.195 258.263 553.662 261.017 554.091 264.308Z" fill="#6D9DE2"/>
<path d="M418.278 360.74L314.978 95.8741C310.757 85.072 298.596 79.7067 287.758 83.9274L133.918 143.947C123.115 148.168 117.75 160.329 121.971 171.167L225.271 436.033C229.491 446.835 241.653 452.201 252.49 447.98L406.367 387.96C417.169 383.74 422.498 371.578 418.278 360.74Z" fill="#FF6C3C"/>
<path d="M322.418 155.929L304.605 110.253C303.639 107.785 300.885 106.605 298.417 107.535L281.606 114.08C279.138 115.046 277.958 117.8 278.888 120.268L296.7 165.945C297.666 168.413 300.42 169.593 302.888 168.663L319.7 162.117C322.132 161.116 323.348 158.362 322.418 155.929Z" fill="white"/>
<path d="M418.278 360.74L369.346 235.229C357.292 240.451 348.279 246.782 341.554 252.755C301.851 287.88 291.335 353.909 310.006 425.517L406.367 387.925C417.169 383.74 422.498 371.578 418.278 360.74Z" fill="#76ADE5"/>
<path d="M226.522 107.856L204.131 116.584L354.645 197.564L344.38 171.238L226.522 107.856Z" fill="#FF855A"/>
<path opacity="0.05" d="M419.601 364.103C403.684 370.291 382.652 376.049 357.9 376.55C291.085 377.945 243.655 340.281 218.904 320.644C187.141 295.427 163.82 265.238 146.687 234.513L225.449 436.463C229.563 447.014 241.474 452.236 252.025 448.123L409.729 386.637C418.671 383.167 423.106 373.081 419.601 364.103Z" fill="black"/>
<path d="M217.437 227.18L187.177 149.563C186.211 147.095 183.457 145.878 180.989 146.844L176.267 148.668C173.799 149.634 172.583 152.388 173.549 154.856L203.809 232.474C204.775 234.942 207.529 236.158 209.997 235.193L214.719 233.368C217.151 232.403 218.367 229.648 217.437 227.18Z" fill="white"/>
<path d="M243.584 294.246L225.843 248.749C225.092 246.817 222.945 245.887 221.014 246.638L214.325 249.249C212.394 250.001 211.464 252.147 212.215 254.078L229.956 299.576C230.707 301.507 232.853 302.437 234.785 301.686L241.474 299.075C243.369 298.324 244.335 296.178 243.584 294.246Z" fill="white"/>
<path d="M268.336 357.7L250.595 312.202C249.843 310.271 247.697 309.341 245.766 310.092L239.077 312.703C237.146 313.454 236.216 315.6 236.967 317.532L254.708 363.029C255.459 364.961 257.605 365.891 259.537 365.14L266.225 362.529C268.121 361.778 269.087 359.631 268.336 357.7Z" fill="white"/>
<path d="M287.579 407.096L275.704 376.657C275.096 375.048 273.272 374.261 271.698 374.904L263.829 377.981C262.219 378.589 261.433 380.413 262.076 381.987L273.951 412.426C274.56 414.035 276.384 414.822 277.958 414.178L285.827 411.102C287.436 410.494 288.223 408.706 287.579 407.096Z" fill="white"/>
<path d="M323.169 188.586C323.956 187.871 323.92 186.619 323.133 185.904C322.454 185.296 321.416 185.296 320.737 185.904C319.699 186.87 318.555 187.621 317.303 188.229C314.406 189.624 311.58 189.731 309.577 189.552C308.647 189.481 307.824 190.089 307.645 190.983C307.431 192.02 308.182 193.022 309.255 193.129C311.759 193.379 315.264 193.201 318.912 191.484C320.415 190.768 321.845 189.803 323.169 188.586Z" fill="white"/>
<path d="M330.323 193.129C330.931 192.235 330.609 191.054 329.679 190.554C328.856 190.124 327.855 190.375 327.318 191.126C326.138 192.879 324.135 195.203 321.023 196.849C317.482 198.709 314.012 198.923 311.687 198.745C310.757 198.673 309.935 199.317 309.756 200.211C309.577 201.248 310.328 202.25 311.401 202.321C314.263 202.536 318.412 202.286 322.74 200.032C326.46 198.029 328.892 195.275 330.323 193.129Z" fill="white"/>
<path d="M337.333 198.924C337.906 198.065 337.619 196.885 336.725 196.384C335.903 195.919 334.865 196.17 334.329 196.956C332.648 199.496 330.001 202.536 325.995 204.897C320.164 208.295 314.334 208.545 310.614 208.188C309.684 208.08 308.826 208.76 308.683 209.69C308.504 210.727 309.255 211.657 310.292 211.765C314.513 212.158 321.166 211.872 327.819 208.009C332.397 205.326 335.438 201.821 337.333 198.924Z" fill="white"/>
<path d="M344.308 206.614C344.952 205.827 344.845 204.647 344.022 204.003C343.271 203.431 342.162 203.538 341.554 204.289C338.085 208.474 333.685 211.908 328.82 214.233C321.309 217.81 314.191 218.239 309.112 217.774C308.146 217.702 307.288 218.382 307.18 219.348C307.037 220.349 307.789 221.279 308.79 221.386C314.37 221.887 322.168 221.458 330.394 217.488C335.724 214.948 340.517 211.228 344.308 206.614Z" fill="white"/>
<path d="M272.628 168.019L259.644 134.719C257.999 130.498 253.241 128.388 248.985 130.033L227.667 138.331C223.446 139.977 221.336 144.734 222.981 148.99L235.965 182.291C237.611 186.512 242.368 188.622 246.624 186.976L267.942 178.678C272.199 177.033 274.273 172.276 272.628 168.019Z" fill="#FFC71F"/>
<path d="M250.487 148.311L237.611 153.318L243.942 169.521L256.818 164.514L250.487 148.311ZM239.149 154.034L249.808 149.884L255.28 163.87L244.621 168.019L239.149 154.034Z" fill="white"/>
<path d="M272.735 173.742L266.512 157.217L257.176 155.035L262.184 147.524L256.21 130.641C255.745 130.355 255.209 130.105 254.708 129.926L260.86 147.345L255.209 155.786L265.582 158.219L272.02 175.209C272.306 174.744 272.557 174.243 272.735 173.742Z" fill="white"/>
<path d="M241.188 161.295L231.315 158.898L224.054 141.908C223.804 142.409 223.589 142.91 223.411 143.446L230.457 159.9L239.22 162.01L233.819 169.915L240.401 186.297C240.901 186.547 241.402 186.762 241.939 186.941L235.143 170.094L241.188 161.295Z" fill="white"/>
<path d="M251.882 144.949L251.918 144.77L246.767 130.927L245.659 131.356L250.702 144.841C250.487 145.771 249.915 148.418 249.2 149.742L250.308 150.063C251.203 148.454 251.811 145.163 251.882 144.949Z" fill="white"/>
<path d="M235.107 150.922L229.67 137.58L228.561 138.009L234.141 151.709L234.284 151.816C234.463 151.959 236.967 153.998 238.719 154.606L239.542 153.533C238.111 153.032 235.93 151.458 235.107 150.922Z" fill="white"/>
<path d="M238.845 133.963L237.746 134.392L244.323 151.253L245.423 150.824L238.845 133.963Z" fill="white"/>
<path d="M260.252 166.159L260.109 166.052C259.93 165.909 257.248 164.156 255.566 163.226V164.585C255.781 164.943 258.499 166.409 259.322 166.946L264.616 179.966L265.725 179.537L260.252 166.159Z" fill="white"/>
<path d="M243.727 173.027C243.942 172.097 244.371 169.915 245.086 168.556L244.192 167.447C243.298 169.092 242.547 172.705 242.511 172.919L242.475 173.098L247.518 186.654L248.627 186.225L243.727 173.027Z" fill="white"/>
<path d="M251.314 165.941L250.214 166.37L256.738 183.1L257.838 182.671L251.314 165.941Z" fill="white"/>
<path d="M322.704 157.325C313.905 153.962 304.569 148.526 296.414 139.762C288.33 131.106 283.824 121.771 281.248 114.259C279.031 115.332 277.958 117.943 278.852 120.268L296.665 165.945C297.63 168.413 300.384 169.593 302.853 168.663L319.664 162.118C321.703 161.295 322.847 159.328 322.704 157.325Z" fill="#F2F6F9"/>
<path d="M391.594 354.624C436.733 354.624 473.326 318.032 473.326 272.893C473.326 227.754 436.733 191.162 391.594 191.162C346.455 191.162 309.863 227.754 309.863 272.893C309.863 318.032 346.455 354.624 391.594 354.624Z" fill="#FFF68A"/>
<path d="M440.497 321.826C467.512 294.811 467.512 251.011 440.497 223.996C413.482 196.982 369.682 196.982 342.667 223.996C315.653 251.011 315.653 294.811 342.667 321.826C369.682 348.841 413.482 348.841 440.497 321.826Z" fill="#FFDA3E"/>
<path d="M438.38 221.923C445.354 238.019 446.249 256.726 439.453 274.36C425.682 309.985 385.621 327.726 349.995 313.955C341.661 310.736 334.365 306.086 328.141 300.399C335.259 316.817 348.672 330.48 366.664 337.42C402.289 351.19 442.35 333.449 456.121 297.824C466.708 270.497 458.732 240.594 438.38 221.923Z" fill="#F7D02D"/>
<path d="M330.537 240.451L397.639 204.003C370.348 201.606 343.664 215.663 330.537 240.451Z" fill="#FFEE52"/>
<path d="M420.317 209.976L323.169 262.771C322.418 267.885 322.239 272.965 322.597 278.008L433.408 217.774C429.438 214.769 425.038 212.122 420.317 209.976Z" fill="#FFEE52"/>
<path d="M414.665 284.447C414.558 281.692 413.842 279.081 412.59 276.649C411.446 274.324 409.872 272.285 407.941 270.533C406.009 268.78 403.326 266.67 399.893 264.13L407.332 244.851C410.73 247.605 412.197 251.146 411.732 255.402C411.374 259.015 412.698 261.412 415.702 262.592C417.312 263.2 418.886 263.164 420.46 262.485C422.033 261.805 423.106 260.66 423.714 259.122C424.251 257.727 424.466 256.046 424.358 254.115C424.251 252.147 423.786 250.109 423.035 247.998C422.069 245.244 420.603 242.919 418.635 240.988C416.668 239.056 414.093 237.268 410.909 235.658L412.841 230.651C413.807 228.111 413.306 226.466 411.339 225.715C409.407 224.963 407.905 225.893 406.903 228.469L405.008 233.369C398.39 231.473 392.739 231.545 388.053 233.619C383.368 235.694 379.969 239.414 377.931 244.708C376.357 248.785 375.928 252.469 376.643 255.724C377.358 258.979 378.861 261.841 381.078 264.345C383.332 266.813 386.265 269.424 389.985 272.178L381.651 293.711C379.791 292.316 378.467 290.849 377.645 289.24C376.822 287.63 376.357 286.056 376.25 284.482C376.142 282.908 376.178 280.691 376.321 277.829C376.393 276.506 376.106 275.361 375.391 274.324C374.676 273.322 373.638 272.536 372.243 271.999C370.527 271.319 368.845 271.355 367.236 272.106C365.626 272.857 364.517 273.966 363.945 275.433C363.158 277.436 362.801 279.654 362.872 282.086C362.944 284.518 363.48 287.022 364.553 289.669C365.626 292.28 367.236 294.784 369.454 297.109C371.671 299.434 374.497 301.508 377.931 303.332L373.102 315.851C372.565 317.282 372.387 318.391 372.565 319.249C372.744 320.108 373.388 320.752 374.497 321.181C375.713 321.646 376.643 321.539 377.323 320.823C378.002 320.144 378.682 318.856 379.397 317.032L383.868 305.514C388.411 306.838 392.703 307.16 396.638 306.444C400.608 305.729 404.006 304.155 406.832 301.723C409.657 299.29 411.768 296.322 413.127 292.781C414.307 289.991 414.808 287.201 414.665 284.447ZM394.706 260.16C392.31 258.085 390.7 256.118 389.806 254.365C388.947 252.577 388.947 250.466 389.913 248.034C390.915 245.459 392.381 243.849 394.313 243.134C396.244 242.418 398.676 242.204 401.574 242.418L394.706 260.16ZM396.101 295.499C393.669 296.715 390.772 297.037 387.409 296.465L395.243 276.184C398.068 278.437 400 280.619 401.109 282.73C402.182 284.84 402.218 287.236 401.18 289.919C400.214 292.423 398.533 294.283 396.101 295.499Z" fill="#FFFBAB"/>
<path d="M413.234 288.166C413.127 285.412 412.412 282.801 411.16 280.369C410.015 278.044 408.441 276.005 406.51 274.252C404.578 272.5 401.896 270.389 398.462 267.85L405.902 248.57C409.3 251.325 410.766 254.866 410.301 259.122C409.944 262.735 411.267 265.131 414.272 266.312C415.881 266.92 417.455 266.884 419.029 266.204C420.603 265.525 421.676 264.38 422.284 262.842C422.82 261.447 423.035 259.766 422.928 257.834C422.82 255.867 422.355 253.828 421.604 251.718C420.638 248.964 419.172 246.639 417.205 244.707C415.237 242.776 412.662 240.987 409.479 239.378L411.41 234.37C412.376 231.831 411.875 230.185 409.908 229.434C407.976 228.683 406.474 229.613 405.473 232.188L403.577 237.089C396.96 235.193 391.308 235.265 386.623 237.339C381.937 239.414 378.539 243.134 376.5 248.427C374.926 252.505 374.497 256.189 375.212 259.444C375.928 262.699 377.43 265.56 379.648 268.064C381.901 270.532 384.834 273.143 388.554 275.898L380.22 297.43C378.36 296.035 377.037 294.569 376.214 292.959C375.391 291.35 374.926 289.776 374.819 288.202C374.712 286.628 374.747 284.411 374.89 281.549C374.962 280.226 374.676 279.081 373.96 278.044C373.245 277.042 372.208 276.255 370.813 275.719C369.096 275.039 367.415 275.075 365.805 275.826C364.196 276.577 363.087 277.686 362.514 279.153C361.728 281.156 361.37 283.373 361.441 285.806C361.513 288.238 362.05 290.742 363.123 293.388C364.196 296 365.805 298.503 368.023 300.828C370.241 303.153 373.066 305.228 376.5 307.052L371.671 319.571C371.135 321.002 370.956 322.111 371.135 322.969C371.314 323.827 371.957 324.471 373.066 324.901C374.282 325.366 375.212 325.258 375.892 324.543C376.572 323.863 377.251 322.576 377.967 320.751L382.438 309.234C386.98 310.557 391.272 310.879 395.207 310.164C399.177 309.449 402.575 307.875 405.401 305.442C408.227 303.01 410.337 300.041 411.696 296.5C412.877 293.71 413.342 290.956 413.234 288.166ZM393.275 263.879C390.879 261.805 389.269 259.838 388.375 258.085C387.517 256.296 387.517 254.186 388.482 251.754C389.484 249.178 390.951 247.569 392.882 246.854C394.814 246.138 397.246 245.924 400.143 246.138L393.275 263.879ZM394.67 299.255C392.238 300.471 389.341 300.793 385.979 300.22L393.812 279.939C396.638 282.193 398.569 284.375 399.678 286.485C400.751 288.595 400.787 290.992 399.75 293.675C398.784 296.143 397.103 298.003 394.67 299.255Z" fill="#F7A52D"/>
<path d="M416.525 208.366C380.9 194.596 340.839 212.337 327.068 247.962C313.297 283.588 331.038 323.649 366.664 337.419C402.289 351.19 442.35 333.449 456.121 297.824C469.928 262.198 452.186 222.137 416.525 208.366ZM368.559 332.591C335.617 319.857 319.199 282.837 331.932 249.894C344.666 216.951 381.687 200.533 414.629 213.267C447.572 226 463.99 263.021 451.256 295.964C438.559 328.907 401.538 345.289 368.559 332.591Z" fill="#F9BE2B"/>
<path d="M414.665 284.447C414.558 281.692 413.842 279.081 412.59 276.649C411.446 274.324 409.872 272.285 407.941 270.533C406.009 268.78 403.326 266.67 399.893 264.13L407.332 244.851C410.73 247.605 412.197 251.146 411.732 255.402C411.374 259.015 412.698 261.412 415.702 262.592C417.312 263.2 418.886 263.164 420.46 262.485C422.033 261.805 423.106 260.66 423.714 259.122C424.251 257.727 424.466 256.046 424.358 254.115C424.251 252.147 423.786 250.109 423.035 247.998C422.069 245.244 420.603 242.919 418.635 240.988C416.668 239.056 414.093 237.268 410.909 235.658L412.841 230.651C413.807 228.111 413.306 226.466 411.339 225.715C409.407 224.963 407.905 225.893 406.903 228.469L405.008 233.369C398.39 231.473 392.739 231.545 388.053 233.619C383.368 235.694 379.969 239.414 377.931 244.708C376.357 248.785 375.928 252.469 376.643 255.724C377.358 258.979 378.861 261.841 381.078 264.345C383.332 266.813 386.265 269.424 389.985 272.178L381.651 293.711C379.791 292.316 378.467 290.849 377.645 289.24C376.822 287.63 376.357 286.056 376.25 284.482C376.142 282.908 376.178 280.691 376.321 277.829C376.393 276.506 376.106 275.361 375.391 274.324C374.676 273.322 373.638 272.536 372.243 271.999C370.527 271.319 368.845 271.355 367.236 272.106C365.626 272.857 364.517 273.966 363.945 275.433C363.158 277.436 362.801 279.654 362.872 282.086C362.944 284.518 363.48 287.022 364.553 289.669C365.626 292.28 367.236 294.784 369.454 297.109C371.671 299.434 374.497 301.508 377.931 303.332L373.102 315.851C372.565 317.282 372.387 318.391 372.565 319.249C372.744 320.108 373.388 320.752 374.497 321.181C375.713 321.646 376.643 321.539 377.323 320.823C378.002 320.144 378.682 318.856 379.397 317.032L383.868 305.514C388.411 306.838 392.703 307.16 396.638 306.444C400.608 305.729 404.006 304.155 406.832 301.723C409.657 299.29 411.768 296.322 413.127 292.781C414.307 289.991 414.808 287.201 414.665 284.447ZM394.706 260.16C392.31 258.085 390.7 256.118 389.806 254.365C388.947 252.577 388.947 250.466 389.913 248.034C390.915 245.459 392.381 243.849 394.313 243.134C396.244 242.418 398.676 242.204 401.574 242.418L394.706 260.16ZM396.101 295.499C393.669 296.715 390.772 297.037 387.409 296.465L395.243 276.184C398.068 278.437 400 280.619 401.109 282.73C402.182 284.84 402.218 287.236 401.18 289.919C400.214 292.423 398.533 294.283 396.101 295.499Z" fill="#FFF68A"/>
<path d="M380.721 197.493C380.721 197.493 367.2 198.709 364.517 196.956C361.262 194.846 356.935 182.112 356.935 182.112C356.935 182.112 357.006 194.774 355.253 197.457C353.143 200.712 341.554 205.863 341.554 205.863C341.554 205.863 353.68 205.469 356.935 207.58C359.617 209.332 365.304 221.279 365.304 221.279C365.304 221.279 364.804 209.082 366.807 205.97C368.631 203.144 380.721 197.493 380.721 197.493Z" fill="white"/>
<path d="M566.109 569.307V303.582C566.109 293.066 557.596 284.518 547.045 284.518H546.258H165.966C153.483 284.518 143.396 281.907 143.396 269.996V294.998V574.136C143.396 586.118 153.125 595.847 165.108 595.847H547.081C557.596 595.847 566.145 587.334 566.145 576.783V569.307C566.109 569.307 566.109 569.307 566.109 569.307Z" fill="#0D266D"/>
<path d="M566.968 479.564H485.165C461.629 479.564 442.565 460.499 442.565 436.963C442.565 413.427 461.629 394.363 485.165 394.363H567.004C572.19 394.363 576.375 398.548 576.375 403.734V470.228C576.339 475.343 572.154 479.564 566.968 479.564Z" fill="#22315B"/>
<path d="M547.08 284.518C547.903 303.368 548.368 319.678 548.654 333.163C549.227 360.669 548.869 368.931 548.654 372.794C547.009 403.806 545.364 434.996 530.77 466.115C503.836 523.487 448.466 547.452 435.518 553.032C409.05 564.478 386.551 567.161 375.427 568.377C303.318 576.246 208.71 577.57 143.647 577.391C145.221 587.835 154.234 595.847 165.108 595.847H547.08C557.596 595.847 566.145 587.334 566.145 576.783V569.307V303.582C566.109 293.066 557.596 284.518 547.08 284.518Z" fill="#0C085B"/>
<path d="M566.109 487.862H483.484C460.878 487.862 442.529 469.513 442.529 446.907V443.581C442.529 420.975 460.878 402.625 483.484 402.625H566.109V487.862Z" fill="#0C112D"/>
<path d="M178.235 549.205C174.193 549.205 170.867 545.914 170.867 541.837V351.727C170.867 347.685 174.157 344.358 178.235 344.358C182.277 344.358 185.603 347.649 185.603 351.727V541.837C185.567 545.914 182.277 549.205 178.235 549.205Z" fill="#11337F"/>
<path d="M180.453 329.336H178.521C175.695 329.336 173.406 327.046 173.406 324.221V311.451C173.406 308.626 175.695 306.336 178.521 306.336H180.453C183.278 306.336 185.567 308.626 185.567 311.451V324.221C185.567 327.011 183.278 329.336 180.453 329.336Z" fill="#11337F"/>
<path d="M180.846 302.688H166.002C164.786 302.688 163.82 301.722 163.82 300.506V299.755C163.82 298.539 164.786 297.573 166.002 297.573H180.846C182.062 297.573 183.028 298.539 183.028 299.755V300.506C183.028 301.722 182.026 302.688 180.846 302.688Z" fill="#2970D6"/>
<path d="M210.677 302.688H195.833C194.617 302.688 193.651 301.722 193.651 300.506V299.755C193.651 298.539 194.617 297.573 195.833 297.573H210.677C211.893 297.573 212.859 298.539 212.859 299.755V300.506C212.859 301.722 211.857 302.688 210.677 302.688Z" fill="#2970D6"/>
<path d="M240.508 302.688H225.664C224.448 302.688 223.482 301.722 223.482 300.506V299.755C223.482 298.539 224.448 297.573 225.664 297.573H240.508C241.724 297.573 242.69 298.539 242.69 299.755V300.506C242.69 301.722 241.688 302.688 240.508 302.688Z" fill="#2970D6"/>
<path d="M270.339 302.688H255.495C254.279 302.688 253.313 301.722 253.313 300.506V299.755C253.313 298.539 254.279 297.573 255.495 297.573H270.339C271.555 297.573 272.521 298.539 272.521 299.755V300.506C272.521 301.722 271.519 302.688 270.339 302.688Z" fill="#2970D6"/>
<path d="M300.17 302.688H285.326C284.11 302.688 283.144 301.722 283.144 300.506V299.755C283.144 298.539 284.11 297.573 285.326 297.573H300.17C301.386 297.573 302.352 298.539 302.352 299.755V300.506C302.352 301.722 301.35 302.688 300.17 302.688Z" fill="#2970D6"/>
<path d="M330.001 302.688H315.157C313.941 302.688 312.975 301.722 312.975 300.506V299.755C312.975 298.539 313.941 297.573 315.157 297.573H330.001C331.217 297.573 332.183 298.539 332.183 299.755V300.506C332.183 301.722 331.181 302.688 330.001 302.688Z" fill="#2970D6"/>
<path d="M359.832 302.688H344.988C343.772 302.688 342.806 301.722 342.806 300.506V299.755C342.806 298.539 343.772 297.573 344.988 297.573H359.832C361.048 297.573 362.014 298.539 362.014 299.755V300.506C362.014 301.722 361.012 302.688 359.832 302.688Z" fill="#2970D6"/>
<path d="M389.663 302.688H374.819C373.603 302.688 372.637 301.722 372.637 300.506V299.755C372.637 298.539 373.603 297.573 374.819 297.573H389.663C390.879 297.573 391.845 298.539 391.845 299.755V300.506C391.845 301.722 390.843 302.688 389.663 302.688Z" fill="#2970D6"/>
<path d="M419.494 302.688H404.65C403.434 302.688 402.468 301.722 402.468 300.506V299.755C402.468 298.539 403.434 297.573 404.65 297.573H419.494C420.71 297.573 421.676 298.539 421.676 299.755V300.506C421.676 301.722 420.674 302.688 419.494 302.688Z" fill="#2970D6"/>
<path d="M449.325 302.688H434.481C433.265 302.688 432.299 301.722 432.299 300.506V299.755C432.299 298.539 433.265 297.573 434.481 297.573H449.325C450.541 297.573 451.507 298.539 451.507 299.755V300.506C451.507 301.722 450.505 302.688 449.325 302.688Z" fill="#2970D6"/>
<path d="M479.156 302.688H464.312C463.096 302.688 462.13 301.722 462.13 300.506V299.755C462.13 298.539 463.096 297.573 464.312 297.573H479.156C480.372 297.573 481.338 298.539 481.338 299.755V300.506C481.338 301.722 480.336 302.688 479.156 302.688Z" fill="#2970D6"/>
<path d="M508.987 302.688H494.143C492.927 302.688 491.961 301.722 491.961 300.506V299.755C491.961 298.539 492.927 297.573 494.143 297.573H508.987C510.203 297.573 511.169 298.539 511.169 299.755V300.506C511.169 301.722 510.167 302.688 508.987 302.688Z" fill="#2970D6"/>
<path d="M538.818 302.688H523.974C522.758 302.688 521.792 301.722 521.792 300.506V299.755C521.792 298.539 522.758 297.573 523.974 297.573H538.818C540.034 297.573 541 298.539 541 299.755V300.506C541 301.722 539.998 302.688 538.818 302.688Z" fill="#2970D6"/>
<path d="M546.937 326.725V311.881C546.937 310.664 547.903 309.699 549.119 309.699H549.87C551.087 309.699 552.052 310.664 552.052 311.881V326.725C552.052 327.941 551.087 328.906 549.87 328.906H549.119C547.939 328.906 546.937 327.941 546.937 326.725Z" fill="#2970D6"/>
<path d="M546.937 356.556V341.712C546.937 340.496 547.903 339.53 549.119 339.53H549.87C551.087 339.53 552.052 340.496 552.052 341.712V356.556C552.052 357.772 551.087 358.737 549.87 358.737H549.119C547.939 358.737 546.937 357.772 546.937 356.556Z" fill="#2970D6"/>
<path d="M546.937 386.387V371.543C546.937 370.327 547.903 369.361 549.119 369.361H549.87C551.087 369.361 552.052 370.327 552.052 371.543V386.387C552.052 387.603 551.087 388.569 549.87 388.569H549.119C547.939 388.569 546.937 387.603 546.937 386.387Z" fill="#2970D6"/>
<path d="M546.937 416.218V401.409C546.937 400.193 547.903 399.228 549.119 399.228H549.87C551.087 399.228 552.052 400.193 552.052 401.409V416.253C552.052 417.47 551.087 418.435 549.87 418.435H549.119C547.939 418.399 546.937 417.434 546.937 416.218Z" fill="#2970D6"/>
<path d="M546.937 446.048V431.204C546.937 429.988 547.903 429.022 549.119 429.022H549.87C551.087 429.022 552.052 429.988 552.052 431.204V446.048C552.052 447.264 551.087 448.23 549.87 448.23H549.119C547.939 448.23 546.937 447.264 546.937 446.048Z" fill="#2970D6"/>
<path d="M546.937 475.879V461.035C546.937 459.819 547.903 458.854 549.119 458.854H549.87C551.087 458.854 552.052 459.819 552.052 461.035V475.879C552.052 477.095 551.087 478.061 549.87 478.061H549.119C547.939 478.061 546.937 477.095 546.937 475.879Z" fill="#2970D6"/>
<path d="M546.937 505.71V490.866C546.937 489.65 547.903 488.685 549.119 488.685H549.87C551.087 488.685 552.052 489.65 552.052 490.866V505.71C552.052 506.927 551.087 507.892 549.87 507.892H549.119C547.939 507.892 546.937 506.927 546.937 505.71Z" fill="#2970D6"/>
<path d="M546.937 535.541V520.697C546.937 519.481 547.903 518.516 549.119 518.516H549.87C551.087 518.516 552.052 519.481 552.052 520.697V535.541C552.052 536.758 551.087 537.723 549.87 537.723H549.119C547.939 537.723 546.937 536.758 546.937 535.541Z" fill="#2970D6"/>
<path d="M546.937 565.372V550.564C546.937 549.348 547.903 548.382 549.119 548.382H549.87C551.087 548.382 552.052 549.348 552.052 550.564V565.408C552.052 566.624 551.087 567.59 549.87 567.59H549.119C547.939 567.554 546.937 566.589 546.937 565.372Z" fill="#2970D6"/>
<path d="M180.846 581.862H166.002C164.786 581.862 163.82 580.896 163.82 579.68V578.929C163.82 577.713 164.786 576.747 166.002 576.747H180.846C182.062 576.747 183.028 577.713 183.028 578.929V579.68C183.028 580.896 182.026 581.862 180.846 581.862Z" fill="#2970D6"/>
<path d="M210.677 581.862H195.833C194.617 581.862 193.651 580.896 193.651 579.68V578.929C193.651 577.713 194.617 576.747 195.833 576.747H210.677C211.893 576.747 212.859 577.713 212.859 578.929V579.68C212.859 580.896 211.857 581.862 210.677 581.862Z" fill="#2970D6"/>
<path d="M240.508 581.862H225.664C224.448 581.862 223.482 580.896 223.482 579.68V578.929C223.482 577.713 224.448 576.747 225.664 576.747H240.508C241.724 576.747 242.69 577.713 242.69 578.929V579.68C242.69 580.896 241.688 581.862 240.508 581.862Z" fill="#2970D6"/>
<path d="M270.339 581.862H255.495C254.279 581.862 253.313 580.896 253.313 579.68V578.929C253.313 577.713 254.279 576.747 255.495 576.747H270.339C271.555 576.747 272.521 577.713 272.521 578.929V579.68C272.521 580.896 271.519 581.862 270.339 581.862Z" fill="#2970D6"/>
<path d="M300.17 581.862H285.326C284.11 581.862 283.144 580.896 283.144 579.68V578.929C283.144 577.713 284.11 576.747 285.326 576.747H300.17C301.386 576.747 302.352 577.713 302.352 578.929V579.68C302.352 580.896 301.35 581.862 300.17 581.862Z" fill="#2970D6"/>
<path d="M330.001 581.862H315.157C313.941 581.862 312.975 580.896 312.975 579.68V578.929C312.975 577.713 313.941 576.747 315.157 576.747H330.001C331.217 576.747 332.183 577.713 332.183 578.929V579.68C332.183 580.896 331.181 581.862 330.001 581.862Z" fill="#2970D6"/>
<path d="M359.832 581.862H344.988C343.772 581.862 342.806 580.896 342.806 579.68V578.929C342.806 577.713 343.772 576.747 344.988 576.747H359.832C361.048 576.747 362.014 577.713 362.014 578.929V579.68C362.014 580.896 361.012 581.862 359.832 581.862Z" fill="#2970D6"/>
<path d="M389.663 581.862H374.819C373.603 581.862 372.637 580.896 372.637 579.68V578.929C372.637 577.713 373.603 576.747 374.819 576.747H389.663C390.879 576.747 391.845 577.713 391.845 578.929V579.68C391.845 580.896 390.843 581.862 389.663 581.862Z" fill="#2970D6"/>
<path d="M419.494 581.862H404.65C403.434 581.862 402.468 580.896 402.468 579.68V578.929C402.468 577.713 403.434 576.747 404.65 576.747H419.494C420.71 576.747 421.676 577.713 421.676 578.929V579.68C421.676 580.896 420.674 581.862 419.494 581.862Z" fill="#2970D6"/>
<path d="M449.325 581.862H434.481C433.265 581.862 432.299 580.896 432.299 579.68V578.929C432.299 577.713 433.265 576.747 434.481 576.747H449.325C450.541 576.747 451.507 577.713 451.507 578.929V579.68C451.507 580.896 450.505 581.862 449.325 581.862Z" fill="#2970D6"/>
<path d="M479.156 581.862H464.312C463.096 581.862 462.13 580.896 462.13 579.68V578.929C462.13 577.713 463.096 576.747 464.312 576.747H479.156C480.372 576.747 481.338 577.713 481.338 578.929V579.68C481.338 580.896 480.336 581.862 479.156 581.862Z" fill="#2970D6"/>
<path d="M508.987 581.862H494.143C492.927 581.862 491.961 580.896 491.961 579.68V578.929C491.961 577.713 492.927 576.747 494.143 576.747H508.987C510.203 576.747 511.169 577.713 511.169 578.929V579.68C511.169 580.896 510.167 581.862 508.987 581.862Z" fill="#2970D6"/>
<path d="M538.818 581.862H523.974C522.758 581.862 521.792 580.896 521.792 579.68V578.929C521.792 577.713 522.758 576.747 523.974 576.747H538.818C540.034 576.747 541 577.713 541 578.929V579.68C541 580.896 539.998 581.862 538.818 581.862Z" fill="#2970D6"/>
<path d="M566.968 479.564H485.165C461.629 479.564 442.565 460.499 442.565 436.963C442.565 413.427 461.629 394.363 485.165 394.363H567.004C572.19 394.363 576.375 398.548 576.375 403.734V470.228C576.339 475.343 572.154 479.564 566.968 479.564Z" fill="#0F317C"/>
<path d="M493.678 456.529C504.503 456.529 513.279 447.753 513.279 436.927C513.279 426.102 504.503 417.326 493.678 417.326C482.852 417.326 474.077 426.102 474.077 436.927C474.077 447.753 482.852 456.529 493.678 456.529Z" fill="#FFDA3E"/>
<path d="M503.407 419.938C504.015 421.797 504.337 423.8 504.337 425.875C504.337 436.713 495.574 445.476 484.736 445.476C481.195 445.476 477.868 444.546 475.007 442.901C477.511 450.842 484.95 456.564 493.678 456.564C504.516 456.564 513.279 447.801 513.279 436.963C513.279 429.667 509.309 423.3 503.407 419.938Z" fill="#FFBE1D"/>
<path d="M488.42 436.928C491.324 436.928 493.678 434.573 493.678 431.67C493.678 428.766 491.324 426.412 488.42 426.412C485.516 426.412 483.162 428.766 483.162 431.67C483.162 434.573 485.516 436.928 488.42 436.928Z" fill="#FFF68A"/>
<path d="M566.968 394.327H556.416C556.845 399.263 556.917 405.523 555.88 412.641C554.842 419.937 553.233 430.99 545.221 442.042C537.316 452.952 527.444 457.995 522.651 460.356C514.352 464.469 507.02 465.9 501.762 466.759C488.635 468.869 472.61 469.656 458.124 469.87C465.492 475.915 474.899 479.528 485.129 479.528H566.968C572.154 479.528 576.339 475.343 576.339 470.157V403.663C576.339 398.512 572.154 394.327 566.968 394.327Z" fill="#0D266D"/>
<path d="M451.9 439.932C450.326 439.431 450.648 430.203 454.44 422.048C461.236 407.49 476.08 402.84 478.727 402.017C485.594 399.871 493.284 399.406 493.642 400.73C494.179 402.554 479.657 404.521 467.638 416.075C456.121 427.199 453.868 440.54 451.9 439.932Z" fill="#154293"/>
<path d="M373.46 87.254C373.46 87.254 363.981 91.9397 361.549 91.4032C358.58 90.7951 351.856 82.7114 351.856 82.7114C351.856 82.7114 355.468 91.9039 354.932 94.3362C354.324 97.305 347.313 104.316 347.313 104.316C347.313 104.316 356.005 100.631 358.974 101.24C361.406 101.74 368.917 108.822 368.917 108.822C368.917 108.822 365.126 100.095 365.698 97.2692C366.27 94.7297 373.46 87.254 373.46 87.254Z" fill="white"/>
<path d="M59.4116 479.313C59.4116 479.313 49.9329 483.999 47.5007 483.462C44.5319 482.854 37.8074 474.771 37.8074 474.771C37.8074 474.771 41.42 483.963 40.8835 486.395C40.2754 489.364 33.2648 496.375 33.2648 496.375C33.2648 496.375 41.9565 492.691 44.9253 493.299C47.3576 493.799 54.869 500.882 54.869 500.882C54.869 500.882 51.0775 492.154 51.6498 489.328C52.2221 486.789 59.4116 479.313 59.4116 479.313Z" fill="white"/>
<path d="M119.145 73.9479C119.145 73.9479 109.666 78.6336 107.234 78.097C104.265 77.489 97.5409 69.4053 97.5409 69.4053C97.5409 69.4053 101.154 78.5978 100.617 81.0301C100.009 83.9989 92.9983 91.0095 92.9983 91.0095C92.9983 91.0095 101.69 87.3253 104.659 87.9334C107.091 88.4342 114.603 95.5163 114.603 95.5163C114.603 95.5163 110.811 86.7888 111.383 83.9631C111.956 81.4593 119.145 73.9479 119.145 73.9479Z" fill="white"/>
<path d="M400.501 8.38441C400.501 8.38441 391.022 13.0701 388.59 12.5336C385.621 11.9255 378.897 3.8418 378.897 3.8418C378.897 3.8418 382.509 13.0343 381.973 15.4666C381.365 18.4354 374.354 25.446 374.354 25.446C374.354 25.446 383.046 21.7619 386.014 22.3699C388.447 22.8707 395.958 29.9529 395.958 29.9529C395.958 29.9529 392.167 21.2253 392.739 18.3996C393.311 15.86 400.501 8.38441 400.501 8.38441Z" fill="white"/>
<path d="M661.826 348.257C661.826 348.257 652.347 352.943 649.915 352.407C646.946 351.799 640.222 343.715 640.222 343.715C640.222 343.715 643.834 352.907 643.298 355.34C642.69 358.308 635.679 365.319 635.679 365.319C635.679 365.319 644.371 361.635 647.34 362.243C649.772 362.744 657.283 369.826 657.283 369.826C657.283 369.826 653.492 361.098 654.064 358.273C654.636 355.733 661.826 348.257 661.826 348.257Z" fill="white"/>
<path d="M749.852 405.844C749.852 405.844 740.374 410.53 737.941 409.994C734.973 409.385 728.248 401.302 728.248 401.302C728.248 401.302 731.861 410.494 731.324 412.927C730.716 415.895 723.705 422.906 723.705 422.906C723.705 422.906 732.397 419.222 735.366 419.83C737.798 420.331 745.31 427.413 745.31 427.413C745.31 427.413 741.518 418.685 742.091 415.86C742.663 413.32 749.852 405.844 749.852 405.844Z" fill="white"/>
<path d="M91.1383 271.355C91.1383 271.355 81.6596 276.04 79.2273 275.504C76.2586 274.896 69.5341 266.812 69.5341 266.812C69.5341 266.812 73.1467 276.005 72.6102 278.437C72.0021 281.406 64.9915 288.416 64.9915 288.416C64.9915 288.416 73.6832 284.732 76.652 285.34C79.0843 285.841 86.5957 292.923 86.5957 292.923C86.5957 292.923 82.8042 284.196 83.3765 281.37C83.9488 278.866 91.1383 271.355 91.1383 271.355Z" fill="white"/>
<path d="M655.602 469.406C655.602 469.406 650.63 471.874 649.343 471.588C647.769 471.266 644.264 467.045 644.264 467.045C644.264 467.045 646.159 471.874 645.873 473.161C645.551 474.699 641.867 478.419 641.867 478.419C641.867 478.419 646.445 476.488 647.983 476.81C649.271 477.096 653.206 480.816 653.206 480.816C653.206 480.816 651.203 476.237 651.525 474.735C651.846 473.34 655.602 469.406 655.602 469.406Z" fill="white"/>
<path d="M736.761 293.102C736.761 293.102 731.789 295.57 730.502 295.284C728.928 294.962 725.422 290.741 725.422 290.741C725.422 290.741 727.318 295.57 727.032 296.858C726.71 298.396 723.026 302.116 723.026 302.116C723.026 302.116 727.604 300.184 729.142 300.506C730.43 300.792 734.365 304.512 734.365 304.512C734.365 304.512 732.362 299.934 732.683 298.431C733.005 297.036 736.761 293.102 736.761 293.102Z" fill="white"/>
<path d="M697.129 25.5175C697.129 25.5175 692.158 27.9855 690.87 27.6994C689.296 27.3774 685.791 23.1567 685.791 23.1567C685.791 23.1567 687.686 27.9855 687.4 29.2732C687.078 30.8112 683.394 34.5311 683.394 34.5311C683.394 34.5311 687.973 32.5996 689.511 32.9216C690.798 33.2077 694.733 36.9276 694.733 36.9276C694.733 36.9276 692.73 32.3493 693.052 30.847C693.374 29.452 697.129 25.5175 697.129 25.5175Z" fill="white"/>
<path d="M53.2237 158.755C53.2237 158.755 48.2518 161.223 46.9642 160.937C45.3903 160.615 41.885 156.395 41.885 156.395C41.885 156.395 43.7808 161.223 43.4946 162.511C43.1727 164.049 39.4885 167.769 39.4885 167.769C39.4885 167.769 44.0669 165.837 45.6049 166.159C46.8926 166.445 50.8272 170.165 50.8272 170.165C50.8272 170.165 48.8241 165.587 49.146 164.085C49.4322 162.69 53.2237 158.755 53.2237 158.755Z" fill="white"/>
<path d="M210.999 47.1932C210.999 47.1932 206.027 49.6613 204.739 49.3751C203.165 49.0532 199.66 44.8325 199.66 44.8325C199.66 44.8325 201.556 49.6613 201.27 50.9489C200.948 52.487 197.264 56.2069 197.264 56.2069C197.264 56.2069 201.842 54.2754 203.38 54.5973C204.668 54.8835 208.602 58.6034 208.602 58.6034C208.602 58.6034 206.599 54.025 206.921 52.5228C207.207 51.1278 210.999 47.1932 210.999 47.1932Z" fill="white"/>
<path d="M84.9503 392.503C84.9503 392.503 79.9785 394.971 78.6908 394.685C77.117 394.363 73.6117 390.142 73.6117 390.142C73.6117 390.142 75.5074 394.971 75.2213 396.259C74.8994 397.797 71.2152 401.517 71.2152 401.517C71.2152 401.517 75.7936 399.585 77.3316 399.907C78.6193 400.193 82.5539 403.913 82.5539 403.913C82.5539 403.913 80.5508 399.335 80.8727 397.832C81.1589 396.437 84.9503 392.503 84.9503 392.503Z" fill="white"/>
<path d="M13.7351 344.681C13.7351 344.681 8.7633 347.149 7.47563 346.862C5.90181 346.54 2.39649 342.32 2.39649 342.32C2.39649 342.32 4.29222 347.149 4.00607 348.436C3.68416 349.974 0 353.694 0 353.694C0 353.694 4.57838 351.763 6.11643 352.085C7.4041 352.371 11.3386 356.091 11.3386 356.091C11.3386 356.091 9.3356 351.512 9.65752 350.01C9.94366 348.615 13.7351 344.681 13.7351 344.681Z" fill="white"/>
</svg>
