<svg width="66" height="66" viewBox="0 0 66 66" fill="none" xmlns="http://www.w3.org/2000/svg">
<path d="M33.6875 32.3125H44V22.6875C44 22.5052 43.9276 22.3303 43.7986 22.2014C43.6697 22.0724 43.4948 22 43.3125 22H33.6875V32.3125Z" fill="#4CAF50"/>
<path d="M32.3125 32.3125V22H22.6875C22.5052 22 22.3303 22.0724 22.2014 22.2014C22.0724 22.3303 22 22.5052 22 22.6875V32.3125H32.3125Z" fill="#F44336"/>
<path d="M32.3125 33.6875H22V43.3125C22 43.4948 22.0724 43.6697 22.2014 43.7986C22.3303 43.9276 22.5052 44 22.6875 44H32.3125V33.6875Z" fill="#6699CC"/>
<path d="M33.6875 33.6875V44H43.3125C43.4948 44 43.6697 43.9276 43.7986 43.7986C43.9276 43.6697 44 43.4948 44 43.3125V33.6875H33.6875Z" fill="#FFC107"/>
<rect x="0.5" y="0.5" width="65" height="65" rx="32.5" stroke="#EEF1F6"/>
</svg>
