<svg width="857" height="502" viewBox="0 0 857 502" fill="none" xmlns="http://www.w3.org/2000/svg">
<path d="M854.847 491.234H1.34622C0.538486 491.234 0 490.695 0 489.888C0 489.08 0.538486 488.542 1.34622 488.542H854.847C855.655 488.542 856.193 489.08 856.193 489.888C856.193 490.695 855.655 491.234 854.847 491.234Z" fill="url(#paint0_linear_1_613)"/>
<path d="M275.974 501.6H203.683C202.875 501.6 202.336 501.061 202.336 500.253C202.336 499.446 202.875 498.907 203.683 498.907H275.974C276.782 498.907 277.321 499.446 277.321 500.253C277.321 501.061 276.647 501.6 275.974 501.6Z" fill="url(#paint1_linear_1_613)"/>
<path d="M571.469 501.6H461.483C460.675 501.6 460.137 501.061 460.137 500.253C460.137 499.446 460.675 498.907 461.483 498.907H571.469C572.276 498.907 572.815 499.446 572.815 500.253C572.815 501.061 572.276 501.6 571.469 501.6Z" fill="url(#paint2_linear_1_613)"/>
<path d="M431.328 501.6H311.649C310.841 501.6 310.303 501.061 310.303 500.253C310.303 499.446 310.841 498.907 311.649 498.907H431.328C432.135 498.907 432.674 499.446 432.674 500.253C432.674 501.061 432.135 501.6 431.328 501.6Z" fill="url(#paint3_linear_1_613)"/>
<path d="M742.034 501.6H613.874C613.067 501.6 612.528 501.061 612.528 500.253C612.528 499.446 613.067 498.907 613.874 498.907H742.034C742.842 498.907 743.38 499.446 743.38 500.253C743.38 501.061 742.842 501.6 742.034 501.6Z" fill="url(#paint4_linear_1_613)"/>
<path d="M553.295 126.679L553.025 126.948C548.044 131.391 540.64 131.391 535.525 127.217C483.157 83.8693 407.5 74.9843 344.9 110.524C264.531 156.296 236.126 258.204 281.224 338.708L289.706 332.246C291.052 331.169 293.071 332.111 293.206 333.862L295.494 377.479C295.629 378.96 294.148 380.171 292.667 379.633L251.204 365.767C249.588 365.228 249.185 363.074 250.531 361.997L259.55 355.132C259.147 354.459 258.743 353.92 258.473 353.247C205.163 259.55 237.876 140.41 331.573 87.1002C404.269 45.7714 492.311 56.1372 553.025 106.62C559.083 111.736 559.218 121.159 553.295 126.679Z" fill="#ACD9EA"/>
<path d="M524.62 426.75C451.925 468.079 363.882 457.713 303.168 407.23C296.975 402.115 296.84 392.556 302.898 387.172L303.168 386.902C308.149 382.46 315.553 382.46 320.669 386.633C373.036 429.981 448.694 438.866 511.293 403.326C591.662 357.555 620.067 255.646 574.969 175.143L566.487 181.604C565.141 182.681 563.122 181.739 562.987 179.989L560.699 136.372C560.564 134.891 562.045 133.679 563.526 134.218L604.989 148.084C606.605 148.622 607.009 150.776 605.662 151.853L596.643 158.719C597.047 159.392 597.45 159.93 597.72 160.604C651.03 254.165 618.317 373.44 524.62 426.75Z" fill="#ACD9EA"/>
<path d="M320.803 153.873C330.631 155.084 338.439 163.027 339.65 172.854C340.593 180.124 338.035 186.72 333.323 191.298L336.689 200.452C336.958 201.26 336.016 202.067 335.208 201.529L327.4 195.471C323.361 197.49 318.784 198.298 313.803 197.356C304.379 195.605 296.975 187.797 295.898 178.239C294.417 163.969 306.533 152.123 320.803 153.873Z" fill="white"/>
<path d="M325.515 175.412C325.515 177.162 326.996 178.643 328.746 178.643C330.496 178.643 331.977 177.162 331.977 175.412C331.977 173.662 330.496 172.181 328.746 172.181C326.996 172.181 325.515 173.662 325.515 175.412Z" fill="url(#paint5_linear_1_613)"/>
<path d="M317.842 178.643C319.626 178.643 321.073 177.196 321.073 175.412C321.073 173.628 319.626 172.181 317.842 172.181C316.057 172.181 314.611 173.628 314.611 175.412C314.611 177.196 316.057 178.643 317.842 178.643Z" fill="url(#paint6_linear_1_613)"/>
<path d="M303.841 175.412C303.841 177.162 305.322 178.643 307.072 178.643C308.822 178.643 310.303 177.162 310.303 175.412C310.303 173.662 308.822 172.181 307.072 172.181C305.322 172.181 303.841 173.662 303.841 175.412Z" fill="url(#paint7_linear_1_613)"/>
<path opacity="0.5" d="M163.027 301.283H111.332C108.101 301.283 105.409 298.725 105.409 295.36V265.743C105.409 262.512 107.967 259.82 111.332 259.82H163.027C166.258 259.82 168.95 262.512 168.95 265.743V295.36C168.95 298.591 166.392 301.283 163.027 301.283Z" fill="url(#paint8_linear_1_613)"/>
<path d="M161.95 298.725H107.563C105.005 298.725 102.985 296.706 102.985 294.148V261.974C102.985 259.416 105.005 257.396 107.563 257.396H161.95C164.508 257.396 166.527 259.416 166.527 261.974V294.148C166.392 296.706 164.373 298.725 161.95 298.725Z" fill="url(#paint9_linear_1_613)"/>
<path d="M131.121 271.936L139.468 276.782C140.41 277.32 140.41 278.667 139.468 279.205L131.121 284.052C130.179 284.59 128.968 283.917 128.968 282.84V273.147C129.102 272.07 130.179 271.397 131.121 271.936Z" fill="white"/>
<path d="M665.031 117.525V111.063C665.031 110.39 664.492 109.717 663.819 109.582L656.011 108.37C655.473 108.236 654.934 107.832 654.799 107.293C654.261 105.543 653.588 103.928 652.78 102.312C652.511 101.774 652.511 101.235 652.915 100.697L657.626 94.3698C658.03 93.8313 658.03 93.0236 657.492 92.4851L652.915 87.908C652.376 87.3695 651.568 87.3695 651.03 87.7733L644.703 92.4851C644.299 92.8889 643.626 92.889 643.087 92.6197C641.472 91.812 639.856 91.0043 638.106 90.6004C637.568 90.4658 637.164 89.9273 637.029 89.3888L635.818 81.5807C635.683 80.9076 635.145 80.3691 634.337 80.3691H627.875C627.202 80.3691 626.529 80.9076 626.394 81.5807L625.183 89.3888C625.048 89.9273 624.644 90.4658 624.106 90.6004C622.356 91.1389 620.74 91.812 619.125 92.6197C618.586 92.889 618.048 92.8889 617.509 92.4851L611.182 87.7733C610.644 87.3695 609.836 87.3695 609.297 87.908L604.72 92.4851C604.182 93.0236 604.182 93.8313 604.586 94.3698L609.297 100.697C609.701 101.101 609.701 101.774 609.432 102.312C608.624 103.928 607.817 105.543 607.413 107.293C607.278 107.832 606.74 108.236 606.201 108.37L598.393 109.582C597.72 109.717 597.181 110.255 597.181 111.063V117.525C597.181 118.198 597.72 118.871 598.393 119.006L606.201 120.217C606.74 120.352 607.278 120.756 607.413 121.294C607.951 123.044 608.624 124.66 609.432 126.275C609.701 126.814 609.701 127.352 609.297 127.891L604.586 134.218C604.182 134.756 604.182 135.564 604.72 136.102L609.297 140.68C609.836 141.218 610.644 141.218 611.182 140.814L617.509 136.102C617.913 135.699 618.586 135.699 619.125 135.968C620.74 136.776 622.356 137.583 624.106 137.987C624.644 138.122 625.048 138.66 625.183 139.199L626.394 147.007C626.529 147.68 627.067 148.218 627.875 148.218H634.337C635.01 148.218 635.683 147.68 635.818 147.007L637.029 139.199C637.164 138.66 637.568 138.122 638.106 137.987C639.856 137.449 641.472 136.776 643.087 135.968C643.626 135.699 644.164 135.699 644.703 136.102L651.03 140.814C651.568 141.218 652.376 141.218 652.915 140.68L657.492 136.102C658.03 135.564 658.03 134.756 657.626 134.218L652.915 127.891C652.511 127.487 652.511 126.814 652.78 126.275C653.588 124.66 654.396 123.044 654.799 121.294C654.934 120.756 655.473 120.352 656.011 120.217L663.819 119.006C664.492 118.871 665.031 118.198 665.031 117.525ZM630.837 128.564C622.894 128.564 616.567 122.102 616.567 114.294C616.567 106.351 623.029 100.024 630.837 100.024C638.645 100.024 645.107 106.486 645.107 114.294C645.241 122.102 638.779 128.564 630.837 128.564Z" fill="url(#paint10_linear_1_613)"/>
<path d="M630.837 132.871C620.606 132.871 612.259 124.525 612.259 114.294C612.259 104.062 620.606 95.7158 630.837 95.7158C641.068 95.7158 649.415 104.062 649.415 114.294C649.549 124.525 641.203 132.871 630.837 132.871ZM630.837 96.3889C621.009 96.3889 612.932 104.466 612.932 114.294C612.932 124.121 621.009 132.198 630.837 132.198C640.664 132.198 648.742 124.121 648.742 114.294C648.742 104.332 640.799 96.3889 630.837 96.3889Z" fill="url(#paint11_linear_1_613)"/>
<path opacity="0.5" d="M223.876 480.734L210.817 478.714C209.875 478.58 209.067 477.907 208.798 476.964C207.99 474.003 206.779 471.31 205.298 468.618C204.894 467.81 204.894 466.733 205.433 465.925L213.241 455.29C213.914 454.348 213.779 453.002 212.971 452.059L205.298 444.386C204.49 443.578 203.144 443.444 202.067 444.117L191.432 451.925C190.624 452.463 189.682 452.598 188.739 452.059C186.182 450.579 183.355 449.502 180.393 448.559C179.451 448.29 178.777 447.482 178.643 446.54L176.624 433.482C176.489 432.27 175.412 431.328 174.2 431.328H163.296C162.084 431.328 161.007 432.135 160.873 433.482L158.854 446.54C158.719 447.482 158.046 448.29 157.103 448.559C154.142 449.367 151.449 450.579 148.757 452.059C147.949 452.463 146.872 452.463 146.064 451.925L135.429 444.117C134.487 443.444 133.141 443.444 132.198 444.386L124.525 452.059C123.717 452.867 123.583 454.213 124.256 455.29L132.064 465.925C132.602 466.733 132.737 467.675 132.198 468.618C130.718 471.176 129.641 474.003 128.698 476.964C128.429 477.907 127.621 478.58 126.679 478.714L113.621 480.734C112.409 480.868 111.601 481.945 111.601 483.157V488.542H144.718C144.718 475.349 155.353 464.579 168.681 464.579C181.874 464.579 192.644 475.349 192.644 488.542H225.76V483.157C225.895 481.945 225.087 480.868 223.876 480.734Z" fill="url(#paint12_linear_1_613)"/>
<path d="M168.95 457.579C151.853 457.579 137.853 471.445 137.853 488.676H139.064C139.064 472.252 152.392 458.79 168.95 458.79C185.374 458.79 198.836 472.118 198.836 488.676H200.048C200.048 471.445 186.047 457.579 168.95 457.579Z" fill="url(#paint13_linear_1_613)"/>
<path d="M393.903 462.291L397.941 475.214L405.615 481.003L412.615 476.965L411.404 461.618" fill="url(#paint14_linear_1_613)"/>
<path d="M323.63 467.271L322.823 479.657C322.823 479.657 331.573 482.484 335.477 481.676L338.977 470.233L323.63 467.271Z" fill="url(#paint15_linear_1_613)"/>
<path d="M412.346 470.233C412.346 470.233 410.461 471.445 406.153 471.984C399.422 472.791 395.384 471.984 395.384 471.984C395.384 471.984 376.133 410.327 379.364 389.595C377.614 385.826 375.19 379.768 372.498 372.364C369.94 365.498 367.113 357.824 364.421 350.151C357.824 331.439 351.901 313.669 351.901 313.669L395.384 298.726C395.384 298.726 404.673 363.748 406.827 385.557C408.98 406.692 412.346 470.233 412.346 470.233Z" fill="url(#paint16_linear_1_613)"/>
<path opacity="0.4" d="M372.363 372.364C369.806 365.498 366.979 357.825 364.286 350.151L368.459 343.151L372.363 372.364Z" fill="url(#paint17_linear_1_613)"/>
<path d="M375.998 315.553L333.996 314.611C333.996 314.611 331.708 378.556 331.304 387.172C331.304 387.172 331.708 392.557 328.88 405.077C325.784 418.943 322.957 471.445 322.957 471.445C322.957 471.445 331.169 474.272 340.593 473.734C340.593 473.734 353.92 425.27 356.613 392.287C363.882 371.152 375.998 315.553 375.998 315.553Z" fill="url(#paint18_linear_1_613)"/>
<path d="M459.598 276.244C459.463 276.648 458.925 277.052 458.656 277.455C458.386 277.994 458.521 278.802 458.117 279.34C457.848 279.744 460.944 280.686 460.675 281.09C460.271 281.629 456.367 281.629 455.694 281.629C452.867 282.033 450.444 281.36 448.155 280.148C446.674 279.34 442.232 277.59 440.213 277.321C432.539 276.244 403.595 274.09 398.345 271.936C386.902 267.09 378.96 245.954 378.96 245.954L403.057 244.069C403.057 244.069 405.48 258.608 406.423 260.089C407.365 261.436 434.693 267.493 443.443 268.301C444.924 268.436 447.751 268.436 449.232 268.032C450.713 267.628 453.944 266.955 455.829 267.628C457.713 268.301 464.714 272.205 464.848 272.744C464.579 272.744 464.579 276.109 459.598 276.244Z" fill="url(#paint19_linear_1_613)"/>
<path d="M439.809 280.821C439.809 280.821 442.097 274.897 442.636 268.166L407.365 258.743C407.365 258.743 403.461 235.453 395.653 223.203C393.903 220.51 392.287 218.222 391.21 217.549C380.575 211.894 377.748 249.319 377.748 249.319C377.748 249.319 384.075 263.724 393.095 272.339C399.826 278.801 439.809 280.821 439.809 280.821Z" fill="url(#paint20_linear_1_613)"/>
<path d="M396.999 314.207C396.999 314.207 395.114 314.745 349.208 314.072C349.881 311.515 335.342 251.877 335.342 247.435C335.477 243.935 331.169 224.145 332.65 221.184C334.804 216.876 343.958 213.779 353.112 211.356C360.113 209.471 367.921 207.856 367.921 207.856L379.767 212.164C379.767 212.164 389.056 217.414 390.672 219.164C392.153 225.626 393.23 277.859 393.633 289.437C393.903 292.668 396.999 314.207 396.999 314.207Z" fill="white"/>
<path d="M370.075 222.395C360.517 220.51 353.112 211.356 353.112 211.356L355.536 210.144C355.536 210.144 356.613 209.067 356.747 207.452C357.555 198.971 354.189 190.355 354.189 190.355C360.113 194.528 367.921 197.086 371.825 198.432C371.959 199.105 372.229 202.336 373.036 205.029C373.575 206.644 374.113 208.125 375.056 208.798C375.46 208.933 379.768 224.28 370.075 222.395Z" fill="url(#paint21_linear_1_613)"/>
<path d="M373.171 204.894C366.44 203.414 360.247 196.144 360.247 196.144L371.959 198.433C372.094 199.106 372.498 202.202 373.171 204.894Z" fill="#E3A39A"/>
<path d="M378.69 202.067C376.671 202.202 374.383 201.932 371.556 201.125C371.556 201.125 368.863 200.048 365.228 198.432C362.132 196.951 357.69 195.067 354.997 192.24L352.843 187.124C350.689 179.451 353.92 170.296 356.074 167.469C363.209 158.046 381.787 160.738 384.883 175.143C385.152 176.22 385.152 177.431 385.018 178.508C384.748 180.124 384.479 182.816 384.614 186.047C384.748 190.893 381.787 201.932 378.69 202.067Z" fill="url(#paint22_linear_1_613)"/>
<path d="M376.267 174.739C374.921 174.47 374.383 174.335 372.902 173.797C373.575 174.066 373.844 176.085 371.017 175.951C368.325 175.816 368.055 180.932 363.478 182.682C363.209 184.97 363.209 187.797 363.882 190.759L361.459 190.49C361.19 189.144 360.651 186.182 359.574 184.701C359.44 184.432 358.228 182.682 355.805 183.22C354.863 183.489 353.651 184.432 353.651 187.124C353.651 189.278 354.459 191.028 355.401 192.24C355.805 195.605 356.613 198.971 356.613 200.048C355.805 199.913 346.516 180.528 347.593 171.912C348.535 165.181 352.709 162.758 356.343 162.758C358.228 155.219 367.248 154.815 371.825 155.892C376.133 156.969 378.691 158.988 383.537 161.411C389.191 164.104 391.48 162.623 392.018 165.181C393.095 170.296 387.71 177.431 376.267 174.739Z" fill="url(#paint23_linear_1_613)"/>
<path d="M432.001 488.542H394.845C393.768 486.657 393.768 478.445 397.941 475.08C397.941 475.08 407.365 479.388 412.75 476.83C412.75 476.83 423.25 479.657 428.904 483.157C431.731 484.907 432.27 486.926 432.001 488.542Z" fill="url(#paint24_linear_1_613)"/>
<path d="M322.957 477.368C322.957 477.368 317.842 480.195 314.476 482.215C311.111 484.234 311.111 488.676 311.111 488.676H339.112C339.112 488.676 339.112 480.734 336.689 478.176C329.285 479.657 322.957 477.368 322.957 477.368Z" fill="url(#paint25_linear_1_613)"/>
<path d="M371.017 227.645C371.017 227.645 362.94 280.282 363.613 290.379C364.286 300.476 374.113 315.553 375.998 315.553C378.287 315.553 383.672 298.86 383.806 291.321C384.075 283.783 375.864 227.107 375.864 227.107L371.017 227.645Z" fill="url(#paint26_linear_1_613)"/>
<path d="M357.016 206.914C357.016 206.914 364.286 214.722 373.306 217.279L368.729 225.626C368.729 225.626 357.69 221.991 353.247 211.221L357.016 206.914Z" fill="url(#paint27_linear_1_613)"/>
<path d="M374.248 207.452C374.248 207.452 376.671 211.76 373.306 217.414L376.671 224.414C376.671 224.414 380.71 216.472 376.267 209.741C375.998 209.337 375.729 209.068 375.325 208.664L374.248 207.452Z" fill="url(#paint28_linear_1_613)"/>
<path d="M373.171 217.279L368.594 225.626L370.883 227.511C370.883 227.511 374.787 227.511 375.864 226.972L376.537 224.28L373.171 217.279Z" fill="url(#paint29_linear_1_613)"/>
<path d="M378.152 211.491C378.152 211.491 379.767 212.298 380.037 220.106C380.441 235.453 374.383 276.378 374.383 276.378C374.383 276.378 363.344 233.703 357.286 219.568C354.863 213.914 353.247 211.356 353.247 211.356C353.247 211.356 340.997 211.491 331.977 217.952C331.035 218.626 330.496 220.376 330.092 221.587L334.669 249.858C334.669 249.858 341.131 282.167 337.766 303.302C336.689 310.034 330.765 329.688 330.765 329.688C330.765 329.688 341.4 333.458 347.728 333.727C368.998 334.4 373.036 327.938 374.652 324.438C375.729 321.746 376.537 315.822 376.537 315.822C376.537 315.822 379.229 322.553 380.71 324.438C386.499 331.977 401.442 329.688 401.442 329.688C401.442 329.688 397.268 308.822 396.057 296.168C394.845 283.513 396.326 245.146 396.326 245.146C396.326 245.146 394.98 227.511 391.076 217.818C388.653 215.529 381.652 211.894 378.152 211.491Z" fill="url(#paint30_linear_1_613)"/>
<path d="M298.591 260.089C293.341 274.898 326.188 306.668 326.188 306.668C326.188 306.668 332.381 302.899 337.9 297.11L318.784 264.936L334.804 249.858L330.227 221.587C320.265 229.665 303.303 246.762 298.591 260.089Z" fill="url(#paint31_linear_1_613)"/>
<path d="M317.572 335.612L294.148 299.399C293.34 298.187 293.744 296.437 294.956 295.629L346.785 262.243C347.997 261.435 349.747 261.839 350.555 263.051L373.979 299.264C374.786 300.476 374.383 302.226 373.171 303.033L321.342 336.419C319.995 337.227 318.38 336.823 317.572 335.612Z" fill="url(#paint32_linear_1_613)"/>
<path d="M349.612 309.361C352.574 311.111 354.728 310.168 354.055 308.957C353.382 307.745 350.285 305.053 349.208 304.514C347.997 303.841 345.035 302.764 343.689 302.226C343.15 302.091 342.343 301.687 341.535 301.283C339.65 300.476 338.035 298.995 336.958 297.245C332.65 289.84 320.803 269.378 318.649 264.801C322.957 260.358 326.727 256.724 331.304 252.146C332.112 251.339 317.034 235.184 317.034 235.184C317.034 235.184 297.379 256.32 298.322 262.782C300.61 278.532 330.9 306.13 330.9 306.13C331.438 307.476 335.612 315.688 335.612 315.688C335.612 315.688 337.631 318.246 338.439 319.188C339.112 319.996 342.343 322.015 343.15 322.015C343.554 322.015 343.824 321.88 343.824 321.611C345.17 322.553 346.516 323.361 347.189 323.361C347.997 323.361 348.535 322.957 348.266 322.15C349.208 322.688 350.016 323.227 350.555 323.227C351.901 323.361 352.305 322.015 350.555 320.265C348.805 318.515 345.978 315.957 345.978 315.957C346.247 316.226 346.516 316.361 346.651 316.496C347.593 317.169 350.959 319.053 352.17 319.188C353.516 319.457 353.382 318.38 352.843 317.169C352.305 316.092 350.555 315.553 349.208 314.207C347.728 312.861 345.439 309.361 345.439 309.361C345.439 309.361 347.324 308.957 349.612 309.361Z" fill="url(#paint33_linear_1_613)"/>
<path d="M298.591 260.089C293.341 274.898 326.188 306.668 326.188 306.668C326.188 306.668 332.381 302.899 337.9 297.11L318.784 264.935L337.093 249.589L331.708 218.356C321.746 226.434 303.303 246.762 298.591 260.089Z" fill="url(#paint34_linear_1_613)"/>
<path d="M384.479 232.222C384.479 232.222 388.249 236.53 387.979 237.607C387.576 239.761 374.248 283.109 374.248 283.109C374.248 283.109 371.152 275.705 366.44 268.435C361.863 261.166 349.747 241.242 350.151 239.896C350.555 238.415 355.939 232.895 355.939 232.895C355.939 232.895 348.805 230.472 348.939 228.453C349.074 226.568 351.093 211.625 351.093 211.625C352.305 211.356 353.112 211.356 353.112 211.356C353.112 211.356 354.728 213.914 357.151 219.568C363.209 233.838 374.248 276.378 374.248 276.378C374.248 276.378 380.171 235.319 379.902 220.106C379.767 212.433 377.21 211.356 377.21 211.356C377.883 211.491 379.364 211.625 380.306 212.164C382.595 215.529 388.518 226.434 388.383 227.78C388.249 228.991 384.479 232.222 384.479 232.222Z" fill="url(#paint35_linear_1_613)"/>
<path d="M476.426 242.858C476.426 242.858 464.714 250.396 457.175 249.992C454.213 249.858 446.405 246.896 438.328 243.396C430.116 239.896 421.5 235.857 416.384 233.434C416.384 233.434 410.327 232.761 407.499 232.761C404.807 232.761 401.038 231.415 399.422 230.876C398.211 228.049 396.999 225.491 395.518 223.203C394.98 222.26 394.307 221.318 393.768 220.51C393.903 220.241 394.441 220.241 395.114 220.376C396.73 220.645 400.768 221.857 400.768 221.857C400.768 221.857 400.768 221.857 402.788 222.126C404.807 222.395 406.557 222.395 406.557 222.395C406.557 222.395 403.461 221.049 402.518 220.106C401.576 219.164 401.576 217.818 402.518 218.087C403.461 218.356 405.615 218.222 408.442 219.433C411.134 220.645 411.269 221.857 412.75 223.068C414.231 224.28 415.442 225.087 415.442 225.087C419.212 225.895 427.962 227.915 434.693 229.126C443.309 230.876 457.04 234.78 457.04 234.78L466.868 228.318L476.426 242.858Z" fill="url(#paint36_linear_1_613)"/>
<path d="M493.927 488.542C493.792 488.542 493.792 488.542 493.927 488.542H460.54C460.271 488.407 460.271 488.273 460.271 488.273C460.271 488.273 459.733 487.6 460.675 485.984C461.752 484.369 467.675 482.753 471.445 482.08C475.618 479.657 480.33 476.292 480.33 476.292C484.503 477.907 491.907 476.561 491.907 476.561C495.004 479.522 495.407 488.004 493.927 488.542Z" fill="white"/>
<path d="M569.584 478.176C568.507 479.388 566.353 480.734 564.064 481.811C562.853 482.349 558.545 484.907 554.237 487.33C552.621 488.273 550.602 488.811 548.717 488.811H541.717C540.371 488.811 539.967 487.869 539.967 487.33C540.102 485.85 541.313 484.638 543.333 484.234C543.871 484.099 545.89 482.08 550.333 479.118C551.679 477.099 553.429 472.522 553.429 472.522C559.756 471.714 563.391 468.887 563.391 468.887C567.295 469.964 569.045 475.484 569.584 478.176Z" fill="white"/>
<path d="M480.061 471.041C480.195 472.926 480.33 474.676 480.464 476.291C483.695 477.772 488.407 477.637 492.042 476.561C492.311 475.887 492.715 474.272 493.253 471.983C486.792 472.253 482.484 471.714 480.061 471.041Z" fill="url(#paint37_linear_1_613)"/>
<path d="M497.696 210.414L489.349 239.223C488.003 240.165 486.657 241.242 485.176 242.319C482.08 244.473 478.984 246.627 476.695 248.108C474.676 249.319 473.464 250.262 473.464 250.262C465.925 242.857 460.81 231.415 460.81 231.415C460.81 231.415 474.003 221.183 482.618 216.337C490.965 211.491 497.696 210.414 497.696 210.414Z" fill="url(#paint38_linear_1_613)"/>
<path opacity="0.5" d="M485.445 235.319L485.042 242.319C481.945 244.473 478.849 246.627 476.56 248.108L483.292 233.973L485.445 235.319Z" fill="url(#paint39_linear_1_613)"/>
<path d="M505.908 298.456C500.523 290.648 486.522 294.552 481.811 296.168C479.657 296.976 476.022 358.094 475.214 387.711C475.214 389.057 477.099 441.155 479.118 471.311C481.541 471.849 489.619 472.522 496.08 472.253C498.908 449.367 504.023 400.23 499.581 390.268C500.927 385.826 504.292 371.825 506.985 359.844C508.062 355.132 509.004 350.69 509.677 347.324C510.35 344.228 510.754 342.074 510.889 341.266C511.158 339.516 511.427 337.362 511.562 334.804C512.37 323.9 511.562 306.668 505.908 298.456Z" fill="url(#paint40_linear_1_613)"/>
<path d="M563.391 468.887C563.257 467.81 563.122 466.329 563.122 464.714C557.603 468.079 551.814 468.483 551.814 468.483C552.891 471.041 553.564 472.522 553.564 472.657C553.429 472.522 559.891 472.791 563.391 468.887Z" fill="url(#paint41_linear_1_613)"/>
<path d="M563.661 464.444C561.507 448.559 553.429 402.115 542.66 391.883C542.121 382.46 543.871 340.862 544.006 337.092C544.544 322.957 538.621 304.783 531.217 298.456L498.773 299.129L508.062 341.266C511.293 354.324 514.658 383.268 519.774 396.191C520.178 397.268 542.525 455.694 548.583 469.56C548.583 469.56 553.564 468.887 558.006 467.675C562.987 466.195 563.661 464.444 563.661 464.444Z" fill="url(#paint42_linear_1_613)"/>
<path d="M488.272 215.26C489.753 213.106 495.542 210.818 500.119 209.741C504.023 209.067 509.677 208.529 516.678 210.279C524.755 212.433 531.217 215.395 533.101 217.683C536.602 221.856 539.025 224.549 533.505 260.897C532.294 268.705 532.563 287.148 532.563 291.725C532.563 296.302 534.178 298.591 533.101 299.937C530.544 302.899 509.408 304.783 500.927 304.783C493.523 304.783 480.868 302.764 480.195 300.475C479.657 298.591 482.08 279.34 482.214 257.935C482.349 221.453 486.926 216.875 488.272 215.26Z" fill="url(#paint43_linear_1_613)"/>
<path d="M502.139 216.472C502.139 216.472 492.446 274.09 492.177 280.955C492.042 287.821 499.177 300.879 500.119 300.879C502.408 300.879 506.446 290.783 507.793 282.032C509.139 273.282 506.446 216.876 506.446 216.876L502.139 216.472Z" fill="url(#paint44_linear_1_613)"/>
<path d="M516.678 210.279C516.678 210.279 508.735 216.337 500.119 209.741C500.119 209.741 501.196 207.721 501.331 207.318C501.869 206.51 502.677 204.625 503.35 202.202C503.35 202.067 503.485 201.798 503.485 201.663C503.619 200.856 503.754 200.048 503.889 199.24C504.023 197.759 504.023 196.009 503.754 194.125L504.562 193.452L518.293 182.682L519.909 181.47C519.909 181.47 519.505 184.028 518.832 187.932C518.428 190.086 518.024 192.644 517.62 195.336C516.947 200.721 516.678 210.279 516.678 210.279Z" fill="url(#paint45_linear_1_613)"/>
<path opacity="0.5" d="M513.716 195.471C511.697 198.298 507.254 204.087 501.465 207.183C502.004 206.375 502.812 204.491 503.485 202.067C502.542 202.337 501.735 202.471 500.927 202.606C500.927 201.933 501.062 201.26 500.927 200.587L501.869 200.048L503.889 199.106L514.793 193.855C514.793 193.721 514.389 194.394 513.716 195.471Z" fill="url(#paint46_linear_1_613)"/>
<path d="M492.042 173.124C492.042 173.124 490.157 178.643 494.465 182.278L495.946 173.393L492.042 173.124Z" fill="url(#paint47_linear_1_613)"/>
<path d="M515.87 192.778C515.197 193.72 514.389 194.663 513.581 195.605C512.235 197.086 510.754 198.298 509.139 199.509C506.985 200.99 505.1 201.798 503.35 202.202C502.408 202.471 501.6 202.606 500.792 202.74C497.157 203.009 495.003 201.663 495.003 201.663C491.638 196.548 491.772 188.336 492.446 182.143C492.715 179.585 493.119 177.431 493.523 175.816C493.792 174.47 494.061 173.527 494.061 173.527V173.393C495.542 165.315 506.312 165.046 513.716 169.623C514.12 169.892 514.524 170.162 514.927 170.431C516.947 171.912 518.697 173.797 519.774 176.085C521.524 179.854 520.447 184.162 518.697 187.932C518.562 188.066 518.562 188.336 518.428 188.47C517.754 189.951 516.812 191.432 515.87 192.778Z" fill="url(#paint48_linear_1_613)"/>
<path d="M516.543 165.989C516.274 162.892 514.524 160.873 512.639 159.931C505.235 156.027 499.715 164.642 491.369 161.546C486.926 159.796 487.33 172.45 492.85 175.412C498.773 178.508 503.889 177.835 507.658 176.085C507.523 177.431 507.658 179.047 508.331 180.124C508.87 181.066 510.62 182.143 511.562 182.682C511.427 184.028 511.293 185.374 511.293 186.316L512.774 187.124C513.043 186.586 513.447 185.913 513.716 185.105C513.716 185.105 515.062 181.739 517.62 182.009C520.043 182.278 518.158 191.432 517.755 195.336C517.755 195.336 523.409 191.298 525.563 179.182C527.313 168.277 521.12 163.296 516.543 165.989Z" fill="url(#paint49_linear_1_613)"/>
<path d="M526.505 256.454C526.505 256.454 514.524 275.167 510.216 276.782C501.6 280.013 477.368 280.148 468.483 280.013C466.868 280.417 463.233 282.167 461.214 282.167C460.406 282.167 459.329 281.898 458.252 281.629C457.175 281.359 456.098 281.09 455.425 280.821C453.809 280.552 451.655 279.205 451.386 278.936C451.117 278.667 450.848 277.994 450.848 277.994C450.848 277.994 450.175 277.59 449.771 277.455C449.367 277.186 449.501 276.648 449.501 276.648C448.021 276.244 448.021 275.436 448.29 275.032C448.559 274.628 449.771 274.494 449.771 274.494C449.771 274.494 449.905 273.955 450.578 273.686C451.117 273.551 455.694 273.282 455.694 273.282C456.502 273.686 459.06 275.032 460.54 274.897C462.425 274.763 463.098 273.955 462.425 273.282C461.887 272.744 460.54 272.07 460.137 271.936C460.002 271.936 460.002 271.936 460.002 271.936C460.002 271.936 456.771 270.32 455.425 269.243C454.213 268.166 454.752 267.493 455.156 267.359C455.559 267.224 459.463 267.897 460.271 268.166C461.887 268.705 468.079 271.936 468.079 271.936L502.004 262.782L508.466 250.262L526.505 256.454Z" fill="url(#paint50_linear_1_613)"/>
<path d="M524.486 264.262C524.486 264.262 521.255 264.666 511.966 259.012C508.6 256.993 505.1 253.358 505.1 253.358C508.331 246.762 510.754 241.781 518.966 225.222C522.601 217.952 530.813 217.818 530.813 217.818C530.813 217.818 537.275 220.241 537.275 233.299C537.409 243.531 530.274 254.435 524.486 264.262Z" fill="url(#paint51_linear_1_613)"/>
<path opacity="0.5" d="M509.812 347.459C509.139 350.824 508.062 355.267 507.12 359.978L505.504 328.342L509.812 347.459Z" fill="url(#paint52_linear_1_613)"/>
<path d="M516.812 207.317C516.812 207.317 512.639 210.279 504.696 210.144L507.12 215.529C507.12 215.529 514.254 215.125 517.889 210.683L516.812 207.317Z" fill="url(#paint53_linear_1_613)"/>
<path d="M501.196 207.856C501.196 207.856 502.138 209.606 504.831 210.01L502.004 214.452C502.004 214.452 500.254 213.241 499.581 209.875L501.196 207.856Z" fill="url(#paint54_linear_1_613)"/>
<path d="M504.696 210.01L501.869 214.452L502.139 216.472L506.581 216.741L507.12 215.395L504.696 210.01Z" fill="url(#paint55_linear_1_613)"/>
<path d="M634.068 411.403H613.201V488.541H634.068V411.403Z" fill="url(#paint56_linear_1_613)"/>
<path d="M670.281 393.768H649.415V488.676H670.281V393.768Z" fill="url(#paint57_linear_1_613)"/>
<path d="M706.494 375.998H685.628V488.542H706.494V375.998Z" fill="url(#paint58_linear_1_613)"/>
<path d="M742.707 358.228H721.841V488.542H742.707V358.228Z" fill="url(#paint59_linear_1_613)"/>
<path d="M741.092 311.245L710.533 321.611L719.283 326.188C708.513 337.496 673.646 370.344 619.259 386.499C619.259 386.499 682.397 380.979 726.822 334.938L729.649 344.766L741.092 311.245Z" fill="white"/>
<path d="M709.456 249.05H651.03C649.011 249.05 647.395 247.434 647.395 245.415V210.952C647.395 208.932 649.011 207.317 651.03 207.317H709.456C711.475 207.317 713.09 208.932 713.09 210.952V245.415C712.956 247.434 711.34 249.05 709.456 249.05Z" fill="url(#paint60_linear_1_613)"/>
<path d="M684.685 205.971L680.243 212.702C679.435 213.779 678.224 214.587 676.877 214.587H646.991C644.703 214.587 642.953 216.471 642.953 218.625V259.146C642.953 261.435 644.837 263.185 646.991 263.185H713.494C715.783 263.185 717.533 261.435 717.533 259.146V208.259C717.533 205.971 715.783 204.221 713.494 204.221H688.051C686.705 204.221 685.358 204.894 684.685 205.971Z" fill="url(#paint61_linear_1_613)"/>
<path d="M678.358 270.32H644.568C643.626 270.32 642.818 269.512 642.818 268.57C642.818 267.628 643.626 266.82 644.568 266.82H678.358C679.3 266.82 680.108 267.628 680.108 268.57C680.243 269.512 679.435 270.32 678.358 270.32Z" fill="url(#paint62_linear_1_613)"/>
<path d="M686.032 277.186H644.703C643.76 277.186 642.953 276.378 642.953 275.436C642.953 274.493 643.76 273.686 644.703 273.686H686.032C686.974 273.686 687.782 274.493 687.782 275.436C687.782 276.378 686.974 277.186 686.032 277.186Z" fill="url(#paint63_linear_1_613)"/>
<path d="M697.878 277.186H692.359C691.416 277.186 690.609 276.378 690.609 275.436C690.609 274.493 691.416 273.686 692.359 273.686H697.878C698.821 273.686 699.628 274.493 699.628 275.436C699.628 276.378 698.821 277.186 697.878 277.186Z" fill="url(#paint64_linear_1_613)"/>
<path d="M658.03 283.917H644.703C643.76 283.917 642.953 283.109 642.953 282.167C642.953 281.224 643.76 280.417 644.703 280.417H658.03C658.973 280.417 659.78 281.224 659.78 282.167C659.78 283.109 658.973 283.917 658.03 283.917Z" fill="url(#paint65_linear_1_613)"/>
<path d="M715.783 270.32H684.685C683.743 270.32 682.935 269.512 682.935 268.57C682.935 267.628 683.743 266.82 684.685 266.82H715.783C716.725 266.82 717.533 267.628 717.533 268.57C717.533 269.512 716.725 270.32 715.783 270.32Z" fill="url(#paint66_linear_1_613)"/>
<path d="M250.127 204.221C250.127 207.452 249.588 210.548 248.646 213.51C244.742 225.626 233.434 234.376 219.972 234.376C216.741 234.376 213.779 233.838 210.817 233.03C205.163 231.28 200.317 227.914 196.682 223.472C192.374 218.221 189.816 211.625 189.816 204.355C189.816 187.797 203.279 174.2 219.972 174.2C236.53 174.066 250.127 187.528 250.127 204.221Z" fill="url(#paint67_linear_1_613)"/>
<path d="M253.089 203.279C253.089 206.779 252.55 210.279 251.473 213.51L219.972 203.279V170.162C238.28 170.162 253.089 184.97 253.089 203.279Z" fill="url(#paint68_linear_1_613)"/>
<path d="M219.972 203.278L209.202 238.28C202.606 236.126 196.817 232.222 192.509 226.972L219.972 203.278Z" fill="url(#paint69_linear_1_613)"/>
<path d="M205.163 372.363C223.082 372.363 237.607 357.838 237.607 339.919C237.607 322.001 223.082 307.476 205.163 307.476C187.245 307.476 172.72 322.001 172.72 339.919C172.72 357.838 187.245 372.363 205.163 372.363Z" fill="url(#paint70_linear_1_613)"/>
<path d="M205.163 372.363C223.082 372.363 237.607 357.838 237.607 339.919C237.607 322.001 223.082 307.476 205.163 307.476C187.245 307.476 172.72 322.001 172.72 339.919C172.72 357.838 187.245 372.363 205.163 372.363Z" fill="#F0C97C"/>
<path d="M205.163 371.286C222.487 371.286 236.53 357.243 236.53 339.92C236.53 322.596 222.487 308.553 205.163 308.553C187.84 308.553 173.797 322.596 173.797 339.92C173.797 357.243 187.84 371.286 205.163 371.286Z" fill="url(#paint71_linear_1_613)"/>
<path d="M205.163 366.44C219.81 366.44 231.684 354.566 231.684 339.919C231.684 325.273 219.81 313.399 205.163 313.399C190.517 313.399 178.643 325.273 178.643 339.919C178.643 354.566 190.517 366.44 205.163 366.44Z" fill="#F0C97C"/>
<path d="M205.163 365.363C219.215 365.363 230.607 353.972 230.607 339.92C230.607 325.867 219.215 314.476 205.163 314.476C191.111 314.476 179.72 325.867 179.72 339.92C179.72 353.972 191.111 365.363 205.163 365.363Z" fill="url(#paint72_linear_1_613)"/>
<path d="M206.375 337.9C202.606 336.419 201.529 335.477 201.529 333.727C201.529 332.381 202.471 330.765 205.298 330.765C207.856 330.765 209.471 331.707 210.279 332.111L210.817 332.515L212.298 328.746L211.894 328.477C210.414 327.669 208.798 327.13 206.779 326.996V322.957H203.009V327.265C199.24 328.073 196.682 330.9 196.682 334.4C196.682 338.708 200.182 340.592 203.952 342.073C207.048 343.285 208.26 344.631 208.26 346.516C208.26 348.535 206.51 350.016 203.952 350.016C201.932 350.016 199.913 349.343 198.298 348.266L197.625 347.862L196.278 351.766L196.682 352.035C198.163 353.112 200.452 353.785 202.74 353.92V358.093H206.51V353.651C210.414 352.843 213.106 349.881 213.106 346.112C213.106 342.343 211.087 339.919 206.375 337.9Z" fill="#F0C97C"/>
<path d="M654.934 187.528C663.41 187.528 670.281 180.657 670.281 172.181C670.281 163.705 663.41 156.834 654.934 156.834C646.458 156.834 639.587 163.705 639.587 172.181C639.587 180.657 646.458 187.528 654.934 187.528Z" fill="url(#paint73_linear_1_613)"/>
<path d="M660.884 186.295C668.706 183.028 672.398 174.039 669.131 166.218C665.865 158.396 656.876 154.704 649.055 157.971C641.233 161.237 637.541 170.226 640.807 178.047C644.074 185.869 653.063 189.561 660.884 186.295Z" fill="#F0C97C"/>
<path d="M654.934 186.989C663.112 186.989 669.742 180.359 669.742 172.181C669.742 164.002 663.112 157.373 654.934 157.373C646.756 157.373 640.126 164.002 640.126 172.181C640.126 180.359 646.756 186.989 654.934 186.989Z" fill="url(#paint74_linear_1_613)"/>
<path d="M660.764 183.25C666.875 180.017 669.209 172.441 665.976 166.329C662.742 160.218 655.167 157.884 649.055 161.117C642.943 164.351 640.61 171.926 643.843 178.038C647.076 184.15 654.652 186.483 660.764 183.25Z" fill="#F0C97C"/>
<path d="M654.934 184.162C661.551 184.162 666.915 178.798 666.915 172.181C666.915 165.564 661.551 160.2 654.934 160.2C648.317 160.2 642.953 165.564 642.953 172.181C642.953 178.798 648.317 184.162 654.934 184.162Z" fill="url(#paint75_linear_1_613)"/>
<path d="M655.338 171.239C653.588 170.565 653.049 170.027 653.049 169.219C653.049 168.546 653.588 167.873 654.799 167.873C656.011 167.873 656.819 168.277 657.088 168.546L657.357 168.681L658.03 166.931L657.896 166.796C657.223 166.392 656.415 166.123 655.473 166.123V164.238H653.722V166.258C651.972 166.661 650.761 168.008 650.761 169.623C650.761 171.642 652.376 172.585 654.126 173.258C655.607 173.796 656.146 174.47 656.146 175.277C656.146 176.22 655.338 176.893 654.126 176.893C653.184 176.893 652.242 176.623 651.434 176.085L651.165 175.95L650.492 177.835L650.626 177.97C651.299 178.508 652.376 178.777 653.453 178.912V180.931H655.203V178.912C657.088 178.508 658.3 177.162 658.3 175.412C658.569 173.258 657.626 172.181 655.338 171.239Z" fill="#F0C97C"/>
<path d="M283.917 83.1958C295.887 83.1958 305.591 73.492 305.591 61.5217C305.591 49.5515 295.887 39.8477 283.917 39.8477C271.947 39.8477 262.243 49.5515 262.243 61.5217C262.243 73.492 271.947 83.1958 283.917 83.1958Z" fill="url(#paint76_linear_1_613)"/>
<path d="M292.098 81.5777C303.184 77.0625 308.51 64.4155 303.995 53.3298C299.48 42.2442 286.833 36.9178 275.747 41.4329C264.662 45.9481 259.335 58.5951 263.851 69.6808C268.366 80.7664 281.013 86.0928 292.098 81.5777Z" fill="#F0C97C"/>
<path d="M283.917 82.388C295.441 82.388 304.783 73.0458 304.783 61.5216C304.783 49.9975 295.441 40.6553 283.917 40.6553C272.393 40.6553 263.051 49.9975 263.051 61.5216C263.051 73.0458 272.393 82.388 283.917 82.388Z" fill="url(#paint77_linear_1_613)"/>
<path d="M290.745 77.7572C299.731 73.9996 303.969 63.6689 300.212 54.683C296.454 45.6971 286.123 41.4587 277.137 45.2163C268.152 48.9739 263.913 59.3045 267.671 68.2905C271.428 77.2764 281.759 81.5148 290.745 77.7572Z" fill="#F0C97C"/>
<path d="M283.917 78.3497C293.211 78.3497 300.745 70.8157 300.745 61.522C300.745 52.2284 293.211 44.6943 283.917 44.6943C274.623 44.6943 267.089 52.2284 267.089 61.522C267.089 70.8157 274.623 78.3497 283.917 78.3497Z" fill="url(#paint78_linear_1_613)"/>
<path d="M284.59 60.1759C282.167 59.0989 281.359 58.5604 281.359 57.3488C281.359 56.4065 282.032 55.3295 283.917 55.3295C285.667 55.3295 286.744 56.0026 287.148 56.2718L287.552 56.5411L288.494 53.9833L288.225 53.8486C287.283 53.3102 286.071 52.9063 284.859 52.9063V50.2139H282.436V53.0409C279.878 53.5794 278.263 55.4641 278.263 57.7527C278.263 60.5797 280.551 61.9259 283.109 62.8683C285.129 63.676 285.936 64.4838 285.936 65.83C285.936 67.1762 284.725 68.1185 282.975 68.1185C281.628 68.1185 280.282 67.7147 279.205 67.0416L278.801 66.7723L277.859 69.3301L278.128 69.4647C279.071 70.1379 280.686 70.6763 282.167 70.6763V73.5034H284.725V70.5417C287.283 70.0032 289.033 67.9839 289.033 65.5607C289.167 63.1375 287.821 61.5221 284.59 60.1759Z" fill="#F0C97C"/>
<path d="M619.259 363.209C633.534 363.209 645.107 351.637 645.107 337.362C645.107 323.086 633.534 311.514 619.259 311.514C604.984 311.514 593.412 323.086 593.412 337.362C593.412 351.637 604.984 363.209 619.259 363.209Z" fill="url(#paint79_linear_1_613)"/>
<path d="M629.17 361.212C642.344 355.718 648.57 340.583 643.076 327.409C637.581 314.234 622.447 308.009 609.272 313.503C596.098 318.997 589.872 334.132 595.367 347.306C600.861 360.481 615.995 366.707 629.17 361.212Z" fill="#F0C97C"/>
<path d="M644.164 337.362C644.164 351.093 632.991 362.267 619.259 362.267C605.528 362.267 594.354 351.093 594.354 337.362C594.354 323.63 605.528 312.457 619.259 312.457C632.991 312.457 644.164 323.63 644.164 337.362Z" fill="url(#paint80_linear_1_613)"/>
<path d="M627.085 356.847C637.848 352.523 643.067 340.293 638.743 329.531C634.419 318.769 622.189 313.55 611.427 317.873C600.665 322.197 595.445 334.427 599.769 345.189C604.093 355.952 616.323 361.171 627.085 356.847Z" fill="#F0C97C"/>
<path d="M619.259 357.555C630.412 357.555 639.453 348.514 639.453 337.362C639.453 326.209 630.412 317.168 619.259 317.168C608.107 317.168 599.066 326.209 599.066 337.362C599.066 348.514 608.107 357.555 619.259 357.555Z" fill="url(#paint81_linear_1_613)"/>
<path d="M620.202 335.746C617.24 334.534 616.432 333.727 616.432 332.38C616.432 331.303 617.24 329.957 619.394 329.957C621.413 329.957 622.759 330.765 623.298 331.034L623.702 331.303L624.913 328.207L624.51 328.072C623.298 327.399 621.952 326.995 620.471 326.861V323.63H617.509V326.995C614.413 327.669 612.528 329.822 612.528 332.65C612.528 336.015 615.221 337.631 618.317 338.708C620.74 339.65 621.682 340.727 621.682 342.208C621.682 343.823 620.202 345.035 618.182 345.035C616.567 345.035 614.951 344.496 613.74 343.688L613.201 343.419L612.124 346.516L612.394 346.785C613.605 347.593 615.355 348.131 617.24 348.266V351.631H620.202V348.131C623.298 347.458 625.452 345.035 625.452 342.208C625.586 339.246 623.971 337.361 620.202 335.746Z" fill="#F0C97C"/>
<path d="M304.514 476.156H203.009V488.676H304.514V476.156Z" fill="url(#paint82_linear_1_613)"/>
<path d="M290.11 476.156H287.686V488.676H290.11V476.156Z" fill="url(#paint83_linear_1_613)"/>
<path d="M297.918 476.156H295.494V488.676H297.918V476.156Z" fill="url(#paint84_linear_1_613)"/>
<path d="M212.164 476.156H209.74V488.676H212.164V476.156Z" fill="url(#paint85_linear_1_613)"/>
<path d="M219.972 476.156H217.549V488.676H219.972V476.156Z" fill="url(#paint86_linear_1_613)"/>
<path d="M227.78 476.156H225.357V488.676H227.78V476.156Z" fill="url(#paint87_linear_1_613)"/>
<path d="M235.588 476.156H233.165V488.676H235.588V476.156Z" fill="url(#paint88_linear_1_613)"/>
<path d="M243.396 476.156H240.973V488.676H243.396V476.156Z" fill="url(#paint89_linear_1_613)"/>
<path d="M251.204 476.156H248.781V488.676H251.204V476.156Z" fill="url(#paint90_linear_1_613)"/>
<path d="M258.877 476.156H256.454V488.676H258.877V476.156Z" fill="url(#paint91_linear_1_613)"/>
<path d="M266.685 476.156H264.262V488.676H266.685V476.156Z" fill="url(#paint92_linear_1_613)"/>
<path d="M274.493 476.156H272.07V488.676H274.493V476.156Z" fill="url(#paint93_linear_1_613)"/>
<path d="M282.302 476.156H279.878V488.676H282.302V476.156Z" fill="url(#paint94_linear_1_613)"/>
<path d="M315.015 461.079H213.51V473.598H315.015V461.079Z" fill="url(#paint95_linear_1_613)"/>
<path d="M300.61 461.079H298.187V473.598H300.61V461.079Z" fill="url(#paint96_linear_1_613)"/>
<path d="M308.418 461.079H305.995V473.598H308.418V461.079Z" fill="url(#paint97_linear_1_613)"/>
<path d="M222.664 461.079H220.241V473.598H222.664V461.079Z" fill="url(#paint98_linear_1_613)"/>
<path d="M230.472 461.079H228.049V473.598H230.472V461.079Z" fill="url(#paint99_linear_1_613)"/>
<path d="M238.28 461.079H235.857V473.598H238.28V461.079Z" fill="url(#paint100_linear_1_613)"/>
<path d="M246.088 461.079H243.665V473.598H246.088V461.079Z" fill="url(#paint101_linear_1_613)"/>
<path d="M253.896 461.079H251.473V473.598H253.896V461.079Z" fill="url(#paint102_linear_1_613)"/>
<path d="M261.57 461.079H259.147V473.598H261.57V461.079Z" fill="url(#paint103_linear_1_613)"/>
<path d="M269.378 461.079H266.955V473.598H269.378V461.079Z" fill="url(#paint104_linear_1_613)"/>
<path d="M277.186 461.079H274.763V473.598H277.186V461.079Z" fill="url(#paint105_linear_1_613)"/>
<path d="M284.994 461.079H282.571V473.598H284.994V461.079Z" fill="url(#paint106_linear_1_613)"/>
<path d="M292.802 461.079H290.379V473.598H292.802V461.079Z" fill="url(#paint107_linear_1_613)"/>
<path d="M298.86 446.001H197.355V458.521H298.86V446.001Z" fill="url(#paint108_linear_1_613)"/>
<path d="M284.321 446.001H281.898V458.521H284.321V446.001Z" fill="url(#paint109_linear_1_613)"/>
<path d="M292.129 446.001H289.706V458.521H292.129V446.001Z" fill="url(#paint110_linear_1_613)"/>
<path d="M206.375 446.001H203.952V458.521H206.375V446.001Z" fill="url(#paint111_linear_1_613)"/>
<path d="M214.183 446.001H211.76V458.521H214.183V446.001Z" fill="url(#paint112_linear_1_613)"/>
<path d="M221.991 446.001H219.568V458.521H221.991V446.001Z" fill="url(#paint113_linear_1_613)"/>
<path d="M229.799 446.001H227.376V458.521H229.799V446.001Z" fill="url(#paint114_linear_1_613)"/>
<path d="M237.607 446.001H235.184V458.521H237.607V446.001Z" fill="url(#paint115_linear_1_613)"/>
<path d="M245.415 446.001H242.992V458.521H245.415V446.001Z" fill="url(#paint116_linear_1_613)"/>
<path d="M253.223 446.001H250.8V458.521H253.223V446.001Z" fill="url(#paint117_linear_1_613)"/>
<path d="M260.897 446.001H258.474V458.521H260.897V446.001Z" fill="url(#paint118_linear_1_613)"/>
<path d="M268.705 446.001H266.282V458.521H268.705V446.001Z" fill="url(#paint119_linear_1_613)"/>
<path d="M276.513 446.001H274.09V458.521H276.513V446.001Z" fill="url(#paint120_linear_1_613)"/>
<path d="M300.61 430.923H199.105V443.443H300.61V430.923Z" fill="url(#paint121_linear_1_613)"/>
<path d="M286.206 430.923H283.782V443.443H286.206V430.923Z" fill="url(#paint122_linear_1_613)"/>
<path d="M294.014 430.923H291.59V443.443H294.014V430.923Z" fill="url(#paint123_linear_1_613)"/>
<path d="M208.26 430.923H205.837V443.443H208.26V430.923Z" fill="url(#paint124_linear_1_613)"/>
<path d="M216.068 430.923H213.645V443.443H216.068V430.923Z" fill="url(#paint125_linear_1_613)"/>
<path d="M223.876 430.923H221.453V443.443H223.876V430.923Z" fill="url(#paint126_linear_1_613)"/>
<path d="M231.684 430.923H229.261V443.443H231.684V430.923Z" fill="url(#paint127_linear_1_613)"/>
<path d="M239.492 430.923H237.069V443.443H239.492V430.923Z" fill="url(#paint128_linear_1_613)"/>
<path d="M247.3 430.923H244.877V443.443H247.3V430.923Z" fill="url(#paint129_linear_1_613)"/>
<path d="M254.973 430.923H252.55V443.443H254.973V430.923Z" fill="url(#paint130_linear_1_613)"/>
<path d="M262.781 430.923H260.358V443.443H262.781V430.923Z" fill="url(#paint131_linear_1_613)"/>
<path d="M270.59 430.923H268.166V443.443H270.59V430.923Z" fill="url(#paint132_linear_1_613)"/>
<path d="M278.398 430.923H275.974V443.443H278.398V430.923Z" fill="url(#paint133_linear_1_613)"/>
<path d="M118.063 166.527C118.063 168.008 116.851 169.219 115.371 169.219C113.89 169.219 112.678 168.008 112.678 166.527C112.678 165.046 113.89 163.834 115.371 163.834C116.851 163.834 118.063 165.046 118.063 166.527Z" fill="url(#paint134_linear_1_613)"/>
<path opacity="0.3" d="M230.876 48.0598C233.85 48.0598 236.261 45.6489 236.261 42.6749C236.261 39.7009 233.85 37.29 230.876 37.29C227.902 37.29 225.491 39.7009 225.491 42.6749C225.491 45.6489 227.902 48.0598 230.876 48.0598Z" fill="url(#paint135_linear_1_613)"/>
<path opacity="0.3" d="M27.3281 385.691C28.9638 385.691 30.2898 384.365 30.2898 382.729C30.2898 381.094 28.9638 379.768 27.3281 379.768C25.6924 379.768 24.3665 381.094 24.3665 382.729C24.3665 384.365 25.6924 385.691 27.3281 385.691Z" fill="url(#paint136_linear_1_613)"/>
<path d="M351.632 13.4623C351.632 15.0778 350.42 16.2894 348.804 16.2894C347.189 16.2894 345.977 15.0778 345.977 13.4623C345.977 11.8468 347.189 10.6353 348.804 10.6353C350.285 10.6353 351.632 11.8468 351.632 13.4623Z" fill="url(#paint137_linear_1_613)"/>
<path opacity="0.3" d="M541.179 40.7904C541.717 43.8867 539.025 46.5791 535.929 46.0406C534.179 45.7714 532.832 44.2906 532.428 42.5405C531.89 39.4442 534.582 36.7517 537.679 37.2902C539.429 37.5595 540.775 39.0403 541.179 40.7904Z" fill="url(#paint138_linear_1_613)"/>
<path opacity="0.3" d="M583.315 443.713C583.315 446.136 581.296 448.155 578.873 448.155C576.449 448.155 574.43 446.136 574.43 443.713C574.43 441.289 576.449 439.27 578.873 439.27C581.296 439.27 583.315 441.289 583.315 443.713Z" fill="url(#paint139_linear_1_613)"/>
<path opacity="0.3" d="M600.681 475.079C602.094 475.079 603.239 473.934 603.239 472.522C603.239 471.109 602.094 469.964 600.681 469.964C599.269 469.964 598.124 471.109 598.124 472.522C598.124 473.934 599.269 475.079 600.681 475.079Z" fill="url(#paint140_linear_1_613)"/>
<path d="M692.089 101.774C693.874 101.774 695.32 100.327 695.32 98.5429C695.32 96.7585 693.874 95.312 692.089 95.312C690.305 95.312 688.859 96.7585 688.859 98.5429C688.859 100.327 690.305 101.774 692.089 101.774Z" fill="url(#paint141_linear_1_613)"/>
<path opacity="0.3" d="M224.414 398.076C224.414 400.23 222.664 401.98 220.51 401.98C218.356 401.98 216.606 400.23 216.606 398.076C216.606 395.922 218.356 394.172 220.51 394.172C222.664 394.172 224.414 395.922 224.414 398.076Z" fill="url(#paint142_linear_1_613)"/>
<path d="M99.0814 452.059C99.0814 454.213 97.3313 455.963 95.1773 455.963C93.0234 455.963 91.2733 454.213 91.2733 452.059C91.2733 449.905 93.0234 448.155 95.1773 448.155C97.3313 448.155 99.0814 449.905 99.0814 452.059Z" fill="url(#paint143_linear_1_613)"/>
<path opacity="0.3" d="M712.821 184.566C712.821 186.72 711.071 188.47 708.917 188.47C706.763 188.47 705.013 186.72 705.013 184.566C705.013 182.412 706.763 180.662 708.917 180.662C711.206 180.662 712.821 182.412 712.821 184.566Z" fill="url(#paint144_linear_1_613)"/>
<path d="M811.768 425.943C811.768 428.097 810.018 429.847 807.864 429.847C805.71 429.847 803.96 428.097 803.96 425.943C803.96 423.789 805.71 422.039 807.864 422.039C810.018 422.039 811.768 423.789 811.768 425.943Z" fill="url(#paint145_linear_1_613)"/>
<path d="M597.72 374.517C597.72 375.729 596.777 376.671 595.566 376.671C594.354 376.671 593.412 375.729 593.412 374.517C593.412 373.306 594.354 372.363 595.566 372.363C596.777 372.363 597.72 373.306 597.72 374.517Z" fill="url(#paint146_linear_1_613)"/>
<path opacity="0.3" d="M253.089 102.716C255.245 102.716 256.993 100.968 256.993 98.8122C256.993 96.6561 255.245 94.9082 253.089 94.9082C250.932 94.9082 249.185 96.6561 249.185 98.8122C249.185 100.968 250.932 102.716 253.089 102.716Z" fill="url(#paint147_linear_1_613)"/>
<path d="M616.701 63.8106C616.701 66.7723 614.278 69.1955 611.317 69.1955C608.355 69.1955 605.932 66.7723 605.932 63.8106C605.932 60.849 608.355 58.4258 611.317 58.4258C614.413 58.4258 616.701 60.849 616.701 63.8106Z" fill="url(#paint148_linear_1_613)"/>
<path opacity="0.3" d="M826.442 331.977C829.416 331.977 831.827 329.566 831.827 326.592C831.827 323.618 829.416 321.207 826.442 321.207C823.468 321.207 821.057 323.618 821.057 326.592C821.057 329.566 823.468 331.977 826.442 331.977Z" fill="url(#paint149_linear_1_613)"/>
<path opacity="0.3" d="M774.209 466.733C775.473 466.733 776.497 465.708 776.497 464.444C776.497 463.18 775.473 462.156 774.209 462.156C772.945 462.156 771.92 463.18 771.92 464.444C771.92 465.708 772.945 466.733 774.209 466.733Z" fill="url(#paint150_linear_1_613)"/>
<path d="M698.551 300.206C698.551 303.168 696.128 305.591 693.167 305.591C690.205 305.591 687.782 303.168 687.782 300.206C687.782 297.244 690.205 294.821 693.167 294.821C696.128 294.821 698.551 297.379 698.551 300.206Z" fill="url(#paint151_linear_1_613)"/>
<path d="M139.333 357.555C141.192 357.555 142.699 356.048 142.699 354.189C142.699 352.331 141.192 350.824 139.333 350.824C137.475 350.824 135.968 352.331 135.968 354.189C135.968 356.048 137.475 357.555 139.333 357.555Z" fill="url(#paint152_linear_1_613)"/>
<path d="M762.631 178.777H759.939V176.085C759.939 175.008 759.131 174.2 758.054 174.2C756.977 174.2 756.17 175.008 756.17 176.085V178.777H753.477C752.4 178.777 751.592 179.585 751.592 180.662C751.592 181.739 752.4 182.547 753.477 182.547H756.17V185.239C756.17 186.316 756.977 187.124 758.054 187.124C759.131 187.124 759.939 186.316 759.939 185.239V182.547H762.631C763.708 182.547 764.516 181.739 764.516 180.662C764.516 179.585 763.708 178.777 762.631 178.777Z" fill="white"/>
<path d="M761.42 395.788H758.727V393.095C758.727 392.018 757.919 391.21 756.842 391.21C755.766 391.21 754.958 392.018 754.958 393.095V395.788H752.265C751.188 395.788 750.381 396.595 750.381 397.672C750.381 398.749 751.188 399.557 752.265 399.557H754.958V402.249C754.958 403.326 755.766 404.134 756.842 404.134C757.919 404.134 758.727 403.326 758.727 402.249V399.557H761.42C762.497 399.557 763.304 398.749 763.304 397.672C763.304 396.595 762.497 395.788 761.42 395.788Z" fill="white"/>
<path opacity="0.3" d="M239.896 135.429H237.203V132.737C237.203 131.66 236.396 130.852 235.319 130.852C234.242 130.852 233.434 131.66 233.434 132.737V135.429H230.741C229.664 135.429 228.857 136.237 228.857 137.314C228.857 138.391 229.664 139.199 230.741 139.199H233.434V141.891C233.434 142.968 234.242 143.776 235.319 143.776C236.396 143.776 237.203 142.968 237.203 141.891V139.199H239.896C240.973 139.199 241.78 138.391 241.78 137.314C241.78 136.237 240.973 135.429 239.896 135.429Z" fill="url(#paint153_linear_1_613)"/>
<path d="M167.873 222.395H165.181V219.703C165.181 218.626 164.373 217.818 163.296 217.818C162.219 217.818 161.411 218.626 161.411 219.703V222.395H158.719C157.642 222.395 156.834 223.203 156.834 224.28C156.834 225.357 157.642 226.164 158.719 226.164H161.411V228.857C161.411 229.934 162.219 230.742 163.296 230.742C164.373 230.742 165.181 229.934 165.181 228.857V226.164H167.873C168.95 226.164 169.758 225.357 169.758 224.28C169.758 223.203 168.815 222.395 167.873 222.395Z" fill="url(#paint154_linear_1_613)"/>
<path d="M477.233 4.57714H474.541V1.8847C474.541 0.807731 473.733 0 472.656 0C471.579 0 470.772 0.807731 470.772 1.8847V4.57714H468.079C467.002 4.57714 466.194 5.38487 466.194 6.46184C466.194 7.53881 467.002 8.34653 468.079 8.34653H470.772V11.039C470.772 12.1159 471.579 12.9237 472.656 12.9237C473.733 12.9237 474.541 12.1159 474.541 11.039V8.34653H477.233C478.31 8.34653 479.118 7.53881 479.118 6.46184C479.118 5.38487 478.31 4.57714 477.233 4.57714Z" fill="url(#paint155_linear_1_613)"/>
<defs>
<linearGradient id="paint0_linear_1_613" x1="18.8474" y1="489.944" x2="861.605" y2="489.944" gradientUnits="userSpaceOnUse">
<stop stop-color="#182C7E"/>
<stop offset="1" stop-color="#1A0048"/>
</linearGradient>
<linearGradient id="paint1_linear_1_613" x1="185.636" y1="500.265" x2="447.806" y2="500.265" gradientUnits="userSpaceOnUse">
<stop stop-color="#182C7E"/>
<stop offset="1" stop-color="#1A0048"/>
</linearGradient>
<linearGradient id="paint2_linear_1_613" x1="-167.175" y1="500.265" x2="882.086" y2="500.265" gradientUnits="userSpaceOnUse">
<stop stop-color="#182C7E"/>
<stop offset="1" stop-color="#1A0048"/>
</linearGradient>
<linearGradient id="paint3_linear_1_613" x1="-370.807" y1="500.265" x2="768.547" y2="500.265" gradientUnits="userSpaceOnUse">
<stop stop-color="#182C7E"/>
<stop offset="1" stop-color="#1A0048"/>
</linearGradient>
<linearGradient id="paint4_linear_1_613" x1="-740.415" y1="500.265" x2="1067.79" y2="500.265" gradientUnits="userSpaceOnUse">
<stop stop-color="#182C7E"/>
<stop offset="1" stop-color="#1A0048"/>
</linearGradient>
<linearGradient id="paint5_linear_1_613" x1="336.885" y1="172.813" x2="300.986" y2="184.031" gradientUnits="userSpaceOnUse">
<stop stop-color="#4EC6FD"/>
<stop offset="1" stop-color="#1AA0FE"/>
</linearGradient>
<linearGradient id="paint6_linear_1_613" x1="335.922" y1="169.732" x2="300.024" y2="180.95" gradientUnits="userSpaceOnUse">
<stop stop-color="#4EC6FD"/>
<stop offset="1" stop-color="#1AA0FE"/>
</linearGradient>
<linearGradient id="paint7_linear_1_613" x1="334.96" y1="166.651" x2="299.06" y2="177.869" gradientUnits="userSpaceOnUse">
<stop stop-color="#4EC6FD"/>
<stop offset="1" stop-color="#1AA0FE"/>
</linearGradient>
<linearGradient id="paint8_linear_1_613" x1="104.602" y1="261.248" x2="166.615" y2="298.007" gradientUnits="userSpaceOnUse">
<stop stop-color="#B5D9F8"/>
<stop offset="1" stop-color="#8EC1F8"/>
</linearGradient>
<linearGradient id="paint9_linear_1_613" x1="101.604" y1="258.434" x2="164.476" y2="295.703" gradientUnits="userSpaceOnUse">
<stop stop-color="#B5D9F8"/>
<stop offset="1" stop-color="#8EC1F8"/>
</linearGradient>
<linearGradient id="paint10_linear_1_613" x1="606.96" y1="90.3019" x2="666.2" y2="149.542" gradientUnits="userSpaceOnUse">
<stop stop-color="#B5D9F8"/>
<stop offset="1" stop-color="#8EC1F8"/>
</linearGradient>
<linearGradient id="paint11_linear_1_613" x1="657.591" y1="135.071" x2="605.447" y2="94.3775" gradientUnits="userSpaceOnUse">
<stop stop-color="#7489D6"/>
<stop offset="1" stop-color="#7C90D9"/>
</linearGradient>
<linearGradient id="paint12_linear_1_613" x1="134.858" y1="442.693" x2="219.248" y2="527.083" gradientUnits="userSpaceOnUse">
<stop stop-color="#B5D9F8"/>
<stop offset="1" stop-color="#8EC1F8"/>
</linearGradient>
<linearGradient id="paint13_linear_1_613" x1="209.886" y1="512.957" x2="132.059" y2="452.221" gradientUnits="userSpaceOnUse">
<stop stop-color="#7489D6"/>
<stop offset="1" stop-color="#7C90D9"/>
</linearGradient>
<linearGradient id="paint14_linear_1_613" x1="402.44" y1="460.64" x2="405.456" y2="479.294" gradientUnits="userSpaceOnUse">
<stop stop-color="#FFB8AB"/>
<stop offset="1" stop-color="#F99D8A"/>
</linearGradient>
<linearGradient id="paint15_linear_1_613" x1="332.13" y1="464.941" x2="328.89" y2="480.244" gradientUnits="userSpaceOnUse">
<stop stop-color="#FFB8AB"/>
<stop offset="1" stop-color="#F99D8A"/>
</linearGradient>
<linearGradient id="paint16_linear_1_613" x1="377.044" y1="327.133" x2="392.637" y2="479.253" gradientUnits="userSpaceOnUse">
<stop stop-color="#182C7E"/>
<stop offset="1" stop-color="#1A0048"/>
</linearGradient>
<linearGradient id="paint17_linear_1_613" x1="367.012" y1="347.833" x2="369.663" y2="373.69" gradientUnits="userSpaceOnUse">
<stop stop-color="#182C7E"/>
<stop offset="1" stop-color="#1A0048"/>
</linearGradient>
<linearGradient id="paint18_linear_1_613" x1="343.181" y1="331.855" x2="358.702" y2="483.27" gradientUnits="userSpaceOnUse">
<stop stop-color="#182C7E"/>
<stop offset="1" stop-color="#1A0048"/>
</linearGradient>
<linearGradient id="paint19_linear_1_613" x1="439.388" y1="265.911" x2="466.09" y2="271.252" gradientUnits="userSpaceOnUse">
<stop stop-color="#FFB8AB"/>
<stop offset="1" stop-color="#F99D8A"/>
</linearGradient>
<linearGradient id="paint20_linear_1_613" x1="420.401" y1="242.344" x2="331.094" y2="329.468" gradientUnits="userSpaceOnUse">
<stop stop-color="#182C7E"/>
<stop offset="1" stop-color="#1A0048"/>
</linearGradient>
<linearGradient id="paint21_linear_1_613" x1="368.698" y1="169.455" x2="364.088" y2="216.607" gradientUnits="userSpaceOnUse">
<stop stop-color="#FFB8AB"/>
<stop offset="1" stop-color="#F99D8A"/>
</linearGradient>
<linearGradient id="paint22_linear_1_613" x1="368.604" y1="170.849" x2="368.604" y2="216.862" gradientUnits="userSpaceOnUse">
<stop stop-color="#FFB8AB"/>
<stop offset="1" stop-color="#F99D8A"/>
</linearGradient>
<linearGradient id="paint23_linear_1_613" x1="368.429" y1="146.258" x2="371.358" y2="191.487" gradientUnits="userSpaceOnUse">
<stop stop-color="#3945BA"/>
<stop offset="1" stop-color="#0C176F"/>
</linearGradient>
<linearGradient id="paint24_linear_1_613" x1="394.279" y1="481.877" x2="432.048" y2="481.877" gradientUnits="userSpaceOnUse">
<stop stop-color="#002E7E"/>
<stop offset="1" stop-color="#151A6D"/>
</linearGradient>
<linearGradient id="paint25_linear_1_613" x1="311.078" y1="482.969" x2="339.019" y2="482.969" gradientUnits="userSpaceOnUse">
<stop stop-color="#002E7E"/>
<stop offset="1" stop-color="#151A6D"/>
</linearGradient>
<linearGradient id="paint26_linear_1_613" x1="351.861" y1="224.193" x2="399.689" y2="322.664" gradientUnits="userSpaceOnUse">
<stop stop-color="#6DB0FF"/>
<stop offset="1" stop-color="#4B56BB"/>
</linearGradient>
<linearGradient id="paint27_linear_1_613" x1="353.211" y1="216.331" x2="373.236" y2="216.331" gradientUnits="userSpaceOnUse">
<stop stop-color="#B5D9F8"/>
<stop offset="1" stop-color="#8EC1F8"/>
</linearGradient>
<linearGradient id="paint28_linear_1_613" x1="377.877" y1="208.068" x2="373.155" y2="223.692" gradientUnits="userSpaceOnUse">
<stop stop-color="#B5D9F8"/>
<stop offset="1" stop-color="#8EC1F8"/>
</linearGradient>
<linearGradient id="paint29_linear_1_613" x1="369.137" y1="217.773" x2="374.974" y2="229.791" gradientUnits="userSpaceOnUse">
<stop stop-color="#6DB0FF"/>
<stop offset="1" stop-color="#4B56BB"/>
</linearGradient>
<linearGradient id="paint30_linear_1_613" x1="365.714" y1="211.84" x2="365.714" y2="328.586" gradientUnits="userSpaceOnUse">
<stop stop-color="#182C7E"/>
<stop offset="1" stop-color="#1A0048"/>
</linearGradient>
<linearGradient id="paint31_linear_1_613" x1="297.983" y1="264.086" x2="462.192" y2="264.086" gradientUnits="userSpaceOnUse">
<stop stop-color="#182C7E"/>
<stop offset="1" stop-color="#1A0048"/>
</linearGradient>
<linearGradient id="paint32_linear_1_613" x1="316.224" y1="274.213" x2="349.531" y2="321.083" gradientUnits="userSpaceOnUse">
<stop stop-color="#B5D9F8"/>
<stop offset="1" stop-color="#8EC1F8"/>
</linearGradient>
<linearGradient id="paint33_linear_1_613" x1="337.294" y1="318.963" x2="310.538" y2="240.267" gradientUnits="userSpaceOnUse">
<stop stop-color="#FFB8AB"/>
<stop offset="1" stop-color="#F99D8A"/>
</linearGradient>
<linearGradient id="paint34_linear_1_613" x1="317.881" y1="211.84" x2="317.881" y2="328.586" gradientUnits="userSpaceOnUse">
<stop stop-color="#182C7E"/>
<stop offset="1" stop-color="#1A0048"/>
</linearGradient>
<linearGradient id="paint35_linear_1_613" x1="367.76" y1="218.189" x2="376.516" y2="307.98" gradientUnits="userSpaceOnUse">
<stop stop-color="#184AA7"/>
<stop offset="1" stop-color="#190E5B"/>
</linearGradient>
<linearGradient id="paint36_linear_1_613" x1="496.618" y1="343.623" x2="410.65" y2="187.152" gradientUnits="userSpaceOnUse">
<stop stop-color="#FFC39A"/>
<stop offset="1" stop-color="#E8A38C"/>
</linearGradient>
<linearGradient id="paint37_linear_1_613" x1="552.428" y1="474.232" x2="445.867" y2="474.232" gradientUnits="userSpaceOnUse">
<stop stop-color="#FCCFB0"/>
<stop offset="1" stop-color="#FCBA97"/>
</linearGradient>
<linearGradient id="paint38_linear_1_613" x1="510.029" y1="277.364" x2="473.568" y2="211" gradientUnits="userSpaceOnUse">
<stop stop-color="#435FEA"/>
<stop offset="1" stop-color="#008EFF"/>
</linearGradient>
<linearGradient id="paint39_linear_1_613" x1="488.441" y1="232.76" x2="474.706" y2="249.928" gradientUnits="userSpaceOnUse">
<stop stop-color="#FFC39A"/>
<stop offset="1" stop-color="#E8A38C"/>
</linearGradient>
<linearGradient id="paint40_linear_1_613" x1="483.44" y1="284.449" x2="503.542" y2="471.758" gradientUnits="userSpaceOnUse">
<stop stop-color="#002E66"/>
<stop offset="1" stop-color="#1A0048"/>
</linearGradient>
<linearGradient id="paint41_linear_1_613" x1="552.422" y1="468.593" x2="445.88" y2="468.593" gradientUnits="userSpaceOnUse">
<stop stop-color="#FCCFB0"/>
<stop offset="1" stop-color="#FCBA97"/>
</linearGradient>
<linearGradient id="paint42_linear_1_613" x1="520.765" y1="283.239" x2="540.614" y2="468.193" gradientUnits="userSpaceOnUse">
<stop stop-color="#002E66"/>
<stop offset="1" stop-color="#1A0048"/>
</linearGradient>
<linearGradient id="paint43_linear_1_613" x1="536.279" y1="312.598" x2="471.382" y2="194.479" gradientUnits="userSpaceOnUse">
<stop stop-color="#435FEA"/>
<stop offset="1" stop-color="#008EFF"/>
</linearGradient>
<linearGradient id="paint44_linear_1_613" x1="498.831" y1="208.57" x2="500.971" y2="311.328" gradientUnits="userSpaceOnUse">
<stop stop-color="#3945BA"/>
<stop offset="1" stop-color="#0C176F"/>
</linearGradient>
<linearGradient id="paint45_linear_1_613" x1="490.521" y1="193.075" x2="519.997" y2="198.094" gradientUnits="userSpaceOnUse">
<stop stop-color="#FFC39A"/>
<stop offset="1" stop-color="#E8A38C"/>
</linearGradient>
<linearGradient id="paint46_linear_1_613" x1="500.929" y1="200.51" x2="514.797" y2="200.51" gradientUnits="userSpaceOnUse">
<stop stop-color="#FFC39A"/>
<stop offset="1" stop-color="#E8A38C"/>
</linearGradient>
<linearGradient id="paint47_linear_1_613" x1="491.604" y1="177.696" x2="495.916" y2="177.696" gradientUnits="userSpaceOnUse">
<stop stop-color="#3945BA"/>
<stop offset="1" stop-color="#0C176F"/>
</linearGradient>
<linearGradient id="paint48_linear_1_613" x1="492.856" y1="182.979" x2="520.878" y2="187.751" gradientUnits="userSpaceOnUse">
<stop stop-color="#FFC39A"/>
<stop offset="1" stop-color="#E8A38C"/>
</linearGradient>
<linearGradient id="paint49_linear_1_613" x1="488.283" y1="177.016" x2="525.795" y2="177.016" gradientUnits="userSpaceOnUse">
<stop stop-color="#3945BA"/>
<stop offset="1" stop-color="#0C176F"/>
</linearGradient>
<linearGradient id="paint50_linear_1_613" x1="448.182" y1="266.168" x2="526.508" y2="266.168" gradientUnits="userSpaceOnUse">
<stop stop-color="#FFC39A"/>
<stop offset="1" stop-color="#E8A38C"/>
</linearGradient>
<linearGradient id="paint51_linear_1_613" x1="471.938" y1="199.839" x2="536.703" y2="250.153" gradientUnits="userSpaceOnUse">
<stop stop-color="#435FEA"/>
<stop offset="1" stop-color="#008EFF"/>
</linearGradient>
<linearGradient id="paint52_linear_1_613" x1="502.865" y1="330.346" x2="509.352" y2="357.164" gradientUnits="userSpaceOnUse">
<stop stop-color="#2E2A87"/>
<stop offset="1" stop-color="#000E42"/>
</linearGradient>
<linearGradient id="paint53_linear_1_613" x1="525.299" y1="206.669" x2="505.333" y2="213.247" gradientUnits="userSpaceOnUse">
<stop stop-color="#435FEA"/>
<stop offset="1" stop-color="#008EFF"/>
</linearGradient>
<linearGradient id="paint54_linear_1_613" x1="507.907" y1="209.094" x2="499.859" y2="211.746" gradientUnits="userSpaceOnUse">
<stop stop-color="#435FEA"/>
<stop offset="1" stop-color="#008EFF"/>
</linearGradient>
<linearGradient id="paint55_linear_1_613" x1="504.441" y1="209.408" x2="504.613" y2="217.649" gradientUnits="userSpaceOnUse">
<stop stop-color="#3945BA"/>
<stop offset="1" stop-color="#0C176F"/>
</linearGradient>
<linearGradient id="paint56_linear_1_613" x1="623.634" y1="347.919" x2="623.634" y2="513.59" gradientUnits="userSpaceOnUse">
<stop stop-color="#4EC6FD"/>
<stop offset="0.00461489" stop-color="#4EC6FD"/>
<stop offset="1" stop-color="#008EFF"/>
</linearGradient>
<linearGradient id="paint57_linear_1_613" x1="659.852" y1="347.919" x2="659.852" y2="513.591" gradientUnits="userSpaceOnUse">
<stop stop-color="#4EC6FD"/>
<stop offset="0.00461489" stop-color="#4EC6FD"/>
<stop offset="1" stop-color="#008EFF"/>
</linearGradient>
<linearGradient id="paint58_linear_1_613" x1="696.07" y1="347.919" x2="696.07" y2="513.591" gradientUnits="userSpaceOnUse">
<stop stop-color="#4EC6FD"/>
<stop offset="0.00461489" stop-color="#4EC6FD"/>
<stop offset="1" stop-color="#008EFF"/>
</linearGradient>
<linearGradient id="paint59_linear_1_613" x1="732.288" y1="347.919" x2="732.288" y2="513.591" gradientUnits="userSpaceOnUse">
<stop stop-color="#4EC6FD"/>
<stop offset="0.00461489" stop-color="#4EC6FD"/>
<stop offset="1" stop-color="#008EFF"/>
</linearGradient>
<linearGradient id="paint60_linear_1_613" x1="636.384" y1="203.119" x2="723.194" y2="252.983" gradientUnits="userSpaceOnUse">
<stop stop-color="white"/>
<stop offset="1" stop-color="#DEE3FC"/>
</linearGradient>
<linearGradient id="paint61_linear_1_613" x1="632.157" y1="206.109" x2="731.768" y2="263.328" gradientUnits="userSpaceOnUse">
<stop stop-color="#49D5FF"/>
<stop offset="1" stop-color="#00BBFF"/>
</linearGradient>
<linearGradient id="paint62_linear_1_613" x1="642.345" y1="257.534" x2="680.38" y2="279.382" gradientUnits="userSpaceOnUse">
<stop stop-color="white"/>
<stop offset="1" stop-color="#DEE3FC"/>
</linearGradient>
<linearGradient id="paint63_linear_1_613" x1="642.292" y1="262.135" x2="687.928" y2="288.349" gradientUnits="userSpaceOnUse">
<stop stop-color="white"/>
<stop offset="1" stop-color="#DEE3FC"/>
</linearGradient>
<linearGradient id="paint64_linear_1_613" x1="690.2" y1="272.554" x2="699.905" y2="278.128" gradientUnits="userSpaceOnUse">
<stop stop-color="white"/>
<stop offset="1" stop-color="#DEE3FC"/>
</linearGradient>
<linearGradient id="paint65_linear_1_613" x1="642.488" y1="277.088" x2="660.025" y2="287.161" gradientUnits="userSpaceOnUse">
<stop stop-color="white"/>
<stop offset="1" stop-color="#DEE3FC"/>
</linearGradient>
<linearGradient id="paint66_linear_1_613" x1="682.329" y1="258.303" x2="717.71" y2="278.627" gradientUnits="userSpaceOnUse">
<stop stop-color="white"/>
<stop offset="1" stop-color="#DEE3FC"/>
</linearGradient>
<linearGradient id="paint67_linear_1_613" x1="248.937" y1="227.88" x2="186.338" y2="176.724" gradientUnits="userSpaceOnUse">
<stop stop-color="#89D7FF"/>
<stop offset="0.2174" stop-color="#9CDDFE"/>
<stop offset="1" stop-color="#DEF1FB"/>
</linearGradient>
<linearGradient id="paint68_linear_1_613" x1="219.964" y1="191.844" x2="253.042" y2="191.844" gradientUnits="userSpaceOnUse">
<stop stop-color="#06B1FD"/>
<stop offset="1" stop-color="#0084FF"/>
</linearGradient>
<linearGradient id="paint69_linear_1_613" x1="205.951" y1="167.777" x2="206.4" y2="236.434" gradientUnits="userSpaceOnUse">
<stop stop-color="#1AD2FF"/>
<stop offset="1" stop-color="#0063FF"/>
</linearGradient>
<linearGradient id="paint70_linear_1_613" x1="172.733" y1="339.889" x2="237.68" y2="339.889" gradientUnits="userSpaceOnUse">
<stop stop-color="#FFE16F"/>
<stop offset="1" stop-color="#FFBB3F"/>
</linearGradient>
<linearGradient id="paint71_linear_1_613" x1="180.049" y1="310.168" x2="220.353" y2="357.783" gradientUnits="userSpaceOnUse">
<stop stop-color="#FFE16F"/>
<stop offset="1" stop-color="#FFBB3F"/>
</linearGradient>
<linearGradient id="paint72_linear_1_613" x1="177.067" y1="311.749" x2="228.945" y2="363.627" gradientUnits="userSpaceOnUse">
<stop stop-color="#FFE16F"/>
<stop offset="1" stop-color="#FFBB3F"/>
</linearGradient>
<linearGradient id="paint73_linear_1_613" x1="639.535" y1="172.168" x2="670.211" y2="172.168" gradientUnits="userSpaceOnUse">
<stop stop-color="#FFE16F"/>
<stop offset="1" stop-color="#FFBB3F"/>
</linearGradient>
<linearGradient id="paint74_linear_1_613" x1="642.99" y1="158.13" x2="662.027" y2="180.62" gradientUnits="userSpaceOnUse">
<stop stop-color="#FFE16F"/>
<stop offset="1" stop-color="#FFBB3F"/>
</linearGradient>
<linearGradient id="paint75_linear_1_613" x1="641.581" y1="158.877" x2="666.085" y2="183.38" gradientUnits="userSpaceOnUse">
<stop stop-color="#FFE16F"/>
<stop offset="1" stop-color="#FFBB3F"/>
</linearGradient>
<linearGradient id="paint76_linear_1_613" x1="262.266" y1="61.4679" x2="305.491" y2="61.4679" gradientUnits="userSpaceOnUse">
<stop stop-color="#FFE16F"/>
<stop offset="1" stop-color="#FFBB3F"/>
</linearGradient>
<linearGradient id="paint77_linear_1_613" x1="267.134" y1="41.6862" x2="293.959" y2="73.3773" gradientUnits="userSpaceOnUse">
<stop stop-color="#FFE16F"/>
<stop offset="1" stop-color="#FFBB3F"/>
</linearGradient>
<linearGradient id="paint78_linear_1_613" x1="265.15" y1="42.7394" x2="299.678" y2="77.2672" gradientUnits="userSpaceOnUse">
<stop stop-color="#FFE16F"/>
<stop offset="1" stop-color="#FFBB3F"/>
</linearGradient>
<linearGradient id="paint79_linear_1_613" x1="593.47" y1="337.344" x2="645.039" y2="337.344" gradientUnits="userSpaceOnUse">
<stop stop-color="#FFE16F"/>
<stop offset="1" stop-color="#FFBB3F"/>
</linearGradient>
<linearGradient id="paint80_linear_1_613" x1="599.278" y1="313.744" x2="631.281" y2="351.553" gradientUnits="userSpaceOnUse">
<stop stop-color="#FFE16F"/>
<stop offset="1" stop-color="#FFBB3F"/>
</linearGradient>
<linearGradient id="paint81_linear_1_613" x1="596.911" y1="315.001" x2="638.103" y2="356.193" gradientUnits="userSpaceOnUse">
<stop stop-color="#FFE16F"/>
<stop offset="1" stop-color="#FFBB3F"/>
</linearGradient>
<linearGradient id="paint82_linear_1_613" x1="203.061" y1="482.392" x2="304.58" y2="482.392" gradientUnits="userSpaceOnUse">
<stop stop-color="#FFE16F"/>
<stop offset="1" stop-color="#FFBB3F"/>
</linearGradient>
<linearGradient id="paint83_linear_1_613" x1="207.073" y1="482.394" x2="311.385" y2="482.394" gradientUnits="userSpaceOnUse">
<stop stop-color="#FFE16F"/>
<stop offset="1" stop-color="#FFBB3F"/>
</linearGradient>
<linearGradient id="paint84_linear_1_613" x1="207.072" y1="482.394" x2="311.385" y2="482.394" gradientUnits="userSpaceOnUse">
<stop stop-color="#FFE16F"/>
<stop offset="1" stop-color="#FFBB3F"/>
</linearGradient>
<linearGradient id="paint85_linear_1_613" x1="207.075" y1="482.394" x2="311.377" y2="482.394" gradientUnits="userSpaceOnUse">
<stop stop-color="#FFE16F"/>
<stop offset="1" stop-color="#FFBB3F"/>
</linearGradient>
<linearGradient id="paint86_linear_1_613" x1="207.074" y1="482.394" x2="311.392" y2="482.394" gradientUnits="userSpaceOnUse">
<stop stop-color="#FFE16F"/>
<stop offset="1" stop-color="#FFBB3F"/>
</linearGradient>
<linearGradient id="paint87_linear_1_613" x1="207.074" y1="482.394" x2="311.388" y2="482.394" gradientUnits="userSpaceOnUse">
<stop stop-color="#FFE16F"/>
<stop offset="1" stop-color="#FFBB3F"/>
</linearGradient>
<linearGradient id="paint88_linear_1_613" x1="207.077" y1="482.394" x2="311.379" y2="482.394" gradientUnits="userSpaceOnUse">
<stop stop-color="#FFE16F"/>
<stop offset="1" stop-color="#FFBB3F"/>
</linearGradient>
<linearGradient id="paint89_linear_1_613" x1="207.074" y1="482.394" x2="311.387" y2="482.394" gradientUnits="userSpaceOnUse">
<stop stop-color="#FFE16F"/>
<stop offset="1" stop-color="#FFBB3F"/>
</linearGradient>
<linearGradient id="paint90_linear_1_613" x1="207.073" y1="482.394" x2="311.387" y2="482.394" gradientUnits="userSpaceOnUse">
<stop stop-color="#FFE16F"/>
<stop offset="1" stop-color="#FFBB3F"/>
</linearGradient>
<linearGradient id="paint91_linear_1_613" x1="207.076" y1="482.394" x2="311.383" y2="482.394" gradientUnits="userSpaceOnUse">
<stop stop-color="#FFE16F"/>
<stop offset="1" stop-color="#FFBB3F"/>
</linearGradient>
<linearGradient id="paint92_linear_1_613" x1="207.073" y1="482.394" x2="311.386" y2="482.394" gradientUnits="userSpaceOnUse">
<stop stop-color="#FFE16F"/>
<stop offset="1" stop-color="#FFBB3F"/>
</linearGradient>
<linearGradient id="paint93_linear_1_613" x1="207.073" y1="482.394" x2="311.386" y2="482.394" gradientUnits="userSpaceOnUse">
<stop stop-color="#FFE16F"/>
<stop offset="1" stop-color="#FFBB3F"/>
</linearGradient>
<linearGradient id="paint94_linear_1_613" x1="207.08" y1="482.394" x2="311.382" y2="482.394" gradientUnits="userSpaceOnUse">
<stop stop-color="#FFE16F"/>
<stop offset="1" stop-color="#FFBB3F"/>
</linearGradient>
<linearGradient id="paint95_linear_1_613" x1="213.541" y1="467.311" x2="315.059" y2="467.311" gradientUnits="userSpaceOnUse">
<stop stop-color="#FFE16F"/>
<stop offset="1" stop-color="#FFBB3F"/>
</linearGradient>
<linearGradient id="paint96_linear_1_613" x1="217.562" y1="467.313" x2="321.863" y2="467.313" gradientUnits="userSpaceOnUse">
<stop stop-color="#FFE16F"/>
<stop offset="1" stop-color="#FFBB3F"/>
</linearGradient>
<linearGradient id="paint97_linear_1_613" x1="217.551" y1="467.313" x2="321.865" y2="467.313" gradientUnits="userSpaceOnUse">
<stop stop-color="#FFE16F"/>
<stop offset="1" stop-color="#FFBB3F"/>
</linearGradient>
<linearGradient id="paint98_linear_1_613" x1="217.555" y1="467.313" x2="321.867" y2="467.313" gradientUnits="userSpaceOnUse">
<stop stop-color="#FFE16F"/>
<stop offset="1" stop-color="#FFBB3F"/>
</linearGradient>
<linearGradient id="paint99_linear_1_613" x1="217.556" y1="467.313" x2="321.858" y2="467.313" gradientUnits="userSpaceOnUse">
<stop stop-color="#FFE16F"/>
<stop offset="1" stop-color="#FFBB3F"/>
</linearGradient>
<linearGradient id="paint100_linear_1_613" x1="217.554" y1="467.313" x2="321.868" y2="467.313" gradientUnits="userSpaceOnUse">
<stop stop-color="#FFE16F"/>
<stop offset="1" stop-color="#FFBB3F"/>
</linearGradient>
<linearGradient id="paint101_linear_1_613" x1="217.554" y1="467.313" x2="321.867" y2="467.313" gradientUnits="userSpaceOnUse">
<stop stop-color="#FFE16F"/>
<stop offset="1" stop-color="#FFBB3F"/>
</linearGradient>
<linearGradient id="paint102_linear_1_613" x1="217.558" y1="467.313" x2="321.859" y2="467.313" gradientUnits="userSpaceOnUse">
<stop stop-color="#FFE16F"/>
<stop offset="1" stop-color="#FFBB3F"/>
</linearGradient>
<linearGradient id="paint103_linear_1_613" x1="217.554" y1="467.313" x2="321.867" y2="467.313" gradientUnits="userSpaceOnUse">
<stop stop-color="#FFE16F"/>
<stop offset="1" stop-color="#FFBB3F"/>
</linearGradient>
<linearGradient id="paint104_linear_1_613" x1="217.553" y1="467.313" x2="321.866" y2="467.313" gradientUnits="userSpaceOnUse">
<stop stop-color="#FFE16F"/>
<stop offset="1" stop-color="#FFBB3F"/>
</linearGradient>
<linearGradient id="paint105_linear_1_613" x1="217.56" y1="467.313" x2="321.861" y2="467.313" gradientUnits="userSpaceOnUse">
<stop stop-color="#FFE16F"/>
<stop offset="1" stop-color="#FFBB3F"/>
</linearGradient>
<linearGradient id="paint106_linear_1_613" x1="217.552" y1="467.313" x2="321.866" y2="467.313" gradientUnits="userSpaceOnUse">
<stop stop-color="#FFE16F"/>
<stop offset="1" stop-color="#FFBB3F"/>
</linearGradient>
<linearGradient id="paint107_linear_1_613" x1="217.553" y1="467.313" x2="321.865" y2="467.313" gradientUnits="userSpaceOnUse">
<stop stop-color="#FFE16F"/>
<stop offset="1" stop-color="#FFBB3F"/>
</linearGradient>
<linearGradient id="paint108_linear_1_613" x1="197.3" y1="452.23" x2="298.818" y2="452.23" gradientUnits="userSpaceOnUse">
<stop stop-color="#FFE16F"/>
<stop offset="1" stop-color="#FFBB3F"/>
</linearGradient>
<linearGradient id="paint109_linear_1_613" x1="201.31" y1="452.232" x2="305.625" y2="452.232" gradientUnits="userSpaceOnUse">
<stop stop-color="#FFE16F"/>
<stop offset="1" stop-color="#FFBB3F"/>
</linearGradient>
<linearGradient id="paint110_linear_1_613" x1="201.312" y1="452.232" x2="305.624" y2="452.232" gradientUnits="userSpaceOnUse">
<stop stop-color="#FFE16F"/>
<stop offset="1" stop-color="#FFBB3F"/>
</linearGradient>
<linearGradient id="paint111_linear_1_613" x1="201.314" y1="452.232" x2="305.616" y2="452.232" gradientUnits="userSpaceOnUse">
<stop stop-color="#FFE16F"/>
<stop offset="1" stop-color="#FFBB3F"/>
</linearGradient>
<linearGradient id="paint112_linear_1_613" x1="201.314" y1="452.232" x2="305.627" y2="452.232" gradientUnits="userSpaceOnUse">
<stop stop-color="#FFE16F"/>
<stop offset="1" stop-color="#FFBB3F"/>
</linearGradient>
<linearGradient id="paint113_linear_1_613" x1="201.313" y1="452.232" x2="305.626" y2="452.232" gradientUnits="userSpaceOnUse">
<stop stop-color="#FFE16F"/>
<stop offset="1" stop-color="#FFBB3F"/>
</linearGradient>
<linearGradient id="paint114_linear_1_613" x1="201.316" y1="452.232" x2="305.617" y2="452.232" gradientUnits="userSpaceOnUse">
<stop stop-color="#FFE16F"/>
<stop offset="1" stop-color="#FFBB3F"/>
</linearGradient>
<linearGradient id="paint115_linear_1_613" x1="201.313" y1="452.232" x2="305.626" y2="452.232" gradientUnits="userSpaceOnUse">
<stop stop-color="#FFE16F"/>
<stop offset="1" stop-color="#FFBB3F"/>
</linearGradient>
<linearGradient id="paint116_linear_1_613" x1="201.312" y1="452.232" x2="305.626" y2="452.232" gradientUnits="userSpaceOnUse">
<stop stop-color="#FFE16F"/>
<stop offset="1" stop-color="#FFBB3F"/>
</linearGradient>
<linearGradient id="paint117_linear_1_613" x1="201.318" y1="452.232" x2="305.619" y2="452.232" gradientUnits="userSpaceOnUse">
<stop stop-color="#FFE16F"/>
<stop offset="1" stop-color="#FFBB3F"/>
</linearGradient>
<linearGradient id="paint118_linear_1_613" x1="201.312" y1="452.232" x2="305.625" y2="452.232" gradientUnits="userSpaceOnUse">
<stop stop-color="#FFE16F"/>
<stop offset="1" stop-color="#FFBB3F"/>
</linearGradient>
<linearGradient id="paint119_linear_1_613" x1="201.312" y1="452.232" x2="305.625" y2="452.232" gradientUnits="userSpaceOnUse">
<stop stop-color="#FFE16F"/>
<stop offset="1" stop-color="#FFBB3F"/>
</linearGradient>
<linearGradient id="paint120_linear_1_613" x1="201.32" y1="452.232" x2="305.621" y2="452.232" gradientUnits="userSpaceOnUse">
<stop stop-color="#FFE16F"/>
<stop offset="1" stop-color="#FFBB3F"/>
</linearGradient>
<linearGradient id="paint121_linear_1_613" x1="199.165" y1="437.149" x2="300.684" y2="437.149" gradientUnits="userSpaceOnUse">
<stop stop-color="#FFE16F"/>
<stop offset="1" stop-color="#FFBB3F"/>
</linearGradient>
<linearGradient id="paint122_linear_1_613" x1="203.176" y1="437.151" x2="307.49" y2="437.151" gradientUnits="userSpaceOnUse">
<stop stop-color="#FFE16F"/>
<stop offset="1" stop-color="#FFBB3F"/>
</linearGradient>
<linearGradient id="paint123_linear_1_613" x1="203.187" y1="437.151" x2="307.488" y2="437.151" gradientUnits="userSpaceOnUse">
<stop stop-color="#FFE16F"/>
<stop offset="1" stop-color="#FFBB3F"/>
</linearGradient>
<linearGradient id="paint124_linear_1_613" x1="203.18" y1="437.151" x2="307.493" y2="437.151" gradientUnits="userSpaceOnUse">
<stop stop-color="#FFE16F"/>
<stop offset="1" stop-color="#FFBB3F"/>
</linearGradient>
<linearGradient id="paint125_linear_1_613" x1="203.179" y1="437.151" x2="307.492" y2="437.151" gradientUnits="userSpaceOnUse">
<stop stop-color="#FFE16F"/>
<stop offset="1" stop-color="#FFBB3F"/>
</linearGradient>
<linearGradient id="paint126_linear_1_613" x1="203.181" y1="437.151" x2="307.483" y2="437.151" gradientUnits="userSpaceOnUse">
<stop stop-color="#FFE16F"/>
<stop offset="1" stop-color="#FFBB3F"/>
</linearGradient>
<linearGradient id="paint127_linear_1_613" x1="203.178" y1="437.151" x2="307.492" y2="437.151" gradientUnits="userSpaceOnUse">
<stop stop-color="#FFE16F"/>
<stop offset="1" stop-color="#FFBB3F"/>
</linearGradient>
<linearGradient id="paint128_linear_1_613" x1="203.176" y1="437.151" x2="307.495" y2="437.151" gradientUnits="userSpaceOnUse">
<stop stop-color="#FFE16F"/>
<stop offset="1" stop-color="#FFBB3F"/>
</linearGradient>
<linearGradient id="paint129_linear_1_613" x1="203.183" y1="437.151" x2="307.484" y2="437.151" gradientUnits="userSpaceOnUse">
<stop stop-color="#FFE16F"/>
<stop offset="1" stop-color="#FFBB3F"/>
</linearGradient>
<linearGradient id="paint130_linear_1_613" x1="203.178" y1="437.151" x2="307.49" y2="437.151" gradientUnits="userSpaceOnUse">
<stop stop-color="#FFE16F"/>
<stop offset="1" stop-color="#FFBB3F"/>
</linearGradient>
<linearGradient id="paint131_linear_1_613" x1="203.177" y1="437.151" x2="307.491" y2="437.151" gradientUnits="userSpaceOnUse">
<stop stop-color="#FFE16F"/>
<stop offset="1" stop-color="#FFBB3F"/>
</linearGradient>
<linearGradient id="paint132_linear_1_613" x1="203.185" y1="437.151" x2="307.486" y2="437.151" gradientUnits="userSpaceOnUse">
<stop stop-color="#FFE16F"/>
<stop offset="1" stop-color="#FFBB3F"/>
</linearGradient>
<linearGradient id="paint133_linear_1_613" x1="203.177" y1="437.151" x2="307.49" y2="437.151" gradientUnits="userSpaceOnUse">
<stop stop-color="#FFE16F"/>
<stop offset="1" stop-color="#FFBB3F"/>
</linearGradient>
<linearGradient id="paint134_linear_1_613" x1="122.997" y1="171.609" x2="454.727" y2="392.912" gradientUnits="userSpaceOnUse">
<stop stop-color="#DDF4FF"/>
<stop offset="1" stop-color="#AFE6FF"/>
</linearGradient>
<linearGradient id="paint135_linear_1_613" x1="184.505" y1="11.7721" x2="847.74" y2="454.229" gradientUnits="userSpaceOnUse">
<stop stop-color="#DDF4FF"/>
<stop offset="1" stop-color="#AFE6FF"/>
</linearGradient>
<linearGradient id="paint136_linear_1_613" x1="-4.81439" y1="361.207" x2="223.676" y2="513.637" gradientUnits="userSpaceOnUse">
<stop stop-color="#DDF4FF"/>
<stop offset="1" stop-color="#AFE6FF"/>
</linearGradient>
<linearGradient id="paint137_linear_1_613" x1="230.267" y1="-65.5998" x2="650.089" y2="214.473" gradientUnits="userSpaceOnUse">
<stop stop-color="#DDF4FF"/>
<stop offset="1" stop-color="#D9FFFF"/>
</linearGradient>
<linearGradient id="paint138_linear_1_613" x1="532.336" y1="41.6548" x2="541.228" y2="41.6548" gradientUnits="userSpaceOnUse">
<stop stop-color="#DDF4FF"/>
<stop offset="1" stop-color="#AFE6FF"/>
</linearGradient>
<linearGradient id="paint139_linear_1_613" x1="574.404" y1="443.678" x2="583.296" y2="443.678" gradientUnits="userSpaceOnUse">
<stop stop-color="#DDF4FF"/>
<stop offset="1" stop-color="#AFE6FF"/>
</linearGradient>
<linearGradient id="paint140_linear_1_613" x1="79.8918" y1="125.059" x2="743.123" y2="567.517" gradientUnits="userSpaceOnUse">
<stop stop-color="#DDF4FF"/>
<stop offset="1" stop-color="#AFE6FF"/>
</linearGradient>
<linearGradient id="paint141_linear_1_613" x1="474.413" y1="-46.6403" x2="719.011" y2="116.535" gradientUnits="userSpaceOnUse">
<stop stop-color="#DDF4FF"/>
<stop offset="1" stop-color="#AFE6FF"/>
</linearGradient>
<linearGradient id="paint142_linear_1_613" x1="88.976" y1="310.317" x2="752.213" y2="752.774" gradientUnits="userSpaceOnUse">
<stop stop-color="#DDF4FF"/>
<stop offset="1" stop-color="#AFE6FF"/>
</linearGradient>
<linearGradient id="paint143_linear_1_613" x1="-36.35" y1="364.24" x2="626.894" y2="806.701" gradientUnits="userSpaceOnUse">
<stop stop-color="#DDF4FF"/>
<stop offset="1" stop-color="#D9FFFF"/>
</linearGradient>
<linearGradient id="paint144_linear_1_613" x1="577.416" y1="96.7269" x2="1240.65" y2="539.182" gradientUnits="userSpaceOnUse">
<stop stop-color="#DDF4FF"/>
<stop offset="1" stop-color="#AFE6FF"/>
</linearGradient>
<linearGradient id="paint145_linear_1_613" x1="676.312" y1="338.096" x2="1339.54" y2="780.551" gradientUnits="userSpaceOnUse">
<stop stop-color="#DDF4FF"/>
<stop offset="1" stop-color="#D9FFFF"/>
</linearGradient>
<linearGradient id="paint146_linear_1_613" x1="523.151" y1="326.212" x2="888.3" y2="569.812" gradientUnits="userSpaceOnUse">
<stop stop-color="#DDF4FF"/>
<stop offset="1" stop-color="#D9FFFF"/>
</linearGradient>
<linearGradient id="paint147_linear_1_613" x1="44.3108" y1="-40.423" x2="346.31" y2="161.046" gradientUnits="userSpaceOnUse">
<stop stop-color="#DDF4FF"/>
<stop offset="1" stop-color="#AFE6FF"/>
</linearGradient>
<linearGradient id="paint148_linear_1_613" x1="249.59" y1="-177.55" x2="912.824" y2="264.905" gradientUnits="userSpaceOnUse">
<stop stop-color="#DDF4FF"/>
<stop offset="1" stop-color="#AFE6FF"/>
</linearGradient>
<linearGradient id="paint149_linear_1_613" x1="285.308" y1="-34.5126" x2="948.544" y2="407.945" gradientUnits="userSpaceOnUse">
<stop stop-color="#DDF4FF"/>
<stop offset="1" stop-color="#AFE6FF"/>
</linearGradient>
<linearGradient id="paint150_linear_1_613" x1="114.795" y1="24.5406" x2="778.017" y2="466.98" gradientUnits="userSpaceOnUse">
<stop stop-color="#DDF4FF"/>
<stop offset="1" stop-color="#AFE6FF"/>
</linearGradient>
<linearGradient id="paint151_linear_1_613" x1="216.383" y1="-17.8175" x2="879.618" y2="424.639" gradientUnits="userSpaceOnUse">
<stop stop-color="#DDF4FF"/>
<stop offset="1" stop-color="#D9FFFF"/>
</linearGradient>
<linearGradient id="paint152_linear_1_613" x1="-21.1433" y1="247.18" x2="642.09" y2="689.635" gradientUnits="userSpaceOnUse">
<stop stop-color="#DDF4FF"/>
<stop offset="1" stop-color="#AFE6FF"/>
</linearGradient>
<linearGradient id="paint153_linear_1_613" x1="228.962" y1="137.379" x2="241.789" y2="137.379" gradientUnits="userSpaceOnUse">
<stop stop-color="#DDF4FF"/>
<stop offset="1" stop-color="#AFE6FF"/>
</linearGradient>
<linearGradient id="paint154_linear_1_613" x1="158.781" y1="219.788" x2="167.925" y2="228.931" gradientUnits="userSpaceOnUse">
<stop stop-color="#DDF4FF"/>
<stop offset="1" stop-color="#AFE6FF"/>
</linearGradient>
<linearGradient id="paint155_linear_1_613" x1="466.566" y1="0.324707" x2="481.631" y2="15.3895" gradientUnits="userSpaceOnUse">
<stop stop-color="#DDF4FF"/>
<stop offset="1" stop-color="#AFE6FF"/>
</linearGradient>
</defs>
</svg>
