<svg width="66" height="66" viewBox="0 0 66 66" fill="none" xmlns="http://www.w3.org/2000/svg">
<g clip-path="url(#clip0_1_2056)">
<path fill-rule="evenodd" clip-rule="evenodd" d="M0 0H66V66H0V0Z" fill="#004775"/>
<path fill-rule="evenodd" clip-rule="evenodd" d="M9.43556 52.3321L11.0106 45.6779H9.08118L9.35681 44.4182H14.6723L14.3966 45.6779H12.625L11.05 52.3321H9.43556ZM17.507 50.3633C17.3889 51.8206 16.562 52.5287 15.1054 52.5287C13.6879 52.5287 12.9794 51.938 12.9794 50.7571C12.9794 50.5606 13.0188 50.2062 13.0582 49.8514C13.2551 48.7486 13.4519 48.0011 13.6094 47.6467C14.082 46.6623 14.751 46.2686 16.011 46.2686C17.3892 46.2686 18.0189 46.7414 18.0189 47.883C18.0189 48.3165 17.9405 48.8674 17.7433 49.5368H14.6329C14.5148 50.1668 14.436 50.5606 14.436 50.7968C14.436 51.269 14.6723 51.5056 15.1448 51.5056C15.6957 51.5056 15.9713 51.1512 16.0895 50.3633H17.507ZM16.562 47.8436C16.562 47.4505 16.3257 47.253 15.8926 47.253C15.2626 47.253 15.0263 47.6467 14.8294 48.5918H16.4435C16.5226 48.2767 16.562 48.0011 16.562 47.8436ZM20.2236 52.49C18.8064 52.49 18.1764 51.9384 18.1764 50.7177C18.1764 50.3633 18.2551 49.8518 18.3733 49.1427C18.5702 48.3161 18.767 47.6467 19.1608 47.1352C19.5546 46.5438 20.2236 46.2686 21.0899 46.2686C22.4287 46.2686 23.0981 46.8592 23.0981 47.9617C23.0981 48.1189 23.0981 48.3161 23.0587 48.5524H21.6021C21.6415 48.2767 21.6809 48.1189 21.6809 47.9617C21.6809 47.5283 21.4446 47.2923 21.0115 47.2923C20.539 47.2923 20.3421 47.6073 20.1455 48.2767C19.7912 49.4183 19.6337 50.2062 19.6337 50.7177C19.6337 51.23 19.7912 51.5056 20.2637 51.5056C20.7756 51.5056 21.0906 51.0327 21.2087 50.0877H22.7047C22.4681 51.7415 21.7199 52.49 20.2236 52.49ZM23.0977 52.3321L24.9481 44.4576H26.4834L25.8928 46.8592C26.3653 46.4661 26.8378 46.2686 27.3497 46.2686C28.1762 46.2686 28.6097 46.6623 28.6097 47.3714C28.6097 47.568 28.5703 47.8042 28.4916 48.0795L27.5072 52.3321H25.9719L26.9563 48.2374C26.9956 48.0408 27.035 47.883 27.035 47.7652C27.035 47.4502 26.8381 47.253 26.4837 47.253C25.9719 47.253 25.7356 47.6073 25.5387 48.3161L24.594 52.3321H23.0977ZM28.6101 52.3321L30.0273 46.4658H31.4054L31.2873 46.938C31.8386 46.5052 32.3505 46.2686 32.9014 46.2686C33.7286 46.2686 34.1611 46.6623 34.1611 47.3714C34.1611 47.568 34.1217 47.8042 34.0433 48.0795L33.0589 52.3321H31.5236L32.508 48.2374C32.5473 48.0408 32.5867 47.883 32.5867 47.7652C32.5867 47.4502 32.3898 47.253 32.0354 47.253C31.5236 47.253 31.2483 47.6073 31.0908 48.3161L30.1457 52.3321H28.6101ZM34.713 49.1427C34.9096 48.3555 35.0674 47.6861 35.5002 47.0955C35.894 46.5438 36.5634 46.2682 37.469 46.2682C38.8862 46.2682 39.6344 46.8589 39.6344 48.0792C39.6344 48.4729 39.5556 48.9852 39.3985 49.6152C39.2012 50.4811 38.965 51.1505 38.6106 51.6624C38.2562 52.2133 37.5478 52.5283 36.6418 52.5283C35.2246 52.5283 34.5158 51.8983 34.5158 50.6383C34.5158 50.324 34.5946 49.8124 34.713 49.1427ZM36.4449 48.2767C36.0905 49.5762 35.9333 50.4027 35.9333 50.7571C35.9333 51.308 36.1693 51.5056 36.6812 51.5056C37.2328 51.5056 37.4296 51.1906 37.6262 50.4818C38.0199 49.1824 38.1384 48.3165 38.1384 48.0015C38.1384 47.4892 37.9412 47.253 37.4296 47.253C36.8784 47.253 36.6812 47.6073 36.4449 48.2767ZM41.3662 44.4576H42.9019L41.0125 52.3321H39.4765L41.3662 44.4576ZM42.5085 49.1427C42.6657 48.3555 42.8622 47.6861 43.2563 47.0955C43.6898 46.5438 44.3592 46.2682 45.2251 46.2682C46.6817 46.2682 47.3905 46.8589 47.3905 48.0792C47.3905 48.4729 47.3117 48.9852 47.1939 49.6152C46.9967 50.4811 46.7604 51.1505 46.406 51.6624C46.013 52.2133 45.3432 52.5283 44.4379 52.5283C42.9807 52.5283 42.2726 51.8983 42.2726 50.6383C42.2726 50.324 42.351 49.8124 42.5085 49.1427ZM44.2407 48.2767C43.8469 49.5762 43.7291 50.4027 43.7291 50.7571C43.7291 51.308 43.9257 51.5056 44.477 51.5056C44.9892 51.5056 45.1857 51.1906 45.422 50.4818C45.8157 49.1824 45.9342 48.3165 45.9342 48.0015C45.9342 47.4892 45.6983 47.253 45.1857 47.253C44.6742 47.253 44.4379 47.6073 44.2407 48.2767ZM53.0997 46.4658L51.6818 52.3715C51.3281 53.8281 50.8946 54.379 49.123 54.379C47.9808 54.379 47.3114 53.9069 47.2329 53.0796H48.6502C48.6502 53.3559 48.8467 53.4734 49.2408 53.4734C49.9102 53.4734 50.1067 53.0012 50.3039 51.938C50.068 52.2924 49.6346 52.4897 49.0836 52.4897C48.0992 52.4897 47.587 51.938 47.587 50.7568C47.587 50.4024 47.6657 50.0083 47.7448 49.4967C47.902 48.6308 48.1386 48.0008 48.3355 47.5673C48.769 46.7014 49.3593 46.3072 50.1464 46.3072C50.7765 46.3072 51.2096 46.5829 51.4065 47.1345L51.5643 46.4651H53.0997V46.4658ZM49.7136 48.0408C49.2802 49.0639 49.0836 50.1668 49.0836 50.7968C49.0836 51.3084 49.2408 51.5056 49.6346 51.5056C50.0283 51.5056 50.3039 51.269 50.5005 50.8362C50.619 50.5212 50.7761 50.0877 50.8943 49.5368C51.0908 48.8674 51.1302 48.3558 51.1302 48.0795C51.1302 47.6467 50.9336 47.4108 50.5792 47.4108C50.2249 47.4108 49.9105 47.6073 49.7136 48.0408ZM53.1788 53.2375H53.4544C53.9266 53.2375 54.1625 53.0015 54.1625 52.5287C54.1625 52.4109 54.1238 52.2531 54.1238 52.0959L53.6903 46.4658H55.1863L55.265 50.7177L57.076 46.4658H58.7298L55.5009 52.9224C55.0288 53.9069 54.7137 54.3006 53.69 54.3006C53.454 54.3006 53.2178 54.3006 52.9021 54.2219L53.1788 53.2375ZM40.9732 27.8032H37.5084V27.5669C38.1384 27.4882 38.414 27.4882 38.414 26.8581V22.1727L35.8152 27.8032H35.5396L32.9411 22.3306H32.9014V26.6219C32.9014 27.2913 33.0983 27.5275 33.9645 27.5669V27.8032H31.5236V27.5669C32.3505 27.4882 32.4686 27.37 32.4686 26.8188V22.409C32.4686 21.8971 32.2717 21.779 31.5629 21.7396V21.5033H34.1611L36.2484 25.8737L38.335 21.5033H40.9732V21.7396C40.3818 21.779 40.0281 21.779 40.0281 22.6059V26.7006C40.0281 27.4488 40.264 27.4882 40.9732 27.5669V27.8032ZM29.791 27.8032H26.0903V27.5669C26.8385 27.4882 27.0747 27.4882 27.0747 26.7006V21.8187C26.366 21.8581 25.2634 21.8974 25.0669 23.3934H24.7913V21.5033H31.0514V23.3934H30.7758C30.5395 21.8974 29.4763 21.8581 28.7676 21.8187V26.7006C28.7676 27.4882 29.0038 27.5275 29.7913 27.5669V27.8032H29.791ZM33.0986 30.2048C34.122 30.2048 35.1852 30.3623 35.7758 30.5982C37.0753 31.0707 39.3197 31.5432 41.0516 30.992C42.8238 30.4407 45.4614 30.4013 45.4614 30.4013C45.6586 29.4563 45.7764 28.4722 45.7764 27.4481C45.7764 20.4398 40.1065 14.731 33.0592 14.731H33.138C26.1297 14.731 20.4205 20.4398 20.4205 27.4481C20.4205 28.4719 20.5386 29.4563 20.7749 30.4013C20.7749 30.4013 23.3734 30.4407 25.1453 30.992C26.8779 31.5432 29.122 31.0707 30.421 30.5982C31.051 30.3623 32.0748 30.2048 33.0986 30.2048Z" fill="white"/>
<path fill-rule="evenodd" clip-rule="evenodd" d="M33.1379 32.9211C34.122 32.9211 35.1852 33.0786 35.7758 33.3149C37.0752 33.7871 39.3197 34.2599 41.0515 33.708C42.1938 33.3543 43.611 33.1964 44.4382 33.157C44.7532 32.5664 44.9892 31.9758 45.186 31.3067L45.2254 31.1886C45.2254 31.1886 42.8238 31.228 41.0519 31.7792C39.3197 32.3305 37.0756 31.858 35.7762 31.3855C35.1855 31.1495 34.1224 31.0311 33.0989 30.9917C32.0751 31.0311 31.012 31.1492 30.4217 31.3855C29.1226 31.858 26.8782 32.3305 25.1459 31.7792C23.374 31.228 20.9724 31.1886 20.9724 31.1886L21.0118 31.3067C21.2087 31.9761 21.4843 32.5667 21.7599 33.157C22.5868 33.1964 24.004 33.3543 25.1459 33.708C26.8785 34.2596 29.1226 33.7867 30.4217 33.3149C31.0123 33.0786 32.0755 32.9211 33.0989 32.9211H33.1379Z" fill="white"/>
<path fill-rule="evenodd" clip-rule="evenodd" d="M33.0987 35.7563C34.1221 35.7956 35.1853 35.9134 35.7759 36.15C37.0753 36.6222 39.3198 37.1338 41.0516 36.5431C41.406 36.4253 41.8001 36.3466 42.1939 36.2675H42.2333C42.8626 35.5981 43.4536 34.89 43.9258 34.1021L43.847 34.1809C43.0205 34.2596 41.9967 34.338 41.0516 34.6531C39.3194 35.2047 37.0753 34.7318 35.7759 34.26C35.1853 34.0241 34.1221 33.8662 33.0987 33.8662C32.0749 33.8662 31.0117 34.0241 30.4214 34.26C29.1224 34.7321 26.8779 35.205 25.1457 34.6531C24.2007 34.338 23.1769 34.26 22.35 34.1809L22.2712 34.1021C22.7438 34.89 23.3344 35.5981 23.9641 36.2675H24.0035C24.3972 36.3462 24.791 36.4253 25.1454 36.5431C26.8779 37.1338 29.122 36.6219 30.4211 36.15C31.0117 35.9134 32.0749 35.7956 33.0987 35.7563Z" fill="white"/>
<path fill-rule="evenodd" clip-rule="evenodd" d="M33.138 40.2053C35.9337 40.1659 38.5315 39.2603 40.6188 37.6856C38.965 38.04 36.9568 37.6068 35.7755 37.1734C35.1849 36.9374 34.1217 36.819 33.0983 36.7803C32.0745 36.819 31.0114 36.9374 30.4211 37.1734C29.2398 37.6068 27.2713 38.04 25.5781 37.6856C27.7041 39.2606 30.2635 40.1659 33.0983 40.2053H33.138Z" fill="white"/>
</g>
<defs>
<clipPath id="clip0_1_2056">
<rect width="66" height="66" rx="8" fill="white"/>
</clipPath>
</defs>
</svg>
