<svg width="66" height="66" viewBox="0 0 66 66" fill="none" xmlns="http://www.w3.org/2000/svg">
<path fill-rule="evenodd" clip-rule="evenodd" d="M0 8C0 3.58172 3.58172 0 8 0H58C62.4183 0 66 3.58172 66 8V58C66 62.4183 62.4183 66 58 66H8C3.58172 66 0 62.4183 0 58V8Z" fill="#255398"/>
<path fill-rule="evenodd" clip-rule="evenodd" d="M23.3045 16.0183C23.3984 15.5143 23.8215 15.1245 24.3341 15.1245C25.2048 15.1245 25.5527 15.2615 26.1639 15.5474C26.8343 15.8586 27.8797 16.804 27.8797 18.4828C27.8797 20.9464 26.3378 23.0111 23.7496 23.0111C22.9166 23.0111 21.9962 22.9741 22.1451 22.24L23.3045 16.0183ZM21.0381 22.2153C20.9135 22.9368 20.7279 23.061 20.1424 23.0857H20.0028C19.9254 23.0857 19.8588 23.1406 19.844 23.2166C19.8246 23.3164 19.9011 23.4093 20.0028 23.4091C20.7821 23.4074 21.5522 23.3969 22.3328 23.3969C22.8792 23.3969 23.4391 23.4093 23.9862 23.4093C26.8343 23.4093 29.0993 21.5805 29.0993 18.6571C29.0993 17.3012 28.5268 16.3061 27.6937 15.672C27.1223 15.2365 26.3125 14.727 24.4967 14.727C23.613 14.727 23.2398 14.7636 22.6423 14.7636C22.1911 14.7636 21.7495 14.7532 21.2996 14.7333C21.2211 14.7298 21.1517 14.7843 21.1368 14.8615C21.1179 14.959 21.1927 15.0495 21.292 15.0495H21.3371C21.9096 15.0995 22.2078 15.1742 22.2078 15.572C22.2078 15.7963 22.1835 16.1069 22.0835 16.5554L21.0381 22.2153ZM32.7611 18.8267C32.594 20.5579 30.5197 18.1233 32.259 18.1233C32.5819 18.1233 32.7692 18.3345 32.7692 18.6578C32.7692 18.7154 32.7664 18.7717 32.7611 18.8267ZM33.2384 21.8851C33.1863 21.8218 33.0913 21.8166 33.0313 21.8724C32.3565 22.4996 31.6608 22.9244 30.9774 22.9244C30.3926 22.9244 29.9574 22.5882 29.9574 21.9667C29.9574 21.3901 30.4466 20.983 31.0104 20.8618C32.2871 20.5874 33.7628 19.9417 33.7628 18.6085C33.7628 17.9243 33.104 17.7247 32.5445 17.7247C30.7415 17.7247 28.962 19.926 28.962 21.9167C28.962 22.7505 29.3486 23.5966 30.4919 23.5966C31.5509 23.5966 32.4349 22.9337 33.2338 22.0684C33.2811 22.0171 33.2828 21.9389 33.2384 21.8851ZM34.7335 22.0907C34.7215 22.141 34.6962 22.2533 34.6962 22.3399C34.6962 22.4762 34.7075 22.6012 34.8575 22.6012C35.0476 22.6012 35.4625 22.1031 35.689 21.8105C35.7494 21.7324 35.8706 21.7394 35.9199 21.825C35.9475 21.8729 35.9437 21.9322 35.9107 21.9766C35.4941 22.5365 34.8242 23.5966 34.0864 23.5966C33.7012 23.5966 33.6276 23.31 33.6276 22.9864C33.6276 22.7505 33.6765 22.5269 33.7145 22.3769L35.3655 15.2513C35.4185 15.0226 35.3112 14.7869 35.104 14.6767L34.8022 14.5161C34.7479 14.4872 34.723 14.4227 34.7439 14.3648C34.7602 14.3198 34.8009 14.2882 34.8484 14.2832C35.127 14.2537 35.404 14.211 35.6786 14.1552C35.993 14.0852 36.2755 14.0045 36.5347 13.9227C36.567 13.9125 36.6023 13.9196 36.628 13.9416C36.656 13.9655 36.6682 14.0031 36.6596 14.0388L34.7335 22.0907ZM38.2642 16.678C38.3241 16.4794 38.507 16.3435 38.7144 16.3435C39.034 16.3435 39.2605 16.6554 39.1614 16.9593L39.0606 17.269C38.9573 17.5859 39.1935 17.9113 39.5269 17.9113H39.8412C40.0113 17.9113 40.1336 18.0747 40.0859 18.2379C40.0541 18.3465 39.9544 18.4212 39.8412 18.4212H39.3702C38.9802 18.4212 38.6363 18.6768 38.524 19.0502L37.6313 22.0164C37.5946 22.1283 37.557 22.2773 37.557 22.4019C37.557 22.5509 37.6186 22.6755 37.8059 22.6755C38.2423 22.6755 38.8808 22.0609 39.2396 21.7021C39.2979 21.6438 39.3935 21.6484 39.4458 21.7121C39.4896 21.7654 39.4882 21.8424 39.4421 21.8937C38.8689 22.5317 37.9008 23.5962 37.0341 23.5962C36.6736 23.5962 36.487 23.272 36.487 22.9491C36.487 22.7005 36.5866 22.3643 36.6489 22.153L37.583 19.0071C37.6698 18.7147 37.4507 18.4212 37.1457 18.4212H36.8775C36.7075 18.4212 36.5852 18.258 36.6327 18.0949C36.6644 17.9861 36.7642 17.9113 36.8775 17.9113H37.2922C37.6486 17.9113 37.9629 17.6778 38.0657 17.3366L38.2642 16.678Z" fill="white"/>
<path fill-rule="evenodd" clip-rule="evenodd" d="M40.4805 21.8166C40.4805 20.5857 41.899 18.3091 43.2416 18.3091C43.5645 18.3091 43.8627 18.6326 43.8627 18.9439C43.8627 20.0505 42.3205 22.6754 41.1149 22.6754C40.6294 22.6754 40.4805 22.2402 40.4805 21.8166ZM44.5461 17.7369C44.468 17.9168 44.2178 17.9495 44.0477 17.8519C43.9091 17.7724 43.7528 17.7246 43.5895 17.7246C41.9857 17.7246 39.5594 20.5857 39.5594 22.5634C39.5594 23.0109 39.7467 23.5961 40.5051 23.5961C41.5008 23.5961 42.6571 22.1652 43.2912 21.2072L43.2985 21.2207C43.3012 21.2259 43.2975 21.2322 43.2916 21.2322C43.2859 21.2322 43.2821 21.2262 43.2846 21.221L43.2912 21.2072C43.3041 21.2072 43.3133 21.2197 43.3094 21.232L42.9567 22.3395C42.8437 22.6877 42.7441 23.0359 42.7441 23.2475C42.7441 23.4965 42.9807 23.5961 43.1673 23.5961C43.9005 23.5961 44.5792 22.6269 45.0607 22.0839C45.112 22.0261 45.1061 21.9366 45.0461 21.8879C44.9954 21.8467 44.9223 21.8484 44.8775 21.896C44.6508 22.1365 44.3588 22.5504 44.0377 22.5504C43.9254 22.5504 43.8877 22.4634 43.8877 22.3765C43.8877 22.2525 43.9004 22.1779 43.9377 22.0656L45.169 17.6493C45.1816 17.5993 45.1943 17.575 45.1943 17.5503C45.1943 17.5126 45.157 17.4873 45.0813 17.4873H44.8204C44.6718 17.4873 44.5978 17.6493 44.5461 17.7369ZM8.96289 28.8813C9.15624 27.8026 8.32705 26.8116 7.2312 26.8116C6.28495 26.8116 6.09894 27.593 5.94796 28.103C5.92777 28.1712 5.86479 28.2168 5.79367 28.2168C5.68886 28.2168 5.61088 28.12 5.63325 28.0176L6.01256 26.2814C6.03377 26.1843 6.1197 26.1151 6.21905 26.1151C6.25498 26.1151 6.29018 26.1246 6.32221 26.1409C6.53049 26.2468 6.76112 26.302 6.99528 26.3018H12.8288C13.0254 26.3018 13.2755 26.2692 13.4602 26.1451C13.4876 26.1268 13.5192 26.1151 13.5521 26.1151C13.6382 26.1151 13.7055 26.1895 13.6969 26.2751L13.5164 28.0891C13.5078 28.1758 13.4349 28.2418 13.3478 28.2418C13.2542 28.2418 13.1784 28.1659 13.1784 28.0723V27.9062C13.1784 27.0728 13.0157 26.8116 12.195 26.8116C11.2081 26.8116 10.3624 27.5176 10.1863 28.4887L9.28321 33.4662C9.27088 33.5785 9.17159 34.0513 9.17159 34.1749C9.17159 34.5615 9.43318 34.6605 10.0803 34.6605H10.2075C10.3089 34.6605 10.3851 34.7528 10.366 34.8523C10.3514 34.9284 10.2849 34.9834 10.2075 34.983C9.59133 34.9802 8.96586 34.9594 8.35051 34.9594C7.8816 34.9594 7.40242 34.9691 6.9303 34.9792C6.82868 34.9813 6.75105 34.8891 6.77052 34.7893C6.78512 34.7145 6.85069 34.6605 6.92694 34.6605H7.18086C7.72871 34.6731 7.96531 34.4739 8.1009 33.6901L8.96289 28.8813ZM15.408 30.4008C15.2413 32.1326 13.1667 29.6974 14.9065 29.6974C15.2294 29.6974 15.416 29.9096 15.416 30.2322C15.416 30.2898 15.4133 30.346 15.408 30.4008ZM15.8861 33.4599C15.834 33.3966 15.7391 33.3914 15.6791 33.4471C15.0043 34.0744 14.3083 34.4995 13.6252 34.4995C13.0404 34.4995 12.6052 34.1633 12.6052 33.5412C12.6052 32.9652 13.0939 32.5577 13.6571 32.4368C14.9347 32.1624 16.4113 31.5165 16.4113 30.1825C16.4113 29.4984 15.7522 29.2995 15.192 29.2995C13.3883 29.2995 11.6088 31.5015 11.6088 33.4915C11.6088 34.3249 11.9947 35.1706 13.1393 35.1706C14.1978 35.1706 15.0817 34.5074 15.8813 33.6429C15.9286 33.5918 15.9304 33.5137 15.8861 33.4599ZM21.0413 33.2993C21.083 33.353 21.0808 33.4289 21.0355 33.4796C20.243 34.3664 19.2929 35.1706 18.0528 35.1706C17.0581 35.1706 16.5356 34.4492 16.5356 33.4788C16.5356 31.7877 17.8165 30.3195 19.2844 29.7227C19.6323 29.5731 20.3164 29.2995 20.677 29.2995C20.9516 29.2995 21.2875 29.4734 21.2875 29.797C21.2875 30.1702 21.0262 30.4441 20.7153 30.4441C20.2794 30.4441 20.0802 30.0456 19.6953 30.0456C18.4387 30.0456 17.531 32.3219 17.531 33.3545C17.531 34.0633 17.9792 34.4995 18.7119 34.4995C19.5012 34.4995 20.2795 33.8505 20.8246 33.2884C20.8854 33.2257 20.9878 33.2304 21.0413 33.2993ZM22.7589 32.0693C22.7566 32.0779 22.763 32.0863 22.7719 32.0863C22.7765 32.0863 22.7807 32.0842 22.7831 32.0803C23.3218 31.2311 25.009 29.2998 26.1629 29.2998C26.8221 29.2998 27.0587 29.7723 27.0587 30.3815C27.0587 31.6377 25.5408 34.9837 24.2595 34.9837C24.0233 34.9837 23.9606 34.8601 23.9606 34.7108C23.9606 34.6358 23.9976 34.5362 24.0233 34.4612L24.1102 34.2589C24.2162 34.012 24.459 33.8521 24.7276 33.8521C24.9821 33.8521 25.2161 33.7091 25.3188 33.4762C25.6729 32.6729 26.0633 31.5128 26.0633 30.7797C26.0633 30.3565 25.939 30.0456 25.5661 30.0456C24.7074 30.0456 23.2395 31.949 22.879 32.6331C22.4557 33.4292 22.3684 33.8144 22.1318 34.7594C22.1079 34.8724 22.0206 34.9594 21.5973 34.9594C21.4354 34.9594 21.1995 34.8971 21.1995 34.7474C21.1995 34.6238 21.2495 34.4858 21.2738 34.3622L23.1555 26.6572C23.205 26.4542 23.1142 26.243 22.9328 26.1394L22.7036 26.0085C22.6594 25.9832 22.637 25.9318 22.6487 25.8822C22.6597 25.8355 22.6986 25.8006 22.7462 25.7946C22.9436 25.7698 23.2157 25.7358 23.4877 25.6923C23.774 25.6444 24.0495 25.5741 24.3345 25.4911C24.3585 25.4842 24.3842 25.485 24.4076 25.4936C24.4643 25.5144 24.4958 25.575 24.4802 25.6333L22.7589 32.0693ZM27.5832 30.9598C27.5382 30.9056 27.5374 30.8275 27.5822 30.7732C28.0688 30.1834 28.8925 29.2995 29.6708 29.2995C29.9691 29.2995 30.093 29.4857 30.093 29.7227C30.093 29.934 30.006 30.1702 29.9574 30.3195L29.3162 32.1807C29.3133 32.1891 29.3196 32.1979 29.3285 32.1979C29.3328 32.1979 29.3366 32.1961 29.339 32.1926C29.94 31.3307 31.776 29.2865 32.9921 29.2995C33.378 29.2995 33.4893 29.5357 33.4893 29.8097C33.4893 30.0083 33.4263 30.2442 33.365 30.4191L32.3707 33.1556C32.258 33.4538 32.1837 33.6524 32.1837 33.8017C32.1837 33.9517 32.2337 34.0633 32.4073 34.0633C32.7037 34.0633 33.1664 33.6066 33.3987 33.3033C33.4432 33.2452 33.5269 33.2311 33.585 33.2755C33.6416 33.3187 33.6511 33.4002 33.606 33.4553L33.2404 33.9017C32.8052 34.4372 32.1967 34.9837 31.5123 34.9837C31.1877 34.9837 31.0391 34.7978 31.0391 34.5732C31.0391 34.3746 31.0761 34.1633 31.2137 33.8021L32.1834 31.1526C32.2204 31.0409 32.346 30.7057 32.346 30.5314C32.346 30.3695 32.1964 30.2948 32.0584 30.2948C31.3626 30.2948 30.6532 31.1289 30.2427 31.5891C29.5582 32.3225 29.0237 33.1809 28.6878 34.1267L28.4392 34.8354C28.4012 34.9351 28.1283 34.9724 27.9787 34.9724C27.7024 34.9724 27.6325 34.655 27.7196 34.3927L28.7998 31.1406C28.8741 30.905 28.9497 30.6681 28.9497 30.5191C28.9497 30.3945 28.8998 30.2945 28.7498 30.2945C28.4885 30.2945 28.2526 30.4941 28.0287 30.7177L27.8063 30.9643C27.7461 31.0311 27.6406 31.0289 27.5832 30.9598ZM35.0198 33.093C35.0198 31.7247 35.6786 29.6231 37.3458 29.6231C38.4151 29.6231 38.751 30.4938 38.751 31.3768C38.751 32.6584 38.0669 34.8478 36.4624 34.8478C35.3677 34.8478 35.0198 34.0267 35.0198 33.093ZM34.0234 32.6708C34.0234 34.1753 34.9825 35.171 36.475 35.171C38.2538 35.171 39.7467 33.5788 39.7467 31.8247C39.7467 30.3945 38.801 29.2998 37.3578 29.2998C35.5543 29.2998 34.0234 30.8797 34.0234 32.6708ZM41.0399 33.6654C41.0185 33.747 41.006 33.8307 41.0026 33.9151C41.0026 34.0513 41.0146 34.1753 41.1646 34.1753C41.3542 34.1753 41.7695 33.6775 41.9965 33.3853C42.057 33.3073 42.1781 33.3146 42.2271 33.4003C42.2545 33.4481 42.2506 33.5072 42.2178 33.5514C41.8012 34.1118 41.1318 35.171 40.3938 35.171C40.008 35.171 39.9336 34.8847 39.9336 34.5619C39.9336 34.3253 39.9836 34.1017 40.0206 33.952L41.6723 26.826C41.7253 26.5976 41.6182 26.3621 41.4112 26.2519L41.1096 26.0912C41.0553 26.0623 41.0305 25.9979 41.0514 25.94C41.0676 25.8952 41.1082 25.8637 41.1557 25.8587C41.4343 25.8292 41.7114 25.7864 41.986 25.7306C42.2744 25.6653 42.5598 25.5876 42.8416 25.4979C42.8742 25.4875 42.9099 25.4947 42.9358 25.517C42.9636 25.541 42.9757 25.5784 42.9671 25.614L41.0399 33.6654ZM43.7761 33.093C43.7761 31.7247 44.4362 29.6231 46.1027 29.6231C47.1727 29.6231 47.5089 30.4938 47.5089 31.3768C47.5089 32.6584 46.8241 34.8478 45.2203 34.8478C44.125 34.8478 43.7761 34.0267 43.7761 33.093ZM42.7821 32.6708C42.7821 34.1753 43.7398 35.171 45.2309 35.171C47.0104 35.171 48.5033 33.5788 48.5033 31.8247C48.5033 30.3945 47.5576 29.2998 46.115 29.2998C44.3109 29.2998 42.7821 30.8797 42.7821 32.6708Z" fill="white"/>
<path fill-rule="evenodd" clip-rule="evenodd" d="M51.601 35.6681C51.9239 35.8308 52.2101 36.0794 52.2101 36.4153C52.2101 37.223 51.0038 37.4223 50.4063 37.4223C49.6479 37.4223 48.5163 37.124 48.5163 36.191C48.5163 36.0812 48.5475 35.9751 48.601 35.8739C49.1312 34.8719 50.5917 35.1521 51.601 35.6681ZM50.1077 33.8024C49.9841 33.7408 49.8712 33.6908 49.8712 33.5295C49.8712 33.5222 49.8721 33.5144 49.8739 33.5061C49.9548 33.1368 50.4521 33.1316 50.8302 33.1316C52.0495 33.1316 53.3428 32.2979 53.3428 30.9916C53.3428 30.9566 53.3417 30.9218 53.3397 30.8872C53.3181 30.5257 53.5644 30.2698 53.9266 30.2698C54.1251 30.2698 54.2262 30.0339 54.2262 29.81C54.2262 29.6354 54.1888 29.4491 54.0269 29.4491C53.8899 29.4491 53.7653 29.5234 53.641 29.598C53.5174 29.6723 53.3794 29.7473 53.2305 29.7473C53.1562 29.7473 53.0565 29.71 52.9702 29.685C52.3354 29.5234 52.0615 29.2998 51.327 29.2998C50.1581 29.2998 48.9015 30.2202 48.9015 31.3898C48.9015 31.5637 48.9199 31.718 48.9557 31.8568C49.1294 32.5313 48.9518 33.3182 48.9518 34.0147C48.9518 34.4386 49.0887 34.9134 48.7177 35.1184C48.182 35.4143 47.6952 35.8252 47.6952 36.3899C47.6952 37.5962 49.375 37.8205 50.257 37.8205C51.2654 37.8205 53.0319 37.3103 53.0319 36.0537C53.0319 35.3322 52.6333 35.122 52.0615 34.8104L50.1077 33.8024L52.3474 30.6811C52.3474 31.5264 51.7996 32.8077 50.8052 32.8077C50.1211 32.8077 49.8972 32.2979 49.8972 31.7011C49.8972 30.8803 50.457 29.5737 51.464 29.6237C52.1115 29.6237 52.3474 30.1582 52.3474 30.6811L50.1077 33.8024ZM54.8265 31.3108C54.7942 31.336 54.7497 31.339 54.7143 31.3183L54.6116 31.2584C54.5269 31.209 54.4738 31.1182 54.4788 31.0202C54.5198 30.2274 54.8737 29.3001 55.8176 29.3001C56.5387 29.3001 56.9591 29.9564 57.2215 30.8122C57.5878 32.007 59.1513 32.3159 59.1513 31.0663C59.1513 30.6061 59.0013 30.3948 59.0013 30.0462C59.0013 29.673 59.2013 29.3001 59.5865 29.3001C59.9477 29.3001 60.072 29.6357 60.072 29.9593C60.072 31.3279 58.0689 34.7481 57.1855 35.8681C56.6641 36.5522 55.8053 37.8208 54.8096 37.8208C54.5487 37.8208 54.2994 37.5969 54.2994 37.324C54.2994 37.0497 54.4487 36.8138 54.7476 36.8138C54.9096 36.8138 55.0705 36.9008 55.2712 36.9008C55.5441 36.9008 55.9173 36.7758 56.3278 36.3036L56.5789 36.0106C56.849 35.6953 56.9866 35.2876 56.9626 34.8731L56.8496 33.8404C56.6517 32.4095 56.2028 30.2205 55.3951 30.2205C55.0466 30.2205 54.798 30.4564 54.798 30.793C54.798 30.9414 54.8164 31.0626 54.8601 31.1954C54.8739 31.2372 54.8612 31.2837 54.8265 31.3108Z" fill="white"/>
<path fill-rule="evenodd" clip-rule="evenodd" d="M4.83032 40.215C4.83032 39.8573 5.12029 39.5674 5.47798 39.5674H60.1643C60.522 39.5674 60.812 39.8573 60.812 40.215C60.812 40.5727 60.522 40.8627 60.1643 40.8627H5.47798C5.12029 40.8627 4.83032 40.5727 4.83032 40.215Z" fill="#CC2131"/>
<path fill-rule="evenodd" clip-rule="evenodd" d="M13.1567 44.1707C12.9783 44.1707 12.854 43.9937 12.9146 43.8259C12.997 43.5978 13.3203 43.5999 13.3998 43.829C13.4578 43.9962 13.3337 44.1707 13.1567 44.1707ZM12.1998 44.9184C12.1628 45.0167 12.2355 45.1216 12.3405 45.1216C12.4038 45.1216 12.4603 45.0819 12.4818 45.0224L12.5716 44.7739C12.647 44.5652 12.8451 44.4262 13.067 44.4262H13.2396C13.46 44.4262 13.6562 44.5657 13.7286 44.7739L13.8117 45.0129C13.8343 45.078 13.8956 45.1216 13.9645 45.1216C14.0767 45.1216 14.1549 45.0101 14.1166 44.9046L13.4136 42.9651C13.377 42.8642 13.2811 42.797 13.1738 42.797C13.0676 42.797 12.9725 42.8629 12.9351 42.9623L12.1998 44.9184ZM15.1856 43.4229C15.2535 43.4229 15.3126 43.4694 15.3286 43.5353L15.354 43.6394C15.4242 43.9276 15.8337 43.9283 15.9049 43.6403L15.9203 43.5779C15.9428 43.4869 16.0245 43.4229 16.1183 43.4229C16.212 43.4229 16.2936 43.4868 16.3162 43.5778L16.3329 43.6453C16.4058 43.9394 16.8226 43.9428 16.9003 43.65L16.9338 43.5236C16.9496 43.4643 17.0033 43.4229 17.0647 43.4229C17.155 43.4229 17.22 43.5097 17.1947 43.5964L16.7897 44.9811C16.7653 45.0644 16.689 45.1216 16.6022 45.1216C16.5134 45.1216 16.4357 45.0616 16.4133 44.9756L16.3937 44.9006C16.3179 44.6097 15.9043 44.6109 15.8302 44.9023L15.8114 44.9761C15.7897 45.0617 15.7126 45.1216 15.6243 45.1216C15.5382 45.1216 15.4626 45.0646 15.4387 44.9819L15.0441 43.6109C15.017 43.5168 15.0876 43.4229 15.1856 43.4229ZM17.5097 42.9333C17.5097 42.8548 17.5733 42.7912 17.6518 42.7912C17.7303 42.7912 17.7939 42.8548 17.7939 42.9333V43.4017C17.7939 43.486 17.905 43.5243 17.9754 43.4781C18.0668 43.4192 18.1805 43.3884 18.3185 43.3884C18.5633 43.3884 18.7301 43.4733 18.8177 43.6465C18.8646 43.7393 18.8896 43.8698 18.8896 44.0365V44.9768C18.8896 45.0569 18.8246 45.1219 18.7444 45.1219C18.6643 45.1219 18.5993 45.0569 18.5993 44.9768V44.056C18.5993 43.9317 18.5835 43.8407 18.5517 43.7825C18.4993 43.69 18.402 43.6441 18.2596 43.6441C18.1411 43.6441 18.0333 43.6849 17.9367 43.7657C17.8415 43.8465 17.7936 43.9992 17.7936 44.2252V44.9798C17.7936 45.0583 17.73 45.1219 17.6515 45.1219C17.573 45.1219 17.5094 45.0583 17.5094 44.9798L17.5097 42.9333ZM19.9781 44.9364C19.8076 44.9364 19.6823 44.8754 19.6028 44.7545C19.5244 44.6347 19.4851 44.4837 19.4851 44.3026C19.4851 44.1153 19.5244 43.9533 19.6028 43.8205C19.6819 43.6866 19.8086 43.6205 19.9819 43.6205C20.1767 43.6205 20.314 43.6989 20.3945 43.8554C20.4448 43.955 20.4705 44.0841 20.4705 44.2433C20.4705 44.418 20.4349 44.5789 20.365 44.7213C20.2959 44.8641 20.1668 44.9364 19.9781 44.9364ZM19.9874 43.3771C19.7453 43.3771 19.5532 43.4606 19.4094 43.6297C19.2666 43.7982 19.1954 44.0242 19.1954 44.3084C19.1954 44.5744 19.2632 44.786 19.3991 44.9435C19.5347 45.1007 19.7189 45.1795 19.949 45.1795C20.2267 45.1795 20.4311 45.0904 20.5622 44.9127C20.6944 44.7347 20.7608 44.5087 20.7608 44.2358C20.7608 43.9537 20.6855 43.7397 20.5366 43.5938C20.3873 43.4493 20.2031 43.3771 19.9874 43.3771ZM21.1187 42.9333C21.1187 42.8548 21.1823 42.7912 21.2607 42.7912C21.3392 42.7912 21.4028 42.8548 21.4028 42.9333V44.9795C21.4028 45.058 21.3392 45.1216 21.2607 45.1216C21.1823 45.1216 21.1187 45.058 21.1187 44.9795V42.9333ZM21.8374 42.9335C21.8374 42.8549 21.901 42.7912 21.9796 42.7912C22.0582 42.7912 22.1219 42.8549 22.1219 42.9335V44.9793C22.1219 45.0579 22.0582 45.1216 21.9796 45.1216C21.901 45.1216 21.8374 45.0579 21.8374 44.9793V42.9335ZM23.5795 43.5223C23.5991 43.463 23.6546 43.4229 23.717 43.4229C23.8182 43.4229 23.889 43.5243 23.8548 43.6196C23.8074 43.7518 23.7424 43.9348 23.6589 44.1687C23.5552 44.4611 23.4703 44.6984 23.4004 44.8823C23.2347 45.3164 23.1183 45.5797 23.0498 45.6753C22.982 45.7687 22.8656 45.817 22.6995 45.817C22.6601 45.817 22.6276 45.8156 22.6067 45.8129C22.5591 45.8056 22.5273 45.7622 22.5273 45.714V45.6543C22.5273 45.599 22.5811 45.5597 22.6355 45.5695C22.6567 45.5722 22.6779 45.5736 22.6937 45.5736C22.7475 45.5736 22.7861 45.565 22.8115 45.5475C22.8361 45.5292 22.8575 45.5068 22.8748 45.4815C22.8806 45.4736 22.8988 45.4294 22.933 45.3496C22.9797 45.2348 22.9805 45.1074 22.9384 44.9908L22.4457 43.6261C22.4101 43.5274 22.4832 43.4233 22.5881 43.4233C22.6534 43.4233 22.7113 43.4651 22.7318 43.5271L22.7858 43.69C22.9035 44.0457 23.4066 44.0455 23.5242 43.6898L23.5795 43.5223ZM25.7397 44.9364C25.5685 44.9364 25.4428 44.8754 25.3641 44.7545C25.285 44.6347 25.2456 44.4837 25.2456 44.3026C25.2456 44.1153 25.285 43.9533 25.3641 43.8205C25.4428 43.6866 25.5688 43.6205 25.7424 43.6205C25.938 43.6205 26.0759 43.6989 26.1557 43.8554C26.2061 43.955 26.2307 44.0841 26.2307 44.2433C26.2307 44.418 26.1961 44.5789 26.127 44.7213C26.0575 44.8641 25.9284 44.9364 25.7397 44.9364ZM25.7486 43.3771C25.5065 43.3771 25.3134 43.4606 25.171 43.6297C25.0282 43.7982 24.9559 44.0242 24.9559 44.3084C24.9559 44.5744 25.0241 44.786 25.16 44.9435C25.2963 45.1007 25.4791 45.1795 25.7109 45.1795C25.9879 45.1795 26.1917 45.0904 26.3242 44.9127C26.456 44.7347 26.5214 44.5087 26.5214 44.2358C26.5214 43.9537 26.4475 43.7397 26.2971 43.5938C26.1468 43.4493 25.9647 43.3771 25.7486 43.3771ZM26.8894 43.4229C26.9574 43.4229 27.0166 43.4694 27.0327 43.5355L27.058 43.6394C27.1282 43.9276 27.5377 43.9283 27.6089 43.6403L27.6243 43.5779C27.6468 43.4869 27.7285 43.4229 27.8222 43.4229C27.9159 43.4229 27.9976 43.4868 28.0201 43.5778L28.0369 43.6455C28.1097 43.9396 28.5265 43.9432 28.6044 43.6504L28.6381 43.5233C28.6539 43.4641 28.7075 43.4229 28.7687 43.4229C28.8589 43.4229 28.9237 43.5095 28.8985 43.596L28.4935 44.9816C28.4692 45.0645 28.3931 45.1216 28.3067 45.1216C28.2181 45.1216 28.1408 45.0619 28.1183 44.9762L28.0984 44.9001C28.0223 44.6092 27.6088 44.6107 27.5348 44.9022L27.5161 44.976C27.4943 45.0616 27.4172 45.1216 27.3289 45.1216C27.2428 45.1216 27.1672 45.0647 27.1433 44.982L26.7477 43.6113C26.7205 43.517 26.7912 43.4229 26.8894 43.4229ZM29.2137 43.5592C29.2137 43.4839 29.2747 43.4229 29.35 43.4229H29.4231C29.458 43.4229 29.4863 43.4512 29.4863 43.4861C29.4863 43.5457 29.5649 43.5749 29.6106 43.5368C29.6526 43.5017 29.6958 43.4736 29.7403 43.4524C29.8287 43.4096 29.929 43.388 30.0372 43.388C30.2789 43.388 30.4399 43.4722 30.5237 43.64C30.5703 43.7318 30.5936 43.8633 30.5936 44.0338V44.9792C30.5936 45.0576 30.53 45.1212 30.4515 45.1212C30.373 45.1212 30.3094 45.0576 30.3094 44.9792V44.0519C30.3094 43.9489 30.294 43.8646 30.2632 43.8013C30.2125 43.6955 30.1204 43.6434 29.9865 43.6434C29.93 43.6424 29.8735 43.649 29.8187 43.663C29.741 43.6862 29.6715 43.7325 29.6123 43.8033C29.5643 43.8588 29.5328 43.917 29.5191 43.9766C29.5037 44.0369 29.4976 44.1218 29.4976 44.2327V44.9797C29.4976 45.0581 29.434 45.1216 29.3556 45.1216C29.2773 45.1216 29.2137 45.0581 29.2137 44.9797V43.5592ZM31.6274 44.1357C31.4101 44.1357 31.2235 43.9333 31.3705 43.7732C31.4592 43.6797 31.5694 43.6315 31.7013 43.6315C31.8844 43.6315 32.0156 43.7003 32.0937 43.8386C32.1761 43.9829 32.031 44.1355 31.8648 44.1356L31.6274 44.1357ZM31.7177 43.3884C31.4794 43.3884 31.2856 43.4726 31.138 43.6424C30.9898 43.8129 30.9168 44.0338 30.9168 44.3063C30.9168 44.5806 30.9901 44.7966 31.137 44.949C31.2835 45.1021 31.4623 45.1798 31.6739 45.1798C31.7595 45.1798 31.8386 45.1712 31.907 45.1545C32.0358 45.125 32.1426 45.0695 32.2286 44.9853C32.2803 44.9377 32.3265 44.8751 32.3683 44.8001C32.377 44.7853 32.385 44.7702 32.3924 44.7547C32.4306 44.6746 32.3618 44.594 32.2731 44.594C32.2083 44.594 32.1533 44.6383 32.122 44.6951C32.1034 44.7289 32.0807 44.7605 32.0543 44.7891C31.9659 44.8874 31.8464 44.9364 31.6992 44.9364C31.5393 44.9364 31.4222 44.8843 31.3462 44.7799C31.2049 44.5841 31.4242 44.3625 31.6656 44.3625H32.0901C32.2974 44.3625 32.4836 44.1912 32.4398 43.9886C32.4234 43.8824 32.3844 43.7809 32.3255 43.691C32.2607 43.596 32.1714 43.5204 32.0669 43.4722C31.9587 43.4173 31.8391 43.3886 31.7177 43.3884ZM33.0024 44.2944C33.0024 44.081 33.0455 43.9191 33.1335 43.8081C33.2215 43.6986 33.3352 43.6438 33.4763 43.6438C33.6033 43.6438 33.7091 43.6945 33.794 43.7982C33.881 43.9013 33.9238 44.0605 33.9238 44.2752C33.9238 44.4885 33.8824 44.6525 33.7995 44.7655C33.7153 44.8805 33.6088 44.9367 33.4797 44.9367C33.3126 44.9367 33.1914 44.8751 33.1161 44.7528C33.0401 44.6296 33.0024 44.4765 33.0024 44.2944ZM33.4242 43.4003C33.1914 43.4003 33.013 43.49 32.8887 43.6705C32.7634 43.8503 32.7007 44.0643 32.7007 44.3098C32.7007 44.5734 32.7699 44.7833 32.9062 44.9418C33.0442 45.101 33.2051 45.1798 33.3927 45.1798C33.5091 45.1798 33.6122 45.1565 33.7009 45.1117C33.744 45.0898 33.784 45.0616 33.8213 45.0271C33.8602 44.9911 33.9358 45.0157 33.9358 45.0687C33.9358 45.0981 33.9596 45.1219 33.989 45.1219H34.0632C34.1335 45.1219 34.1905 45.0649 34.1905 44.9946V42.9277C34.1905 42.8523 34.1294 42.7912 34.0541 42.7912C33.9787 42.7912 33.9176 42.8523 33.9176 42.9277V43.4067C33.9176 43.4863 33.8149 43.5222 33.7471 43.4805C33.6605 43.4264 33.5519 43.4003 33.4242 43.4003ZM35.5596 44.5827C35.6315 44.5827 35.6882 44.6391 35.7111 44.7072C35.7232 44.7434 35.7393 44.7742 35.7591 44.7994C35.8313 44.8912 35.957 44.9364 36.1364 44.9364C36.2432 44.9364 36.337 44.9131 36.4178 44.8682C36.4562 44.8482 36.488 44.8175 36.5095 44.78C36.531 44.7424 36.5412 44.6995 36.5391 44.6563C36.5402 44.6225 36.5316 44.5891 36.5145 44.56C36.4973 44.5309 36.4722 44.5073 36.4422 44.4919C36.4014 44.4686 36.3185 44.4419 36.1967 44.4118L35.9679 44.355C35.8228 44.319 35.7159 44.2779 35.6464 44.2344C35.5228 44.156 35.4612 44.0512 35.4612 43.9139C35.4612 43.754 35.5194 43.6243 35.6358 43.5253C35.7529 43.4257 35.9094 43.3767 36.1059 43.3767C36.3627 43.3767 36.548 43.4517 36.6623 43.602C36.7033 43.6569 36.7325 43.7143 36.7493 43.7742C36.7698 43.8475 36.7054 43.9095 36.6293 43.9095C36.556 43.9095 36.4977 43.8505 36.4646 43.7851C36.4552 43.7665 36.4441 43.7488 36.4312 43.7321C36.3638 43.6571 36.2473 43.6198 36.084 43.6198C35.9744 43.6198 35.8919 43.64 35.8358 43.6814C35.8093 43.6994 35.7877 43.7237 35.773 43.7521C35.7583 43.7805 35.7509 43.8121 35.7515 43.8441C35.7515 43.9191 35.7882 43.978 35.8625 44.0215C35.9046 44.0482 35.9683 44.0714 36.0505 44.091L36.2405 44.1379C36.4483 44.1868 36.5856 44.2348 36.6572 44.281C36.7688 44.3546 36.8236 44.469 36.8236 44.6248C36.8236 44.7758 36.7661 44.9055 36.651 45.0148C36.5353 45.1243 36.36 45.1798 36.1248 45.1798C35.8707 45.1798 35.6906 45.1223 35.5851 45.0079C35.5102 44.9274 35.4602 44.833 35.4346 44.7255C35.4164 44.6489 35.4809 44.5827 35.5596 44.5827ZM37.2807 43.4229C37.3592 43.4229 37.4228 43.4866 37.4228 43.565V44.557C37.4228 44.6446 37.4355 44.7155 37.4635 44.7703C37.5125 44.874 37.6046 44.924 37.7405 44.924C37.9337 44.924 38.0662 44.835 38.137 44.6559C38.1757 44.5604 38.1939 44.4286 38.1939 44.2615V43.565C38.1939 43.4866 38.2575 43.4229 38.336 43.4229C38.4145 43.4229 38.4781 43.4866 38.4781 43.565V44.989C38.4781 45.0622 38.4187 45.1216 38.3455 45.1216H38.2612C38.2337 45.1216 38.2116 45.0992 38.2119 45.0718C38.2125 45.0209 38.1315 44.9942 38.0928 45.0272C38.0882 45.0311 38.0836 45.035 38.0788 45.0387C37.973 45.1243 37.844 45.1685 37.6923 45.1685C37.455 45.1685 37.2944 45.0877 37.2081 44.9251C37.1612 44.8395 37.1386 44.723 37.1386 44.5785V43.565C37.1386 43.4866 37.2022 43.4229 37.2807 43.4229ZM39.6631 44.9364C39.4563 44.9364 39.3139 44.8415 39.2386 44.6522C39.1985 44.5518 39.1783 44.42 39.1783 44.2598C39.1783 44.0358 39.2273 43.8759 39.3255 43.7783C39.3703 43.7319 39.424 43.6949 39.4835 43.6697C39.5429 43.6445 39.6068 43.6316 39.6714 43.6318C39.8217 43.6318 39.9353 43.6914 40.0138 43.8098C40.0901 43.9297 40.1295 44.0786 40.1295 44.2598C40.1295 44.4631 40.0901 44.6261 40.0138 44.7501C39.9353 44.8744 39.8182 44.9364 39.6631 44.9364ZM38.9174 44.9882C38.9174 45.0619 38.9771 45.1216 39.0507 45.1216H39.1327C39.1611 45.1216 39.1841 45.0986 39.1841 45.0701C39.1841 45.0208 39.2492 44.9981 39.2847 45.0323C39.3084 45.0551 39.3313 45.074 39.3533 45.0887C39.443 45.149 39.5519 45.1798 39.6809 45.1798C39.9124 45.1798 40.0928 45.0908 40.2226 44.9124C40.3531 44.734 40.4192 44.5097 40.4192 44.2402C40.4192 43.9561 40.3517 43.7414 40.2199 43.5948C40.0887 43.449 39.9155 43.3767 39.7035 43.3767C39.6012 43.3767 39.5063 43.3979 39.42 43.4404C39.3355 43.4824 39.1954 43.427 39.1954 43.3326V42.9302C39.1954 42.8534 39.1332 42.7912 39.0564 42.7912C38.9796 42.7912 38.9174 42.8534 38.9174 42.9302V44.9882ZM40.7836 44.5827C40.8552 44.5827 40.9119 44.6382 40.9342 44.7062C40.9463 44.7429 40.9622 44.7739 40.9821 44.7994C41.0543 44.8912 41.18 44.9364 41.3601 44.9364C41.4666 44.9364 41.56 44.9131 41.6408 44.8682C41.6793 44.8483 41.7113 44.8177 41.7328 44.7801C41.7544 44.7426 41.7647 44.6995 41.7624 44.6563C41.7633 44.6225 41.7547 44.5892 41.7376 44.5601C41.7205 44.5311 41.6955 44.5074 41.6655 44.4919C41.6234 44.4686 41.5426 44.4419 41.4186 44.4118L41.1913 44.355C41.0461 44.319 40.9379 44.2779 40.8698 44.2344C40.7455 44.156 40.6838 44.0512 40.6838 43.9139C40.6838 43.754 40.742 43.6243 40.8591 43.5253C40.9762 43.4257 41.1327 43.3767 41.3286 43.3767C41.5861 43.3767 41.7713 43.4517 41.885 43.602C41.9256 43.6564 41.9547 43.7133 41.9717 43.7728C41.9928 43.8467 41.9279 43.9095 41.8511 43.9095C41.7783 43.9095 41.7201 43.8518 41.6874 43.7868C41.6778 43.7676 41.6663 43.7493 41.6532 43.7321C41.5864 43.6571 41.4714 43.6198 41.308 43.6198C41.1978 43.6198 41.1156 43.64 41.0581 43.6814C41.0317 43.6994 41.0102 43.7237 40.9956 43.7521C40.981 43.7806 40.9738 43.8122 40.9745 43.8441C40.9745 43.9191 41.0119 43.978 41.0848 44.0215C41.1283 44.0482 41.1906 44.0714 41.2734 44.091L41.4648 44.1379C41.6703 44.1868 41.81 44.2348 41.8795 44.281C41.9918 44.3546 42.0473 44.469 42.0473 44.6248C42.0473 44.7758 41.9898 44.9055 41.8754 45.0148C41.759 45.1243 41.583 45.1798 41.3477 45.1798C41.0937 45.1798 40.9136 45.1223 40.8081 45.0079C40.7341 44.9277 40.6839 44.8336 40.658 44.7264C40.6394 44.6494 40.7044 44.5827 40.7836 44.5827ZM42.3616 42.9795C42.3616 43.058 42.4252 43.1216 42.5037 43.1216C42.5822 43.1216 42.6458 43.058 42.6458 42.9795V42.9333C42.6458 42.8548 42.5822 42.7912 42.5037 42.7912C42.4252 42.7912 42.3616 42.8548 42.3616 42.9333V42.9795ZM42.3616 44.9795C42.3616 45.058 42.4252 45.1216 42.5037 45.1216C42.5822 45.1216 42.6458 45.058 42.6458 44.9795V43.5763C42.6458 43.4979 42.5822 43.4342 42.5037 43.4342C42.4252 43.4342 42.3616 43.4979 42.3616 43.5763V44.9795ZM43.2669 44.2944C43.2669 44.081 43.3104 43.9191 43.3994 43.8081C43.4857 43.6986 43.6001 43.6438 43.7411 43.6438C43.8668 43.6438 43.974 43.6945 44.0603 43.7982C44.1459 43.9013 44.1887 44.0605 44.1887 44.2752C44.1887 44.4885 44.1472 44.6525 44.0644 44.7655C43.9801 44.8805 43.8743 44.9367 43.7439 44.9367C43.5775 44.9367 43.4556 44.8751 43.3802 44.7528C43.3053 44.6296 43.2669 44.4765 43.2669 44.2944ZM43.6891 43.4003C43.4569 43.4003 43.2786 43.49 43.1522 43.6705C43.0286 43.8503 42.9663 44.0643 42.9663 44.3098C42.9663 44.5734 43.0344 44.7833 43.171 44.9418C43.308 45.101 43.4706 45.1798 43.6586 45.1798C43.7744 45.1798 43.8767 45.1565 43.9675 45.1117C44.0099 45.0898 44.0496 45.0617 44.0866 45.0272C44.1255 44.9911 44.201 45.0157 44.201 45.0687C44.201 45.0981 44.2248 45.1219 44.2542 45.1219H44.3284C44.3987 45.1219 44.4557 45.0649 44.4557 44.9946V42.9273C44.4557 42.8521 44.3948 42.7912 44.3196 42.7912C44.2445 42.7912 44.1835 42.8521 44.1835 42.9273V43.4062C44.1835 43.4864 44.0806 43.5225 44.0123 43.4805C43.925 43.4264 43.8182 43.4003 43.6891 43.4003ZM44.8834 42.9795C44.8834 43.058 44.947 43.1216 45.0255 43.1216C45.104 43.1216 45.1676 43.058 45.1676 42.9795V42.9333C45.1676 42.8548 45.104 42.7912 45.0255 42.7912C44.947 42.7912 44.8834 42.8548 44.8834 42.9333V42.9795ZM44.8834 44.9795C44.8834 45.058 44.947 45.1216 45.0255 45.1216C45.104 45.1216 45.1676 45.058 45.1676 44.9795V43.5763C45.1676 43.4979 45.104 43.4342 45.0255 43.4342C44.947 43.4342 44.8834 43.4979 44.8834 43.5763V44.9795ZM45.8116 44.6724C45.8116 44.5655 45.8579 44.4864 45.9486 44.4375C46.0027 44.408 46.0804 44.3875 46.1842 44.3731L46.3567 44.3522C46.4095 44.346 46.4632 44.3354 46.5187 44.3193C46.5802 44.3034 46.6526 44.3442 46.6526 44.4077V44.4885C46.6526 44.6617 46.5731 44.7881 46.4126 44.8658C46.3216 44.9118 46.2211 44.9359 46.1191 44.936C46.0408 44.9381 45.9643 44.9125 45.9031 44.8638C45.8733 44.8418 45.8494 44.8128 45.8335 44.7795C45.8176 44.7461 45.8101 44.7093 45.8116 44.6724ZM46.0558 44.156C45.8966 44.1748 45.7675 44.2289 45.6692 44.3152C45.5716 44.4008 45.522 44.5224 45.522 44.6789C45.522 44.8227 45.5716 44.9418 45.6723 45.0374C45.7712 45.1315 45.899 45.1798 46.0568 45.1798C46.1879 45.1798 46.3074 45.151 46.416 45.0942C46.4659 45.0686 46.5101 45.0408 46.549 45.0107C46.5977 44.9732 46.6823 44.9997 46.7156 45.0514C46.7584 45.1216 46.8293 45.1565 46.9262 45.1565C46.9669 45.1565 46.9977 45.1545 47.021 45.1524C47.0276 45.1512 47.0351 45.1498 47.0435 45.148C47.0902 45.138 47.1213 45.0951 47.1213 45.0474V44.9663C47.1213 44.9401 47.0973 44.9193 47.0713 44.9227C47.0566 44.9247 47.0426 44.9247 47.0292 44.9247C46.9912 44.9247 46.9655 44.9162 46.9542 44.8987C46.9413 44.8774 46.935 44.8527 46.9361 44.8278V43.8581C46.9361 43.6989 46.8745 43.5818 46.7515 43.5044C46.6266 43.4267 46.4639 43.3887 46.2653 43.3887C46.0928 43.3887 45.9424 43.4294 45.812 43.5116C45.7132 43.5744 45.6502 43.6732 45.6233 43.8089C45.6081 43.8858 45.6731 43.9509 45.7515 43.9509C45.8222 43.9509 45.8784 43.8969 45.9019 43.8302C45.9127 43.7995 45.9261 43.7735 45.9421 43.7516C46.0044 43.6722 46.1099 43.6318 46.2585 43.6318C46.3869 43.6318 46.4851 43.653 46.554 43.6972C46.6235 43.7414 46.6577 43.8116 46.6577 43.9085C46.6597 43.9458 46.6537 43.9831 46.6403 44.018C46.619 44.0636 46.5749 44.091 46.5084 44.0988L46.0558 44.156ZM47.4107 44.9798C47.4107 45.0581 47.4741 45.1216 47.5524 45.1216C47.6307 45.1216 47.6942 45.0581 47.6942 44.9798V44.1457C47.6942 44.0252 47.7322 43.9191 47.8099 43.8266C47.8869 43.7355 47.9972 43.6897 48.1403 43.6897C48.1897 43.6888 48.2334 43.6512 48.2334 43.6018V43.4587C48.2334 43.4221 48.2056 43.3914 48.1691 43.3894C48.1571 43.388 48.1479 43.388 48.1431 43.388C48.0301 43.388 47.9318 43.4281 47.8455 43.5096C47.8409 43.514 47.8363 43.5183 47.8318 43.5226C47.7941 43.5592 47.6829 43.523 47.6829 43.4704C47.6829 43.444 47.6615 43.4226 47.635 43.4226H47.5468C47.4716 43.4226 47.4107 43.4835 47.4107 43.5587V44.9798ZM49.5103 43.5228C49.5299 43.4632 49.5855 43.4229 49.6482 43.4229C49.7497 43.4229 49.8206 43.5246 49.7863 43.6201C49.7388 43.7523 49.674 43.9351 49.5914 44.1687C49.487 44.4611 49.4014 44.6984 49.3319 44.8823C49.1668 45.3164 49.049 45.5797 48.9816 45.6753C48.9128 45.7687 48.7977 45.817 48.632 45.817C48.5913 45.817 48.5598 45.8156 48.5378 45.8129C48.4899 45.8053 48.4577 45.7619 48.4577 45.7134V45.6549C48.4577 45.5991 48.5117 45.5595 48.5666 45.5695C48.5885 45.5722 48.6087 45.5736 48.6255 45.5736C48.6782 45.5736 48.7173 45.565 48.7433 45.5475C48.7681 45.5297 48.7893 45.5073 48.8056 45.4815C48.8118 45.4736 48.8309 45.4294 48.8645 45.3496C48.9115 45.235 48.9129 45.107 48.8708 44.9904L48.3784 43.6256C48.3428 43.5272 48.4158 43.4233 48.5205 43.4233C48.5856 43.4233 48.6434 43.465 48.6639 43.5269L48.7181 43.6904C48.8358 44.0456 49.3383 44.0451 49.4553 43.6897L49.5103 43.5228ZM51.6712 44.9364C51.5 44.9364 51.3736 44.8754 51.2959 44.7545C51.2165 44.6347 51.1774 44.4837 51.1774 44.3026C51.1774 44.1153 51.2161 43.9533 51.2959 43.8205C51.3736 43.6866 51.5007 43.6205 51.6742 43.6205C51.8694 43.6205 52.0074 43.6989 52.0868 43.8554C52.1375 43.955 52.1632 44.0841 52.1632 44.2433C52.1632 44.418 52.1272 44.5789 52.0574 44.7213C51.9889 44.8641 51.8598 44.9364 51.6712 44.9364ZM51.6794 43.3771C51.438 43.3771 51.2459 43.4606 51.1028 43.6297C50.9597 43.7982 50.8881 44.0242 50.8881 44.3084C50.8881 44.5744 50.9549 44.786 51.0915 44.9435C51.2271 45.1007 51.4113 45.1795 51.6424 45.1795C51.9187 45.1795 52.1231 45.0904 52.255 44.9127C52.3868 44.735 52.4529 44.5087 52.4529 44.2358C52.4529 43.9537 52.3786 43.7397 52.2289 43.5938C52.0793 43.4493 51.8951 43.3771 51.6794 43.3771ZM52.9432 42.9128C53.0079 42.8159 53.1353 42.7676 53.3229 42.7676C53.3404 42.7676 53.3595 42.7683 53.3784 42.7696C53.415 42.7723 53.4431 42.8019 53.4431 42.8386V42.9741C53.4431 43.0062 53.4154 43.031 53.3833 43.0306C53.3807 43.0305 53.3781 43.0303 53.3755 43.03C53.3637 43.0285 53.3529 43.0285 53.3421 43.0285C53.2565 43.0285 53.2058 43.0504 53.1897 43.0953C53.1777 43.1268 53.17 43.1933 53.1665 43.2949C53.1638 43.3718 53.2268 43.4342 53.3037 43.4342H53.3301C53.3925 43.4342 53.4431 43.4848 53.4431 43.5472C53.4431 43.6096 53.3925 43.6602 53.3301 43.6602H53.3037C53.2268 43.6602 53.1644 43.7226 53.1644 43.7996V44.9798C53.1644 45.0581 53.1009 45.1216 53.0226 45.1216C52.9443 45.1216 52.8809 45.0581 52.8809 44.9798V43.7792C52.8809 43.7135 52.8276 43.6602 52.7619 43.6602H52.7559C52.6935 43.6602 52.6429 43.6096 52.6429 43.5472C52.6429 43.4848 52.6935 43.4342 52.7559 43.4342H52.7619C52.8276 43.4342 52.8809 43.381 52.8809 43.3153V43.1706C52.885 43.0538 52.9045 42.9675 52.9432 42.9128ZM40.2129 51.0279C40.26 50.982 40.2622 50.9079 40.2212 50.8565C40.1716 50.7942 40.0795 50.7901 40.017 50.8394C39.9276 50.9097 39.8259 50.965 39.7241 50.965C39.456 50.965 39.4125 50.6962 39.4125 50.4025V49.1328C39.4125 48.9369 39.5713 48.7781 39.7672 48.7781H39.9571C40.0481 48.7781 40.122 48.7043 40.122 48.6132C40.122 48.5222 40.0481 48.4484 39.9571 48.4484H39.7645C39.5671 48.4484 39.407 48.2883 39.407 48.0909V47.7856C39.407 47.6959 39.3343 47.6232 39.2446 47.6232C39.1803 47.6232 39.1225 47.6613 39.0943 47.719C38.9038 48.109 38.6582 48.3606 38.2292 48.4653C38.1585 48.4825 38.1055 48.5438 38.1055 48.6166C38.1055 48.6988 38.1722 48.7654 38.2544 48.7654H38.2855C38.3849 48.7654 38.4654 48.846 38.4654 48.9454V50.0861C38.4654 50.4264 38.4794 50.6531 38.527 50.8171C38.6493 51.2345 38.9907 51.3862 39.395 51.3862C39.6936 51.3865 39.953 51.2808 40.2129 51.0279ZM37.4851 47.1548C37.1833 47.2265 36.7083 47.2842 36.4367 47.305C36.3461 47.3119 36.2727 47.387 36.2727 47.4778C36.2727 47.5687 36.3464 47.6427 36.4372 47.6395C36.4453 47.6392 36.4534 47.6389 36.4614 47.6385C36.5737 47.6339 36.6712 47.7216 36.6712 47.8339V50.7632C36.6712 50.8784 36.5778 50.9719 36.4625 50.9719H36.418C36.3273 50.9719 36.2538 51.0454 36.2538 51.1361C36.2538 51.2267 36.3273 51.3002 36.418 51.3002H37.8986C37.9892 51.3002 38.0627 51.2267 38.0627 51.1361C38.0627 51.0454 37.9892 50.9719 37.8986 50.9719H37.8457C37.7258 50.9719 37.6286 50.8747 37.6286 50.7548V47.2708C37.6286 47.1685 37.5669 47.1472 37.5375 47.1472C37.5209 47.1474 37.5045 47.1497 37.4885 47.1541L37.4851 47.1548ZM36.1576 49.7433C36.1576 48.9791 35.6012 48.4059 34.7404 48.4059C33.9032 48.4059 33.2551 48.9924 33.2558 49.8652C33.2558 50.764 33.97 51.3865 34.8493 51.3865C35.3669 51.3865 35.7663 51.1344 36.0477 50.7773C36.1065 50.7028 36.089 50.5961 36.0147 50.5371C35.9263 50.4668 35.7941 50.4925 35.7204 50.5781C35.5509 50.7749 35.2762 50.9832 35.0024 50.9832C34.4213 50.9832 34.2819 50.4829 34.2819 49.9392C34.2819 49.9284 34.2907 49.9197 34.3015 49.9197H36.0409C36.146 49.92 36.1583 49.9025 36.1576 49.7433ZM35.2037 49.4304C35.2037 49.4785 35.1585 49.5054 35.1104 49.5054H34.7335C34.4841 49.5054 34.2764 49.2971 34.363 49.0632C34.4339 48.8718 34.5603 48.7 34.776 48.7C35.1188 48.7 35.2037 48.9924 35.2037 49.4304ZM43.5583 50.9626C43.597 50.9029 43.5764 50.8247 43.5177 50.7847C43.4484 50.7375 43.3574 50.7646 43.3019 50.8274C43.2661 50.8678 43.2235 50.8982 43.1745 50.8982C43.0594 50.8982 43.0348 50.8435 43.0348 50.6099V49.5667C43.0348 49.3766 43.0348 49.1808 42.98 48.9921C42.8283 48.5031 42.2839 48.4056 41.8377 48.4056C41.5193 48.4056 41.1711 48.461 40.8787 48.5888C40.64 48.6932 40.4267 48.8387 40.4267 49.065C40.4267 49.3157 40.5907 49.4013 40.7698 49.4002C40.9831 49.4002 41.1423 49.2492 41.1423 49.1078C41.1423 48.839 41.2334 48.7281 41.635 48.7281C41.9836 48.7281 42.087 48.9308 42.0884 49.267C42.0884 49.4985 42.0815 49.53 41.9894 49.5293C41.6912 49.5293 41.2505 49.6043 40.9649 49.7372C40.6465 49.8964 40.3726 50.1525 40.3726 50.5435C40.3726 51.0376 40.7557 51.3862 41.2505 51.3862C41.3128 51.3862 41.3742 51.3801 41.4344 51.3688C41.8018 51.2997 42.3801 51.3862 42.754 51.3862C43.1081 51.3865 43.3748 51.2459 43.5583 50.9626ZM42.0767 50.4483C42.0767 50.5699 42.043 50.6953 41.9474 50.7704C41.8719 50.8298 41.7712 50.8791 41.6426 50.8791C41.4039 50.8791 41.2454 50.6897 41.2454 50.4583C41.2454 50.2585 41.3401 50.1158 41.4799 50.0152C41.7544 49.8178 42.0767 50.1102 42.0767 50.4483ZM32.9808 49.2605C32.9808 48.032 32.1628 47.2996 30.8004 47.2996C30.2687 47.2996 29.7979 47.3249 29.5541 47.3249H28.9706C28.8753 47.3249 28.798 47.4022 28.798 47.4975C28.798 47.5928 28.8753 47.6701 28.9706 47.6701H29.0629C29.2092 47.6701 29.3277 47.7887 29.3277 47.9349V50.6849C29.3277 50.8362 29.2051 50.9589 29.0537 50.9589H28.9501C28.8558 50.9589 28.7794 51.0354 28.7796 51.1297C28.7797 51.2238 28.856 51.2999 28.9501 51.2999H30.8425C32.1074 51.3002 32.9808 50.4709 32.9808 49.2605ZM31.9064 49.2304C31.9064 50.2991 31.4044 50.9592 30.5929 50.9592C30.4643 50.9592 30.3601 50.8549 30.3601 50.7264L30.3607 47.9626C30.3607 47.7981 30.4774 47.6543 30.6419 47.6543C31.466 47.6543 31.9064 48.1426 31.9064 49.2304ZM24.7132 47.1219C24.6535 47.1518 24.6055 47.2007 24.5766 47.2609C24.5774 47.2587 24.5745 47.2568 24.5731 47.2588C23.5902 48.7087 22.034 50.8017 21.962 50.8962C21.7329 51.1937 21.9719 51.3002 22.1904 51.3002L27.4206 51.3016C27.6924 51.3016 27.8441 51.1564 27.6267 50.9017L24.9994 47.228C24.8871 47.061 24.7519 47.1051 24.7132 47.1219ZM28.0454 51.1794C28.0743 51.1792 28.1028 51.1734 28.1294 51.1622C28.156 51.151 28.1801 51.1347 28.2004 51.1142C28.2207 51.0937 28.2367 51.0694 28.2476 51.0427C28.2585 51.016 28.264 50.9874 28.2639 50.9585C28.2637 50.9297 28.2579 50.9011 28.2467 50.8745C28.2355 50.848 28.2192 50.8238 28.1987 50.8035C28.1782 50.7833 28.1539 50.7672 28.1272 50.7563C28.1005 50.7454 28.0719 50.7399 28.043 50.7401C27.9848 50.7404 27.929 50.7638 27.8881 50.8052C27.8471 50.8467 27.8243 50.9027 27.8246 50.9609C27.8249 51.0192 27.8484 51.0749 27.8898 51.1159C27.9312 51.1568 27.9872 51.1797 28.0454 51.1794ZM28.0454 51.1372C27.9983 51.1372 27.9531 51.1185 27.9198 51.0852C27.8865 51.0519 27.8677 51.0067 27.8677 50.9595C27.8677 50.9124 27.8865 50.8672 27.9198 50.8339C27.9531 50.8006 27.9983 50.7818 28.0454 50.7818C28.1447 50.7818 28.2231 50.8606 28.2231 50.9592C28.2233 50.9826 28.2188 51.0058 28.2099 51.0274C28.201 51.0491 28.1879 51.0687 28.1714 51.0853C28.1549 51.1018 28.1353 51.115 28.1136 51.1239C28.092 51.1328 28.0688 51.1373 28.0454 51.1372ZM28.0971 50.9794C28.1393 50.9767 28.1619 50.9585 28.1619 50.9147C28.1619 50.89 28.1547 50.8671 28.1338 50.8531C28.1163 50.8438 28.0889 50.8438 28.0694 50.8438C28.0064 50.8438 27.9554 50.8949 27.9554 50.9578V51.0559C27.9554 51.0685 27.9656 51.0787 27.9782 51.0787C27.9907 51.0787 28.0009 51.0685 28.0009 51.0559V51.0091C28.0009 50.9929 28.0141 50.9797 28.0302 50.9797C28.0411 50.9797 28.051 50.9857 28.0561 50.9953L28.094 51.0663C28.098 51.0739 28.106 51.0787 28.1146 51.0787C28.1326 51.0787 28.1439 51.0591 28.1347 51.0435L28.0971 50.9794L28.0262 50.953C28.0108 50.9473 28.0006 50.9325 28.0006 50.9161C28.0006 50.8943 28.0182 50.8767 28.04 50.8767H28.0588C28.0817 50.8767 28.1153 50.8767 28.1153 50.9082C28.1153 50.9376 28.0971 50.9441 28.0708 50.9438C28.0568 50.9438 28.0533 50.9632 28.0664 50.9681L28.0971 50.9794Z" fill="white"/>
<path fill-rule="evenodd" clip-rule="evenodd" d="M27.327 51.1717C27.3587 51.1697 27.3567 51.1156 27.3271 51.104C26.6036 50.7924 25.7058 50.5034 24.8094 50.5034H24.7974C23.9014 50.5034 23.0039 50.7924 22.2815 51.104C22.2813 51.1041 22.281 51.1042 22.2808 51.1042C22.2512 51.1156 22.2487 51.1718 22.2805 51.1718H27.3261C27.3264 51.1718 27.3267 51.1718 27.327 51.1717Z" fill="#CC2131"/>
<path fill-rule="evenodd" clip-rule="evenodd" d="M24.8036 49.9878C24 49.9878 23.2155 50.3268 22.3855 50.7668L22.341 50.7901C22.3341 50.7936 22.3265 50.7955 22.3188 50.7955C22.3121 50.7955 22.3055 50.7941 22.2993 50.7915C22.2932 50.7889 22.2876 50.7851 22.2829 50.7803C22.2782 50.7756 22.2745 50.7699 22.2721 50.7637C22.2696 50.7575 22.2683 50.7509 22.2684 50.7442C22.2685 50.7339 22.2716 50.7239 22.2773 50.7154L22.3013 50.6812C22.5239 50.3515 24.3143 47.8844 24.718 47.2921C24.745 47.2513 24.7707 47.2339 24.8039 47.2339C24.8368 47.2339 24.8621 47.2513 24.8895 47.2921C25.2929 47.8844 27.084 50.3518 27.3072 50.6812L27.3312 50.7154C27.337 50.7239 27.3401 50.7339 27.3401 50.7442C27.3402 50.753 27.3381 50.7616 27.3339 50.7693C27.3297 50.777 27.3236 50.7835 27.3161 50.7881C27.3087 50.7927 27.3002 50.7954 27.2914 50.7957C27.2826 50.796 27.2739 50.7941 27.2661 50.7901L27.2209 50.7668C26.392 50.3268 25.6082 49.9871 24.8036 49.9878Z" fill="#255398"/>
</svg>
