<svg width="750" height="620" viewBox="0 0 750 620" fill="none" xmlns="http://www.w3.org/2000/svg">
<path d="M356.684 619.991C495.084 619.991 607.279 608.253 607.279 593.773C607.279 579.293 495.084 567.555 356.684 567.555C218.285 567.555 106.09 579.293 106.09 593.773C106.09 608.253 218.285 619.991 356.684 619.991Z" fill="#ACD9EA"/>
<path d="M546.294 252.111H164.178C152.696 252.111 143.361 258.478 143.361 269.96V551.029C143.361 544.734 148.44 539.655 154.735 539.655H545.399C556.845 539.655 566.109 548.919 566.109 560.365V271.963C566.109 261.018 557.239 252.111 546.294 252.111Z" fill="#101933"/>
<path d="M546.294 252.111H164.178C152.696 252.111 143.361 258.478 143.361 269.96V551.029C143.361 544.734 148.44 539.655 154.735 539.655H545.399C556.845 539.655 566.109 548.919 566.109 560.365V271.963C566.109 261.018 557.239 252.111 546.294 252.111Z" fill="#101933"/>
<path d="M154.771 539.655C153.483 539.655 152.231 539.87 151.051 540.263V564.729C151.051 558.434 155.915 553.355 161.889 553.355H533.631C544.505 553.355 553.34 562.619 553.34 574.065V541.229C550.908 540.228 548.225 539.655 545.435 539.655H154.771Z" fill="#101933"/>
<path d="M534.49 265.847H170.831C159.886 265.847 151.015 272.213 151.015 283.695V540.299C152.195 539.906 153.412 539.691 154.735 539.691H545.399C548.189 539.691 550.872 540.263 553.304 541.265V285.698C553.34 274.717 544.899 265.847 534.49 265.847Z" fill="#090D23"/>
<path d="M436.439 11.1222L308.141 466.457L483.686 515.92L611.984 60.5847L436.439 11.1222Z" fill="#5079C9"/>
<path d="M417.815 443.791C430.708 442.707 440.282 431.376 439.199 418.482C438.115 405.589 426.784 396.015 413.89 397.098C400.996 398.182 391.422 409.513 392.506 422.407C393.59 435.301 404.921 444.875 417.815 443.791Z" fill="#1C4399"/>
<path d="M513.36 128.122C525.288 123.108 530.894 109.373 525.88 97.4446C520.866 85.516 507.131 79.9105 495.203 84.9244C483.274 89.9383 477.669 103.673 482.683 115.602C487.696 127.53 501.431 133.136 513.36 128.122Z" fill="#1C4399"/>
<path d="M323.777 457.673L474.935 500.273L596.334 69.2976L445.176 26.6973L323.777 457.673ZM579.952 73.8045L463.31 487.861L340.159 453.166L456.8 39.109L579.952 73.8045Z" fill="#1C4399"/>
<path d="M535.643 284.814C546.455 246.444 521.386 205.807 479.651 194.047C437.916 182.288 395.319 203.859 384.508 242.229C373.696 280.598 398.765 321.236 440.5 332.996C482.235 344.755 524.832 323.183 535.643 284.814Z" fill="#1C4399"/>
<path d="M529.497 283.06C539.356 248.056 516.244 210.918 477.874 200.111C439.505 189.304 400.408 208.919 390.548 243.923C380.689 278.927 403.801 316.065 442.171 326.872C480.54 337.679 519.637 318.064 529.497 283.06Z" fill="#1C4399"/>
<path d="M485.236 236.123C481.517 235.086 477.832 234.799 474.327 235.264C470.822 235.765 467.531 236.981 464.562 238.877C461.737 240.63 459.268 242.883 457.301 245.566C455.37 248.177 453.009 251.754 450.326 256.261L425.968 249.393C428.937 245.244 433.014 243.169 438.058 243.241C442.851 243.277 445.891 241.202 447.071 237.053C447.679 234.835 447.429 232.725 446.32 230.758C445.211 228.79 443.566 227.467 441.456 226.859C439.596 226.322 437.378 226.251 434.839 226.644C432.335 227.038 429.759 227.86 427.184 229.112C423.786 230.686 420.925 232.868 418.671 235.622C416.525 238.269 414.594 241.703 412.948 245.745L406.76 243.992C402.325 242.74 400.715 244.815 400.179 246.782C399.642 248.713 399.928 251.289 404.507 252.576L410.552 254.293C409.014 262.77 409.836 269.924 413.02 275.576C416.275 281.334 421.461 285.269 428.508 287.236C433.909 288.738 438.702 288.846 442.815 287.522C446.893 286.199 450.434 283.91 453.331 280.762C456.157 277.686 459.09 273.68 462.058 268.78L489.421 276.47C487.991 278.652 486.417 280.333 484.664 281.442C482.804 282.622 480.873 283.373 478.977 283.695C477.01 284.017 474.22 284.232 470.607 284.41C468.854 284.482 467.316 285.054 466.029 286.127C464.777 287.2 463.847 288.703 463.31 290.598C462.631 292.959 462.917 295.213 464.097 297.251C465.278 299.29 466.923 300.614 468.962 301.186C471.644 301.937 474.542 302.116 477.654 301.758C480.73 301.401 483.949 300.363 487.168 298.682C490.387 297.001 493.392 294.605 496.11 291.528C498.757 288.524 501.01 284.732 502.87 280.297L518.895 284.804C520.862 285.34 522.364 285.448 523.509 285.09C524.689 284.697 525.548 283.695 525.977 282.121C526.478 280.369 526.156 279.045 525.047 278.151C524.045 277.328 522.328 276.613 519.86 275.898L505.124 271.748C506.197 265.954 506.054 260.517 504.73 255.688C503.335 250.716 500.903 246.496 497.469 243.169C494 239.771 489.886 237.446 485.236 236.123ZM439.095 270.353C437.056 271.605 434.481 271.784 431.441 270.926C428.221 270.031 426.04 268.422 425.002 266.169C423.965 263.987 423.393 261.197 423.285 257.834L445.39 264.058C443.173 267.027 441.062 269.137 439.095 270.353ZM490.208 258.049C491.925 260.767 492.676 264.13 492.426 268.136L466.923 260.946C469.284 257.441 471.68 254.901 474.041 253.363C476.437 251.825 479.406 251.503 482.768 252.469C485.916 253.363 488.42 255.259 490.208 258.049Z" fill="#5079C9"/>
<path d="M501.812 0.000106634L294.227 425.105L458.117 505.136L665.702 80.0302L501.812 0.000106634Z" fill="#5D8AD1"/>
<path d="M413.82 421.868C426.408 418.876 434.188 406.246 431.197 393.657C428.205 381.069 415.575 373.289 402.986 376.281C390.398 379.272 382.618 391.902 385.61 404.491C388.601 417.079 401.231 424.859 413.82 421.868Z" fill="#1C4399"/>
<path d="M572.859 115.664C578.171 103.866 572.913 89.9958 561.115 84.6843C549.317 79.3728 535.447 84.6311 530.135 96.429C524.824 108.227 530.082 122.097 541.88 127.408C553.678 132.72 567.548 127.462 572.859 115.664Z" fill="#1C4399"/>
<path d="M311.151 419.258L452.294 488.184L648.77 85.8587L507.628 16.9326L311.151 419.258ZM443.065 473.912L328.105 417.791L516.856 31.2043L631.816 87.3609L443.065 473.912Z" fill="#1C4399"/>
<path d="M550.499 287.011C567.992 251.189 550.586 206.725 511.622 187.698C472.657 168.671 426.89 182.287 409.398 218.109C391.905 253.931 409.311 298.395 448.276 317.422C487.24 336.449 533.007 322.833 550.499 287.011Z" fill="#1C4399"/>
<path d="M544.814 284.238C560.772 251.558 544.669 210.885 508.847 193.392C473.025 175.899 431.048 188.211 415.09 220.892C399.132 253.572 415.235 294.245 451.057 311.737C486.879 329.23 528.855 316.918 544.814 284.238Z" fill="#1C4399"/>
<path d="M499.043 227.36C495.502 227.217 492.032 227.825 488.778 229.148C485.666 230.364 482.876 232.153 480.408 234.442C478.047 236.66 475.078 239.771 471.609 243.706L448.86 232.618C452.508 229.041 456.908 227.753 461.844 228.755C466.565 229.649 469.927 228.147 471.823 224.248C472.825 222.173 472.968 220.063 472.217 217.917C471.466 215.771 470.106 214.197 468.103 213.231C466.351 212.373 464.205 211.908 461.629 211.836C459.09 211.765 456.407 212.122 453.653 212.873C450.04 213.803 446.821 215.449 444.138 217.774C441.527 219.991 439.023 223.032 436.698 226.716L430.94 223.89C426.791 221.851 424.859 223.604 423.965 225.428C423.071 227.217 422.928 229.828 427.184 231.867L432.835 234.621C429.795 242.669 429.33 249.858 431.476 256.01C433.622 262.27 438.058 267.027 444.639 270.246C449.682 272.714 454.404 273.644 458.66 273.072C462.917 272.5 466.816 270.89 470.214 268.315C473.54 265.811 477.153 262.377 480.944 258.085L506.483 270.568C504.695 272.464 502.835 273.823 500.939 274.61C498.9 275.433 496.861 275.862 494.93 275.79C492.962 275.755 490.137 275.468 486.56 275.003C484.807 274.753 483.198 275.039 481.767 275.862C480.336 276.685 479.156 278.008 478.297 279.761C477.224 281.978 477.081 284.232 477.868 286.449C478.655 288.667 480.05 290.277 481.946 291.207C484.45 292.423 487.275 293.138 490.387 293.317C493.499 293.496 496.825 293.067 500.295 291.993C503.765 290.92 507.163 289.096 510.382 286.557C513.529 284.089 516.427 280.762 519.038 276.72L533.989 284.017C535.813 284.911 537.28 285.269 538.496 285.126C539.748 284.983 540.749 284.124 541.465 282.658C542.252 281.013 542.18 279.653 541.286 278.58C540.427 277.579 538.889 276.577 536.6 275.433L522.865 268.708C524.975 263.2 525.798 257.834 525.333 252.827C524.868 247.676 523.223 243.098 520.397 239.199C517.607 235.3 513.959 232.26 509.631 230.15C506.125 228.433 502.584 227.503 499.043 227.36ZM458.088 255.545C455.87 256.404 453.295 256.153 450.434 254.758C447.429 253.292 445.569 251.325 444.925 248.928C444.281 246.603 444.246 243.742 444.746 240.415L465.385 250.502C462.702 253.006 460.27 254.723 458.088 255.545ZM510.596 252.612C511.777 255.581 511.92 259.051 510.99 262.914L487.168 251.289C490.137 248.249 492.927 246.174 495.538 245.101C498.185 244.028 501.118 244.242 504.301 245.78C507.234 247.211 509.344 249.536 510.596 252.612Z" fill="#5D8AD1"/>
<path d="M609.45 17.6642L301.194 376.539L439.551 495.38L747.807 136.506L609.45 17.6642Z" fill="#6D9DE2"/>
<path d="M440.616 387.088C444.386 374.711 437.407 361.621 425.03 357.852C412.652 354.083 399.562 361.061 395.793 373.439C392.024 385.817 399.003 398.906 411.38 402.675C423.758 406.444 436.847 399.466 440.616 387.088Z" fill="#204EA0"/>
<path d="M647.278 149.403C656.427 140.254 656.427 125.42 647.278 116.271C638.128 107.121 623.294 107.121 614.145 116.271C604.996 125.42 604.996 140.254 614.145 149.403C623.294 158.552 638.128 158.552 647.278 149.403Z" fill="#204EA0"/>
<path d="M319.02 375.192L438.165 477.526L729.894 137.867L610.748 35.5332L319.02 375.192ZM432.835 461.358L335.795 378.017L616.078 51.6648L713.118 135.006L432.835 461.358Z" fill="#204EA0"/>
<path d="M584.046 307.67C610.022 277.429 604.414 230.009 571.52 201.755C538.627 173.501 490.904 175.112 464.928 205.353C438.952 235.594 444.56 283.014 477.454 311.268C510.348 339.522 558.071 337.911 584.046 307.67Z" fill="#204EA0"/>
<path d="M579.248 303.557C602.945 275.968 597.641 232.546 567.399 206.57C537.158 180.594 493.432 181.902 469.735 209.491C446.038 237.079 451.343 280.502 481.584 306.477C511.825 332.453 555.551 331.146 579.248 303.557Z" fill="#204EA0"/>
<path d="M549.298 236.946C545.9 235.909 542.395 235.623 538.925 236.088C535.599 236.481 532.451 237.518 529.518 239.092C526.656 240.63 523.044 242.919 518.68 245.817L499.472 229.327C503.908 226.824 508.486 226.645 513.029 228.862C517.357 230.937 521.005 230.293 523.795 227.038C525.297 225.286 525.941 223.282 525.798 220.993C525.619 218.74 524.689 216.844 523.008 215.413C521.542 214.162 519.539 213.16 517.106 212.445C514.674 211.729 511.991 211.407 509.13 211.443C505.374 211.443 501.869 212.194 498.685 213.768C495.609 215.27 492.426 217.56 489.207 220.528L484.342 216.343C480.837 213.339 478.512 214.555 477.188 216.093C475.901 217.595 475.078 220.063 478.655 223.139L483.412 227.253C478.44 234.299 476.187 241.131 476.688 247.605C477.189 254.187 480.265 259.945 485.809 264.703C490.065 268.351 494.393 270.461 498.65 270.998C502.906 271.534 507.091 270.962 511.061 269.317C514.924 267.707 519.252 265.311 524.01 262.127L545.578 280.655C543.36 282.05 541.214 282.873 539.175 283.159C536.994 283.445 534.919 283.338 533.059 282.801C531.163 282.265 528.516 281.299 525.19 279.904C523.58 279.225 521.935 279.081 520.325 279.511C518.716 279.94 517.285 280.906 515.997 282.408C514.388 284.268 513.672 286.414 513.887 288.775C514.102 291.135 515.032 293.031 516.641 294.39C518.752 296.215 521.327 297.61 524.26 298.575C527.229 299.541 530.555 299.97 534.168 299.791C537.78 299.648 541.536 298.718 545.292 297.073C548.94 295.464 552.624 292.995 556.166 289.741L568.792 300.578C570.33 301.902 571.653 302.617 572.869 302.76C574.121 302.903 575.302 302.367 576.375 301.115C577.555 299.72 577.841 298.397 577.233 297.145C576.661 295.964 575.445 294.605 573.478 292.924L561.853 282.945C565.287 278.116 567.433 273.18 568.255 268.208C569.114 263.129 568.649 258.264 566.932 253.793C565.215 249.322 562.461 245.459 558.812 242.311C555.879 239.808 552.696 237.983 549.298 236.946ZM502.548 253.9C500.188 254.187 497.755 253.257 495.359 251.182C492.819 249 491.532 246.639 491.496 244.171C491.46 241.775 492.14 238.985 493.463 235.909L510.883 250.86C507.663 252.613 504.873 253.614 502.548 253.9ZM554.091 264.309C554.484 267.492 553.733 270.89 551.873 274.396L531.771 257.12C535.384 254.938 538.639 253.65 541.429 253.257C544.255 252.863 547.045 253.829 549.727 256.118C552.195 258.264 553.662 261.018 554.091 264.309Z" fill="#6D9DE2"/>
<path d="M418.278 360.741L314.978 95.8746C310.757 85.0725 298.596 79.7072 287.758 83.9279L133.918 143.948C123.115 148.168 117.75 160.33 121.971 171.167L225.271 436.034C229.491 446.836 241.653 452.201 252.49 447.98L406.367 387.961C417.169 383.74 422.498 371.579 418.278 360.741Z" fill="#FF6C3C"/>
<path d="M322.418 155.93L304.605 110.254C303.639 107.786 300.885 106.606 298.417 107.536L281.606 114.081C279.138 115.047 277.958 117.801 278.888 120.269L296.7 165.946C297.666 168.414 300.42 169.594 302.888 168.664L319.7 162.118C322.132 161.117 323.348 158.363 322.418 155.93Z" fill="white"/>
<path d="M418.278 360.74L369.346 235.229C357.292 240.451 348.279 246.782 341.554 252.755C301.851 287.88 291.335 353.909 310.006 425.517L406.367 387.925C417.169 383.74 422.498 371.578 418.278 360.74Z" fill="#76ADE5"/>
<path d="M226.522 107.857L204.131 116.585L354.645 197.565L344.38 171.239L226.522 107.857Z" fill="#FF855A"/>
<path opacity="0.05" d="M419.601 364.103C403.684 370.291 382.652 376.05 357.9 376.551C291.085 377.946 243.655 340.281 218.904 320.644C187.141 295.428 163.82 265.239 146.687 234.514L225.449 436.463C229.563 447.015 241.474 452.237 252.025 448.124L409.729 386.637C418.671 383.168 423.106 373.081 419.601 364.103Z" fill="black"/>
<path d="M217.437 227.181L187.177 149.564C186.211 147.096 183.457 145.879 180.989 146.845L176.267 148.669C173.799 149.635 172.583 152.389 173.549 154.857L203.809 232.475C204.775 234.943 207.529 236.159 209.997 235.194L214.719 233.369C217.151 232.404 218.367 229.649 217.437 227.181Z" fill="white"/>
<path d="M243.584 294.248L225.843 248.75C225.092 246.819 222.945 245.889 221.014 246.64L214.325 249.251C212.394 250.002 211.464 252.148 212.215 254.08L229.956 299.577C230.707 301.509 232.853 302.439 234.785 301.688L241.474 299.076C243.369 298.325 244.335 296.179 243.584 294.248Z" fill="white"/>
<path d="M268.336 357.701L250.595 312.203C249.843 310.272 247.697 309.342 245.766 310.093L239.077 312.704C237.146 313.455 236.216 315.601 236.967 317.533L254.708 363.03C255.459 364.962 257.605 365.892 259.537 365.141L266.225 362.53C268.121 361.778 269.087 359.632 268.336 357.701Z" fill="white"/>
<path d="M287.579 407.097L275.704 376.658C275.096 375.049 273.272 374.262 271.698 374.905L263.829 377.982C262.219 378.59 261.433 380.414 262.076 381.988L273.951 412.427C274.56 414.036 276.384 414.823 277.958 414.179L285.827 411.103C287.436 410.495 288.223 408.707 287.579 407.097Z" fill="white"/>
<path d="M323.169 188.587C323.956 187.872 323.92 186.62 323.133 185.904C322.454 185.296 321.416 185.296 320.737 185.904C319.699 186.87 318.555 187.621 317.303 188.229C314.406 189.624 311.58 189.732 309.577 189.553C308.647 189.481 307.824 190.089 307.645 190.983C307.431 192.021 308.182 193.022 309.255 193.13C311.759 193.38 315.264 193.201 318.912 191.484C320.415 190.769 321.845 189.803 323.169 188.587Z" fill="white"/>
<path d="M330.323 193.129C330.931 192.235 330.609 191.055 329.679 190.554C328.856 190.125 327.855 190.375 327.318 191.126C326.138 192.879 324.135 195.204 321.023 196.849C317.482 198.709 314.012 198.924 311.687 198.745C310.757 198.674 309.935 199.317 309.756 200.212C309.577 201.249 310.328 202.25 311.401 202.322C314.263 202.537 318.412 202.286 322.74 200.033C326.46 198.03 328.892 195.276 330.323 193.129Z" fill="white"/>
<path d="M337.333 198.924C337.906 198.066 337.619 196.885 336.725 196.385C335.903 195.92 334.865 196.17 334.329 196.957C332.648 199.496 330.001 202.537 325.995 204.898C320.164 208.296 314.334 208.546 310.614 208.188C309.684 208.081 308.826 208.761 308.683 209.691C308.504 210.728 309.255 211.658 310.292 211.765C314.513 212.159 321.166 211.872 327.819 208.009C332.397 205.327 335.438 201.821 337.333 198.924Z" fill="white"/>
<path d="M344.308 206.614C344.952 205.827 344.845 204.647 344.022 204.003C343.271 203.431 342.162 203.538 341.554 204.289C338.085 208.474 333.685 211.908 328.82 214.233C321.309 217.81 314.191 218.239 309.112 217.774C308.146 217.702 307.288 218.382 307.18 219.348C307.037 220.349 307.789 221.279 308.79 221.386C314.37 221.887 322.168 221.458 330.394 217.488C335.724 214.948 340.517 211.228 344.308 206.614Z" fill="white"/>
<path d="M272.628 168.02L259.644 134.72C257.999 130.499 253.241 128.389 248.985 130.034L227.667 138.332C223.446 139.978 221.336 144.735 222.981 148.991L235.965 182.292C237.611 186.512 242.368 188.623 246.624 186.977L267.942 178.679C272.199 177.034 274.273 172.277 272.628 168.02Z" fill="#FFC71F"/>
<path d="M250.487 148.312L237.611 153.319L243.942 169.522L256.818 164.515L250.487 148.312ZM239.149 154.034L249.808 149.885L255.28 163.871L244.621 168.02L239.149 154.034Z" fill="white"/>
<path d="M272.735 173.743L266.512 157.218L257.176 155.036L262.184 147.525L256.21 130.642C255.745 130.356 255.209 130.106 254.708 129.927L260.86 147.346L255.209 155.787L265.582 158.22L272.02 175.21C272.306 174.745 272.557 174.244 272.735 173.743Z" fill="white"/>
<path d="M241.188 161.296L231.315 158.899L224.054 141.909C223.804 142.41 223.589 142.911 223.411 143.447L230.457 159.901L239.22 162.011L233.819 169.916L240.401 186.298C240.901 186.548 241.402 186.763 241.939 186.942L235.143 170.095L241.188 161.296Z" fill="white"/>
<path d="M251.882 144.949L251.918 144.77L246.767 130.928L245.659 131.357L250.702 144.842C250.487 145.772 249.915 148.419 249.2 149.742L250.308 150.064C251.203 148.454 251.811 145.164 251.882 144.949Z" fill="white"/>
<path d="M235.107 150.923L229.67 137.581L228.561 138.01L234.141 151.71L234.284 151.817C234.463 151.96 236.967 153.999 238.719 154.607L239.542 153.534C238.111 153.033 235.93 151.459 235.107 150.923Z" fill="white"/>
<path d="M238.845 133.965L237.746 134.394L244.323 151.254L245.423 150.826L238.845 133.965Z" fill="white"/>
<path d="M260.252 166.161L260.109 166.053C259.93 165.91 257.248 164.158 255.566 163.228V164.587C255.781 164.944 258.499 166.411 259.322 166.947L264.616 179.967L265.725 179.538L260.252 166.161Z" fill="white"/>
<path d="M243.727 173.028C243.942 172.098 244.371 169.916 245.086 168.557L244.192 167.448C243.298 169.094 242.547 172.706 242.511 172.921L242.475 173.1L247.518 186.656L248.627 186.227L243.727 173.028Z" fill="white"/>
<path d="M251.314 165.942L250.214 166.371L256.738 183.101L257.838 182.672L251.314 165.942Z" fill="white"/>
<path d="M322.704 157.325C313.905 153.963 304.569 148.526 296.414 139.763C288.33 131.107 283.824 121.771 281.248 114.26C279.031 115.333 277.958 117.944 278.852 120.269L296.665 165.945C297.63 168.413 300.384 169.594 302.853 168.664L319.664 162.118C321.703 161.295 322.847 159.328 322.704 157.325Z" fill="#F2F6F9"/>
<path d="M391.594 354.624C436.733 354.624 473.326 318.032 473.326 272.893C473.326 227.754 436.733 191.162 391.594 191.162C346.455 191.162 309.863 227.754 309.863 272.893C309.863 318.032 346.455 354.624 391.594 354.624Z" fill="#FFF68A"/>
<path d="M440.497 321.826C467.512 294.811 467.512 251.011 440.497 223.996C413.482 196.982 369.682 196.982 342.667 223.996C315.653 251.011 315.653 294.811 342.667 321.826C369.682 348.841 413.482 348.841 440.497 321.826Z" fill="#FFDA3E"/>
<path d="M438.38 221.923C445.354 238.019 446.249 256.726 439.453 274.36C425.682 309.985 385.621 327.726 349.995 313.955C341.661 310.736 334.365 306.086 328.141 300.399C335.259 316.817 348.672 330.48 366.664 337.42C402.289 351.19 442.35 333.449 456.121 297.824C466.708 270.497 458.732 240.594 438.38 221.923Z" fill="#F7D02D"/>
<path d="M330.537 240.451L397.639 204.002C370.348 201.606 343.664 215.663 330.537 240.451Z" fill="#FFEE52"/>
<path d="M420.317 209.977L323.169 262.771C322.418 267.886 322.239 272.965 322.597 278.008L433.408 217.774C429.438 214.77 425.038 212.123 420.317 209.977Z" fill="#FFEE52"/>
<path d="M414.665 284.446C414.558 281.692 413.842 279.081 412.59 276.648C411.446 274.324 409.872 272.285 407.941 270.532C406.009 268.779 403.326 266.669 399.893 264.129L407.332 244.85C410.73 247.604 412.197 251.146 411.732 255.402C411.374 259.015 412.698 261.411 415.702 262.591C417.312 263.2 418.886 263.164 420.46 262.484C422.033 261.805 423.106 260.66 423.714 259.122C424.251 257.727 424.466 256.046 424.358 254.114C424.251 252.147 423.786 250.108 423.035 247.998C422.069 245.244 420.603 242.919 418.635 240.987C416.668 239.056 414.093 237.267 410.909 235.658L412.841 230.65C413.807 228.111 413.306 226.465 411.339 225.714C409.407 224.963 407.905 225.893 406.903 228.468L405.008 233.369C398.39 231.473 392.739 231.544 388.053 233.619C383.368 235.693 379.969 239.413 377.931 244.707C376.357 248.785 375.928 252.469 376.643 255.724C377.358 258.979 378.861 261.84 381.078 264.344C383.332 266.812 386.265 269.423 389.985 272.177L381.651 293.71C379.791 292.315 378.467 290.849 377.645 289.239C376.822 287.629 376.357 286.056 376.25 284.482C376.142 282.908 376.178 280.69 376.321 277.829C376.393 276.505 376.106 275.361 375.391 274.324C374.676 273.322 373.638 272.535 372.243 271.999C370.527 271.319 368.845 271.355 367.236 272.106C365.626 272.857 364.517 273.966 363.945 275.432C363.158 277.435 362.801 279.653 362.872 282.085C362.944 284.518 363.48 287.021 364.553 289.668C365.626 292.279 367.236 294.783 369.454 297.108C371.671 299.433 374.497 301.508 377.931 303.332L373.102 315.851C372.565 317.282 372.387 318.39 372.565 319.249C372.744 320.107 373.388 320.751 374.497 321.18C375.713 321.645 376.643 321.538 377.323 320.823C378.002 320.143 378.682 318.855 379.397 317.031L383.868 305.514C388.411 306.837 392.703 307.159 396.638 306.444C400.608 305.728 404.006 304.155 406.832 301.722C409.657 299.29 411.768 296.321 413.127 292.78C414.307 289.99 414.808 287.2 414.665 284.446ZM394.706 260.159C392.31 258.085 390.7 256.117 389.806 254.365C388.947 252.576 388.947 250.466 389.913 248.034C390.915 245.458 392.381 243.849 394.313 243.133C396.244 242.418 398.676 242.203 401.574 242.418L394.706 260.159ZM396.101 295.499C393.669 296.715 390.772 297.037 387.409 296.464L395.243 276.183C398.068 278.437 400 280.619 401.109 282.729C402.182 284.839 402.218 287.236 401.18 289.919C400.214 292.422 398.533 294.282 396.101 295.499Z" fill="#FFFBAB"/>
<path d="M413.234 288.167C413.127 285.413 412.412 282.801 411.16 280.369C410.015 278.044 408.441 276.005 406.51 274.253C404.578 272.5 401.896 270.39 398.462 267.85L405.902 248.571C409.3 251.325 410.766 254.866 410.301 259.123C409.944 262.735 411.267 265.132 414.272 266.312C415.881 266.92 417.455 266.884 419.029 266.205C420.603 265.525 421.676 264.381 422.284 262.843C422.82 261.448 423.035 259.766 422.928 257.835C422.82 255.868 422.355 253.829 421.604 251.719C420.638 248.964 419.172 246.639 417.205 244.708C415.237 242.776 412.662 240.988 409.479 239.378L411.41 234.371C412.376 231.831 411.875 230.186 409.908 229.435C407.976 228.684 406.474 229.614 405.473 232.189L403.577 237.089C396.96 235.193 391.308 235.265 386.623 237.34C381.937 239.414 378.539 243.134 376.5 248.428C374.926 252.505 374.497 256.19 375.212 259.445C375.928 262.699 377.43 265.561 379.648 268.065C381.901 270.533 384.834 273.144 388.554 275.898L380.22 297.431C378.36 296.036 377.037 294.569 376.214 292.96C375.391 291.35 374.926 289.776 374.819 288.202C374.712 286.629 374.747 284.411 374.89 281.55C374.962 280.226 374.676 279.081 373.96 278.044C373.245 277.043 372.208 276.256 370.813 275.719C369.096 275.04 367.415 275.075 365.805 275.827C364.196 276.578 363.087 277.687 362.514 279.153C361.728 281.156 361.37 283.374 361.441 285.806C361.513 288.238 362.05 290.742 363.123 293.389C364.196 296 365.805 298.504 368.023 300.829C370.241 303.154 373.066 305.228 376.5 307.053L371.671 319.572C371.135 321.002 370.956 322.111 371.135 322.97C371.314 323.828 371.957 324.472 373.066 324.901C374.282 325.366 375.212 325.259 375.892 324.543C376.572 323.864 377.251 322.576 377.967 320.752L382.438 309.234C386.98 310.558 391.272 310.88 395.207 310.164C399.177 309.449 402.575 307.875 405.401 305.443C408.227 303.011 410.337 300.042 411.696 296.501C412.877 293.711 413.342 290.957 413.234 288.167ZM393.275 263.88C390.879 261.805 389.269 259.838 388.375 258.085C387.517 256.297 387.517 254.187 388.482 251.754C389.484 249.179 390.951 247.569 392.882 246.854C394.814 246.139 397.246 245.924 400.143 246.139L393.275 263.88ZM394.67 299.255C392.238 300.471 389.341 300.793 385.979 300.221L393.812 279.94C396.638 282.193 398.569 284.375 399.678 286.486C400.751 288.596 400.787 290.992 399.75 293.675C398.784 296.143 397.103 298.003 394.67 299.255Z" fill="#F7A52D"/>
<path d="M416.525 208.367C380.9 194.596 340.839 212.337 327.068 247.963C313.297 283.588 331.038 323.649 366.664 337.42C402.289 351.191 442.35 333.45 456.121 297.824C469.928 262.199 452.186 222.138 416.525 208.367ZM368.559 332.591C335.617 319.858 319.199 282.837 331.932 249.894C344.666 216.951 381.687 200.534 414.629 213.267C447.572 226.001 463.99 263.021 451.256 295.964C438.559 328.907 401.538 345.289 368.559 332.591Z" fill="#F9BE2B"/>
<path d="M414.665 284.446C414.558 281.692 413.842 279.081 412.59 276.648C411.446 274.324 409.872 272.285 407.941 270.532C406.009 268.779 403.326 266.669 399.893 264.129L407.332 244.85C410.73 247.604 412.197 251.146 411.732 255.402C411.374 259.015 412.698 261.411 415.702 262.591C417.312 263.2 418.886 263.164 420.46 262.484C422.033 261.805 423.106 260.66 423.714 259.122C424.251 257.727 424.466 256.046 424.358 254.114C424.251 252.147 423.786 250.108 423.035 247.998C422.069 245.244 420.603 242.919 418.635 240.987C416.668 239.056 414.093 237.267 410.909 235.658L412.841 230.65C413.807 228.111 413.306 226.465 411.339 225.714C409.407 224.963 407.905 225.893 406.903 228.468L405.008 233.369C398.39 231.473 392.739 231.544 388.053 233.619C383.368 235.693 379.969 239.413 377.931 244.707C376.357 248.785 375.928 252.469 376.643 255.724C377.358 258.979 378.861 261.84 381.078 264.344C383.332 266.812 386.265 269.423 389.985 272.177L381.651 293.71C379.791 292.315 378.467 290.849 377.645 289.239C376.822 287.629 376.357 286.056 376.25 284.482C376.142 282.908 376.178 280.69 376.321 277.829C376.393 276.505 376.106 275.361 375.391 274.324C374.676 273.322 373.638 272.535 372.243 271.999C370.527 271.319 368.845 271.355 367.236 272.106C365.626 272.857 364.517 273.966 363.945 275.432C363.158 277.435 362.801 279.653 362.872 282.085C362.944 284.518 363.48 287.021 364.553 289.668C365.626 292.279 367.236 294.783 369.454 297.108C371.671 299.433 374.497 301.508 377.931 303.332L373.102 315.851C372.565 317.282 372.387 318.39 372.565 319.249C372.744 320.107 373.388 320.751 374.497 321.18C375.713 321.645 376.643 321.538 377.323 320.823C378.002 320.143 378.682 318.855 379.397 317.031L383.868 305.514C388.411 306.837 392.703 307.159 396.638 306.444C400.608 305.728 404.006 304.155 406.832 301.722C409.657 299.29 411.768 296.321 413.127 292.78C414.307 289.99 414.808 287.2 414.665 284.446ZM394.706 260.159C392.31 258.085 390.7 256.117 389.806 254.365C388.947 252.576 388.947 250.466 389.913 248.034C390.915 245.458 392.381 243.849 394.313 243.133C396.244 242.418 398.676 242.203 401.574 242.418L394.706 260.159ZM396.101 295.499C393.669 296.715 390.772 297.037 387.409 296.464L395.243 276.183C398.068 278.437 400 280.619 401.109 282.729C402.182 284.839 402.218 287.236 401.18 289.919C400.214 292.422 398.533 294.282 396.101 295.499Z" fill="#FFF68A"/>
<path d="M380.721 197.493C380.721 197.493 367.2 198.709 364.517 196.956C361.262 194.846 356.935 182.112 356.935 182.112C356.935 182.112 357.006 194.774 355.253 197.457C353.143 200.712 341.554 205.863 341.554 205.863C341.554 205.863 353.68 205.469 356.935 207.58C359.617 209.332 365.304 221.279 365.304 221.279C365.304 221.279 364.804 209.082 366.807 205.97C368.631 203.144 380.721 197.493 380.721 197.493Z" fill="white"/>
<path d="M566.109 569.307V303.582C566.109 293.066 557.596 284.517 547.045 284.517H546.258H165.966C153.483 284.517 143.396 281.906 143.396 269.995V294.997V574.135C143.396 586.118 153.125 595.847 165.108 595.847H547.081C557.596 595.847 566.145 587.334 566.145 576.782V569.307C566.109 569.307 566.109 569.307 566.109 569.307Z" fill="#0D266D"/>
<path d="M566.968 479.564H485.165C461.629 479.564 442.565 460.499 442.565 436.964C442.565 413.428 461.629 394.363 485.165 394.363H567.004C572.19 394.363 576.375 398.548 576.375 403.735V470.228C576.339 475.343 572.154 479.564 566.968 479.564Z" fill="#22315B"/>
<path d="M547.08 284.518C547.903 303.368 548.368 319.678 548.654 333.163C549.227 360.669 548.869 368.931 548.654 372.794C547.009 403.806 545.364 434.996 530.77 466.115C503.836 523.487 448.466 547.452 435.518 553.032C409.05 564.478 386.551 567.161 375.427 568.377C303.318 576.246 208.71 577.57 143.647 577.391C145.221 587.835 154.234 595.847 165.108 595.847H547.08C557.596 595.847 566.145 587.334 566.145 576.783V569.307V303.582C566.109 293.066 557.596 284.518 547.08 284.518Z" fill="#0C085B"/>
<path d="M566.109 487.861H483.484C460.878 487.861 442.529 469.512 442.529 446.906V443.58C442.529 420.974 460.878 402.625 483.484 402.625H566.109V487.861Z" fill="#0C112D"/>
<path d="M178.235 549.205C174.193 549.205 170.867 545.914 170.867 541.837V351.727C170.867 347.685 174.157 344.358 178.235 344.358C182.277 344.358 185.603 347.649 185.603 351.727V541.837C185.567 545.914 182.277 549.205 178.235 549.205Z" fill="#11337F"/>
<path d="M180.453 329.336H178.521C175.695 329.336 173.406 327.047 173.406 324.221V311.452C173.406 308.626 175.695 306.337 178.521 306.337H180.453C183.278 306.337 185.567 308.626 185.567 311.452V324.221C185.567 327.011 183.278 329.336 180.453 329.336Z" fill="#11337F"/>
<path d="M180.846 302.688H166.002C164.786 302.688 163.82 301.722 163.82 300.506V299.755C163.82 298.539 164.786 297.573 166.002 297.573H180.846C182.062 297.573 183.028 298.539 183.028 299.755V300.506C183.028 301.722 182.026 302.688 180.846 302.688Z" fill="#2970D6"/>
<path d="M210.677 302.688H195.833C194.617 302.688 193.651 301.722 193.651 300.506V299.755C193.651 298.539 194.617 297.573 195.833 297.573H210.677C211.893 297.573 212.859 298.539 212.859 299.755V300.506C212.859 301.722 211.857 302.688 210.677 302.688Z" fill="#2970D6"/>
<path d="M240.508 302.688H225.664C224.448 302.688 223.482 301.722 223.482 300.506V299.755C223.482 298.539 224.448 297.573 225.664 297.573H240.508C241.724 297.573 242.69 298.539 242.69 299.755V300.506C242.69 301.722 241.688 302.688 240.508 302.688Z" fill="#2970D6"/>
<path d="M270.339 302.688H255.495C254.279 302.688 253.313 301.722 253.313 300.506V299.755C253.313 298.539 254.279 297.573 255.495 297.573H270.339C271.555 297.573 272.521 298.539 272.521 299.755V300.506C272.521 301.722 271.519 302.688 270.339 302.688Z" fill="#2970D6"/>
<path d="M300.17 302.688H285.326C284.11 302.688 283.144 301.722 283.144 300.506V299.755C283.144 298.539 284.11 297.573 285.326 297.573H300.17C301.386 297.573 302.352 298.539 302.352 299.755V300.506C302.352 301.722 301.35 302.688 300.17 302.688Z" fill="#2970D6"/>
<path d="M330.001 302.688H315.157C313.941 302.688 312.975 301.722 312.975 300.506V299.755C312.975 298.539 313.941 297.573 315.157 297.573H330.001C331.217 297.573 332.183 298.539 332.183 299.755V300.506C332.183 301.722 331.181 302.688 330.001 302.688Z" fill="#2970D6"/>
<path d="M359.832 302.688H344.988C343.772 302.688 342.806 301.722 342.806 300.506V299.755C342.806 298.539 343.772 297.573 344.988 297.573H359.832C361.048 297.573 362.014 298.539 362.014 299.755V300.506C362.014 301.722 361.012 302.688 359.832 302.688Z" fill="#2970D6"/>
<path d="M389.663 302.688H374.819C373.603 302.688 372.637 301.722 372.637 300.506V299.755C372.637 298.539 373.603 297.573 374.819 297.573H389.663C390.879 297.573 391.845 298.539 391.845 299.755V300.506C391.845 301.722 390.843 302.688 389.663 302.688Z" fill="#2970D6"/>
<path d="M419.494 302.688H404.65C403.434 302.688 402.468 301.722 402.468 300.506V299.755C402.468 298.539 403.434 297.573 404.65 297.573H419.494C420.71 297.573 421.676 298.539 421.676 299.755V300.506C421.676 301.722 420.674 302.688 419.494 302.688Z" fill="#2970D6"/>
<path d="M449.325 302.688H434.481C433.265 302.688 432.299 301.722 432.299 300.506V299.755C432.299 298.539 433.265 297.573 434.481 297.573H449.325C450.541 297.573 451.507 298.539 451.507 299.755V300.506C451.507 301.722 450.505 302.688 449.325 302.688Z" fill="#2970D6"/>
<path d="M479.156 302.688H464.312C463.096 302.688 462.13 301.722 462.13 300.506V299.755C462.13 298.539 463.096 297.573 464.312 297.573H479.156C480.372 297.573 481.338 298.539 481.338 299.755V300.506C481.338 301.722 480.336 302.688 479.156 302.688Z" fill="#2970D6"/>
<path d="M508.987 302.688H494.143C492.927 302.688 491.961 301.722 491.961 300.506V299.755C491.961 298.539 492.927 297.573 494.143 297.573H508.987C510.203 297.573 511.169 298.539 511.169 299.755V300.506C511.169 301.722 510.167 302.688 508.987 302.688Z" fill="#2970D6"/>
<path d="M538.818 302.688H523.974C522.758 302.688 521.792 301.722 521.792 300.506V299.755C521.792 298.539 522.758 297.573 523.974 297.573H538.818C540.034 297.573 541 298.539 541 299.755V300.506C541 301.722 539.998 302.688 538.818 302.688Z" fill="#2970D6"/>
<path d="M546.937 326.725V311.881C546.937 310.665 547.903 309.699 549.119 309.699H549.87C551.087 309.699 552.052 310.665 552.052 311.881V326.725C552.052 327.941 551.087 328.907 549.87 328.907H549.119C547.939 328.907 546.937 327.941 546.937 326.725Z" fill="#2970D6"/>
<path d="M546.937 356.556V341.712C546.937 340.496 547.903 339.53 549.119 339.53H549.87C551.087 339.53 552.052 340.496 552.052 341.712V356.556C552.052 357.772 551.087 358.738 549.87 358.738H549.119C547.939 358.738 546.937 357.772 546.937 356.556Z" fill="#2970D6"/>
<path d="M546.937 386.387V371.543C546.937 370.327 547.903 369.361 549.119 369.361H549.87C551.087 369.361 552.052 370.327 552.052 371.543V386.387C552.052 387.603 551.087 388.569 549.87 388.569H549.119C547.939 388.569 546.937 387.603 546.937 386.387Z" fill="#2970D6"/>
<path d="M546.937 416.218V401.409C546.937 400.193 547.903 399.228 549.119 399.228H549.87C551.087 399.228 552.052 400.193 552.052 401.409V416.253C552.052 417.47 551.087 418.435 549.87 418.435H549.119C547.939 418.399 546.937 417.434 546.937 416.218Z" fill="#2970D6"/>
<path d="M546.937 446.049V431.205C546.937 429.989 547.903 429.023 549.119 429.023H549.87C551.087 429.023 552.052 429.989 552.052 431.205V446.049C552.052 447.265 551.087 448.231 549.87 448.231H549.119C547.939 448.231 546.937 447.265 546.937 446.049Z" fill="#2970D6"/>
<path d="M546.937 475.88V461.036C546.937 459.82 547.903 458.854 549.119 458.854H549.87C551.087 458.854 552.052 459.82 552.052 461.036V475.88C552.052 477.096 551.087 478.062 549.87 478.062H549.119C547.939 478.062 546.937 477.096 546.937 475.88Z" fill="#2970D6"/>
<path d="M546.937 505.711V490.867C546.937 489.651 547.903 488.686 549.119 488.686H549.87C551.087 488.686 552.052 489.651 552.052 490.867V505.711C552.052 506.928 551.087 507.893 549.87 507.893H549.119C547.939 507.893 546.937 506.928 546.937 505.711Z" fill="#2970D6"/>
<path d="M546.937 535.542V520.698C546.937 519.482 547.903 518.517 549.119 518.517H549.87C551.087 518.517 552.052 519.482 552.052 520.698V535.542C552.052 536.759 551.087 537.724 549.87 537.724H549.119C547.939 537.724 546.937 536.759 546.937 535.542Z" fill="#2970D6"/>
<path d="M546.937 565.373V550.565C546.937 549.349 547.903 548.383 549.119 548.383H549.87C551.087 548.383 552.052 549.349 552.052 550.565V565.409C552.052 566.625 551.087 567.591 549.87 567.591H549.119C547.939 567.555 546.937 566.589 546.937 565.373Z" fill="#2970D6"/>
<path d="M180.846 581.862H166.002C164.786 581.862 163.82 580.896 163.82 579.68V578.929C163.82 577.713 164.786 576.747 166.002 576.747H180.846C182.062 576.747 183.028 577.713 183.028 578.929V579.68C183.028 580.896 182.026 581.862 180.846 581.862Z" fill="#2970D6"/>
<path d="M210.677 581.862H195.833C194.617 581.862 193.651 580.896 193.651 579.68V578.929C193.651 577.713 194.617 576.747 195.833 576.747H210.677C211.893 576.747 212.859 577.713 212.859 578.929V579.68C212.859 580.896 211.857 581.862 210.677 581.862Z" fill="#2970D6"/>
<path d="M240.508 581.862H225.664C224.448 581.862 223.482 580.896 223.482 579.68V578.929C223.482 577.713 224.448 576.747 225.664 576.747H240.508C241.724 576.747 242.69 577.713 242.69 578.929V579.68C242.69 580.896 241.688 581.862 240.508 581.862Z" fill="#2970D6"/>
<path d="M270.339 581.862H255.495C254.279 581.862 253.313 580.896 253.313 579.68V578.929C253.313 577.713 254.279 576.747 255.495 576.747H270.339C271.555 576.747 272.521 577.713 272.521 578.929V579.68C272.521 580.896 271.519 581.862 270.339 581.862Z" fill="#2970D6"/>
<path d="M300.17 581.862H285.326C284.11 581.862 283.144 580.896 283.144 579.68V578.929C283.144 577.713 284.11 576.747 285.326 576.747H300.17C301.386 576.747 302.352 577.713 302.352 578.929V579.68C302.352 580.896 301.35 581.862 300.17 581.862Z" fill="#2970D6"/>
<path d="M330.001 581.862H315.157C313.941 581.862 312.975 580.896 312.975 579.68V578.929C312.975 577.713 313.941 576.747 315.157 576.747H330.001C331.217 576.747 332.183 577.713 332.183 578.929V579.68C332.183 580.896 331.181 581.862 330.001 581.862Z" fill="#2970D6"/>
<path d="M359.832 581.862H344.988C343.772 581.862 342.806 580.896 342.806 579.68V578.929C342.806 577.713 343.772 576.747 344.988 576.747H359.832C361.048 576.747 362.014 577.713 362.014 578.929V579.68C362.014 580.896 361.012 581.862 359.832 581.862Z" fill="#2970D6"/>
<path d="M389.663 581.862H374.819C373.603 581.862 372.637 580.896 372.637 579.68V578.929C372.637 577.713 373.603 576.747 374.819 576.747H389.663C390.879 576.747 391.845 577.713 391.845 578.929V579.68C391.845 580.896 390.843 581.862 389.663 581.862Z" fill="#2970D6"/>
<path d="M419.494 581.862H404.65C403.434 581.862 402.468 580.896 402.468 579.68V578.929C402.468 577.713 403.434 576.747 404.65 576.747H419.494C420.71 576.747 421.676 577.713 421.676 578.929V579.68C421.676 580.896 420.674 581.862 419.494 581.862Z" fill="#2970D6"/>
<path d="M449.325 581.862H434.481C433.265 581.862 432.299 580.896 432.299 579.68V578.929C432.299 577.713 433.265 576.747 434.481 576.747H449.325C450.541 576.747 451.507 577.713 451.507 578.929V579.68C451.507 580.896 450.505 581.862 449.325 581.862Z" fill="#2970D6"/>
<path d="M479.156 581.862H464.312C463.096 581.862 462.13 580.896 462.13 579.68V578.929C462.13 577.713 463.096 576.747 464.312 576.747H479.156C480.372 576.747 481.338 577.713 481.338 578.929V579.68C481.338 580.896 480.336 581.862 479.156 581.862Z" fill="#2970D6"/>
<path d="M508.987 581.862H494.143C492.927 581.862 491.961 580.896 491.961 579.68V578.929C491.961 577.713 492.927 576.747 494.143 576.747H508.987C510.203 576.747 511.169 577.713 511.169 578.929V579.68C511.169 580.896 510.167 581.862 508.987 581.862Z" fill="#2970D6"/>
<path d="M538.818 581.862H523.974C522.758 581.862 521.792 580.896 521.792 579.68V578.929C521.792 577.713 522.758 576.747 523.974 576.747H538.818C540.034 576.747 541 577.713 541 578.929V579.68C541 580.896 539.998 581.862 538.818 581.862Z" fill="#2970D6"/>
<path d="M566.968 479.564H485.165C461.629 479.564 442.565 460.499 442.565 436.964C442.565 413.428 461.629 394.363 485.165 394.363H567.004C572.19 394.363 576.375 398.548 576.375 403.735V470.228C576.339 475.343 572.154 479.564 566.968 479.564Z" fill="#0F317C"/>
<path d="M493.678 456.529C504.503 456.529 513.279 447.753 513.279 436.927C513.279 426.102 504.503 417.326 493.678 417.326C482.852 417.326 474.077 426.102 474.077 436.927C474.077 447.753 482.852 456.529 493.678 456.529Z" fill="#FFDA3E"/>
<path d="M503.407 419.938C504.015 421.797 504.337 423.8 504.337 425.875C504.337 436.713 495.574 445.476 484.736 445.476C481.195 445.476 477.868 444.546 475.007 442.901C477.511 450.842 484.95 456.564 493.678 456.564C504.516 456.564 513.279 447.801 513.279 436.963C513.279 429.667 509.309 423.3 503.407 419.938Z" fill="#FFBE1D"/>
<path d="M488.42 436.928C491.324 436.928 493.678 434.574 493.678 431.67C493.678 428.766 491.324 426.412 488.42 426.412C485.516 426.412 483.162 428.766 483.162 431.67C483.162 434.574 485.516 436.928 488.42 436.928Z" fill="#FFF68A"/>
<path d="M566.968 394.327H556.416C556.845 399.263 556.917 405.523 555.88 412.641C554.842 419.937 553.233 430.99 545.221 442.042C537.316 452.952 527.444 457.995 522.651 460.356C514.352 464.469 507.02 465.9 501.762 466.759C488.635 468.869 472.61 469.656 458.124 469.87C465.492 475.915 474.899 479.528 485.129 479.528H566.968C572.154 479.528 576.339 475.343 576.339 470.157V403.663C576.339 398.512 572.154 394.327 566.968 394.327Z" fill="#0D266D"/>
<path d="M451.9 439.932C450.326 439.431 450.648 430.203 454.44 422.047C461.236 407.49 476.08 402.84 478.727 402.017C485.594 399.871 493.284 399.406 493.642 400.729C494.179 402.553 479.657 404.521 467.638 416.074C456.121 427.198 453.868 440.54 451.9 439.932Z" fill="#154293"/>
<path d="M373.46 87.2536C373.46 87.2536 363.981 91.9392 361.549 91.4027C358.58 90.7946 351.856 82.7109 351.856 82.7109C351.856 82.7109 355.468 91.9035 354.932 94.3357C354.324 97.3045 347.313 104.315 347.313 104.315C347.313 104.315 356.005 100.631 358.974 101.239C361.406 101.74 368.917 108.822 368.917 108.822C368.917 108.822 365.126 100.094 365.698 97.2688C366.27 94.7292 373.46 87.2536 373.46 87.2536Z" fill="white"/>
<path d="M59.4116 479.313C59.4116 479.313 49.9329 483.999 47.5007 483.462C44.5319 482.854 37.8074 474.771 37.8074 474.771C37.8074 474.771 41.42 483.963 40.8835 486.395C40.2754 489.364 33.2648 496.375 33.2648 496.375C33.2648 496.375 41.9565 492.691 44.9253 493.299C47.3576 493.799 54.869 500.882 54.869 500.882C54.869 500.882 51.0775 492.154 51.6498 489.328C52.2221 486.789 59.4116 479.313 59.4116 479.313Z" fill="white"/>
<path d="M119.145 73.9479C119.145 73.9479 109.666 78.6336 107.234 78.097C104.265 77.489 97.5409 69.4053 97.5409 69.4053C97.5409 69.4053 101.154 78.5978 100.617 81.0301C100.009 83.9989 92.9983 91.0095 92.9983 91.0095C92.9983 91.0095 101.69 87.3253 104.659 87.9334C107.091 88.4342 114.603 95.5163 114.603 95.5163C114.603 95.5163 110.811 86.7888 111.383 83.9631C111.956 81.4593 119.145 73.9479 119.145 73.9479Z" fill="white"/>
<path d="M400.501 8.38441C400.501 8.38441 391.022 13.0701 388.59 12.5336C385.621 11.9255 378.897 3.8418 378.897 3.8418C378.897 3.8418 382.509 13.0343 381.973 15.4666C381.365 18.4354 374.354 25.446 374.354 25.446C374.354 25.446 383.046 21.7619 386.014 22.3699C388.447 22.8707 395.958 29.9529 395.958 29.9529C395.958 29.9529 392.167 21.2253 392.739 18.3996C393.311 15.86 400.501 8.38441 400.501 8.38441Z" fill="white"/>
<path d="M661.826 348.257C661.826 348.257 652.347 352.943 649.915 352.407C646.946 351.799 640.222 343.715 640.222 343.715C640.222 343.715 643.834 352.907 643.298 355.34C642.69 358.308 635.679 365.319 635.679 365.319C635.679 365.319 644.371 361.635 647.34 362.243C649.772 362.744 657.283 369.826 657.283 369.826C657.283 369.826 653.492 361.098 654.064 358.273C654.636 355.733 661.826 348.257 661.826 348.257Z" fill="white"/>
<path d="M749.852 405.844C749.852 405.844 740.374 410.53 737.941 409.994C734.973 409.385 728.248 401.302 728.248 401.302C728.248 401.302 731.861 410.494 731.324 412.927C730.716 415.895 723.705 422.906 723.705 422.906C723.705 422.906 732.397 419.222 735.366 419.83C737.798 420.331 745.31 427.413 745.31 427.413C745.31 427.413 741.518 418.685 742.091 415.86C742.663 413.32 749.852 405.844 749.852 405.844Z" fill="white"/>
<path d="M91.1383 271.355C91.1383 271.355 81.6596 276.041 79.2273 275.504C76.2586 274.896 69.5341 266.812 69.5341 266.812C69.5341 266.812 73.1467 276.005 72.6102 278.437C72.0021 281.406 64.9915 288.417 64.9915 288.417C64.9915 288.417 73.6832 284.733 76.652 285.341C79.0843 285.841 86.5957 292.924 86.5957 292.924C86.5957 292.924 82.8042 284.196 83.3765 281.37C83.9488 278.867 91.1383 271.355 91.1383 271.355Z" fill="white"/>
<path d="M655.602 469.406C655.602 469.406 650.63 471.874 649.343 471.588C647.769 471.266 644.264 467.045 644.264 467.045C644.264 467.045 646.159 471.874 645.873 473.161C645.551 474.699 641.867 478.419 641.867 478.419C641.867 478.419 646.445 476.488 647.983 476.81C649.271 477.096 653.206 480.816 653.206 480.816C653.206 480.816 651.203 476.237 651.525 474.735C651.846 473.34 655.602 469.406 655.602 469.406Z" fill="white"/>
<path d="M736.761 293.102C736.761 293.102 731.789 295.57 730.502 295.284C728.928 294.962 725.422 290.741 725.422 290.741C725.422 290.741 727.318 295.57 727.032 296.858C726.71 298.396 723.026 302.116 723.026 302.116C723.026 302.116 727.604 300.184 729.142 300.506C730.43 300.792 734.365 304.512 734.365 304.512C734.365 304.512 732.362 299.934 732.683 298.431C733.005 297.036 736.761 293.102 736.761 293.102Z" fill="white"/>
<path d="M697.129 25.517C697.129 25.517 692.158 27.985 690.87 27.6989C689.296 27.3769 685.791 23.1562 685.791 23.1562C685.791 23.1562 687.686 27.985 687.4 29.2727C687.078 30.8107 683.394 34.5307 683.394 34.5307C683.394 34.5307 687.973 32.5991 689.511 32.9211C690.798 33.2072 694.733 36.9272 694.733 36.9272C694.733 36.9272 692.73 32.3488 693.052 30.8465C693.374 29.4515 697.129 25.517 697.129 25.517Z" fill="white"/>
<path d="M53.2237 158.755C53.2237 158.755 48.2518 161.223 46.9642 160.937C45.3903 160.615 41.885 156.395 41.885 156.395C41.885 156.395 43.7808 161.223 43.4946 162.511C43.1727 164.049 39.4885 167.769 39.4885 167.769C39.4885 167.769 44.0669 165.837 45.6049 166.159C46.8926 166.445 50.8272 170.165 50.8272 170.165C50.8272 170.165 48.8241 165.587 49.146 164.085C49.4322 162.69 53.2237 158.755 53.2237 158.755Z" fill="white"/>
<path d="M210.999 47.1928C210.999 47.1928 206.027 49.6608 204.739 49.3746C203.165 49.0527 199.66 44.832 199.66 44.832C199.66 44.832 201.556 49.6608 201.27 50.9485C200.948 52.4865 197.264 56.2064 197.264 56.2064C197.264 56.2064 201.842 54.2749 203.38 54.5968C204.668 54.883 208.602 58.6029 208.602 58.6029C208.602 58.6029 206.599 54.0246 206.921 52.5223C207.207 51.1273 210.999 47.1928 210.999 47.1928Z" fill="white"/>
<path d="M84.9503 392.503C84.9503 392.503 79.9785 394.971 78.6908 394.685C77.117 394.363 73.6117 390.143 73.6117 390.143C73.6117 390.143 75.5074 394.971 75.2213 396.259C74.8994 397.797 71.2152 401.517 71.2152 401.517C71.2152 401.517 75.7936 399.585 77.3316 399.907C78.6193 400.194 82.5539 403.913 82.5539 403.913C82.5539 403.913 80.5508 399.335 80.8727 397.833C81.1589 396.438 84.9503 392.503 84.9503 392.503Z" fill="white"/>
<path d="M13.7351 344.68C13.7351 344.68 8.7633 347.148 7.47563 346.862C5.90181 346.54 2.39649 342.319 2.39649 342.319C2.39649 342.319 4.29222 347.148 4.00607 348.436C3.68416 349.974 0 353.694 0 353.694C0 353.694 4.57838 351.762 6.11643 352.084C7.4041 352.37 11.3386 356.09 11.3386 356.09C11.3386 356.09 9.3356 351.512 9.65752 350.01C9.94366 348.615 13.7351 344.68 13.7351 344.68Z" fill="white"/>
</svg>
