<svg width="19" height="20" viewBox="0 0 19 20" fill="none" xmlns="http://www.w3.org/2000/svg">
<mask id="mask0_151_132" style="mask-type:luminance" maskUnits="userSpaceOnUse" x="0" y="0" width="18" height="19">
<path fill-rule="evenodd" clip-rule="evenodd" d="M0 0.5H17.8585V18.3587H0V0.5Z" fill="white"/>
</mask>
<g mask="url(#mask0_151_132)">
<path fill-rule="evenodd" clip-rule="evenodd" d="M8.92955 1.87537C4.76401 1.87537 1.3751 5.26336 1.3751 9.4289C1.3751 13.5944 4.76401 16.9833 8.92955 16.9833C13.0942 16.9833 16.4831 13.5944 16.4831 9.4289C16.4831 5.26336 13.0942 1.87537 8.92955 1.87537ZM8.92957 18.3587C4.00575 18.3587 -0.000244141 14.3527 -0.000244141 9.4289C-0.000244141 4.50508 4.00575 0.5 8.92957 0.5C13.8534 0.5 17.8585 4.50508 17.8585 9.4289C17.8585 14.3527 13.8534 18.3587 8.92957 18.3587Z" fill="#808080"/>
</g>
<mask id="mask1_151_132" style="mask-type:luminance" maskUnits="userSpaceOnUse" x="13" y="14" width="6" height="6">
<path fill-rule="evenodd" clip-rule="evenodd" d="M13.9738 14.9019H18.5804V19.4999H13.9738V14.9019Z" fill="white"/>
</mask>
<g mask="url(#mask1_151_132)">
<path fill-rule="evenodd" clip-rule="evenodd" d="M17.8929 19.4999C17.7177 19.4999 17.5417 19.433 17.4069 19.2991L14.1757 16.0771C13.9071 15.8085 13.9061 15.3729 14.1748 15.1043C14.4425 14.8338 14.8781 14.8356 15.1476 15.1024L18.3788 18.3254C18.6475 18.594 18.6484 19.0287 18.3798 19.2973C18.2459 19.433 18.0689 19.4999 17.8929 19.4999Z" fill="#808080"/>
</g>
</svg>
