<svg width="20" height="21" viewBox="0 0 20 21" fill="none" xmlns="http://www.w3.org/2000/svg">
<mask id="mask0_1_1340" style="mask-type:luminance" maskUnits="userSpaceOnUse" x="0" y="0" width="20" height="21">
<path fill-rule="evenodd" clip-rule="evenodd" d="M0 0H19.2849V20.721H0V0Z" fill="white"/>
</mask>
<g mask="url(#mask0_1_1340)">
<path fill-rule="evenodd" clip-rule="evenodd" d="M5.2022 15.44C5.4312 15.44 5.6602 15.469 5.8842 15.529C6.5602 15.711 7.1472 16.163 7.4952 16.77C7.7212 17.151 7.8462 17.596 7.8502 18.05C7.8502 18.7 8.3722 19.221 9.0142 19.221H10.2672C10.9062 19.221 11.4282 18.703 11.4312 18.064C11.4272 17.358 11.7032 16.687 12.2082 16.182C12.7062 15.684 13.4022 15.385 14.0982 15.405C14.5542 15.416 14.9932 15.539 15.3802 15.759C15.9372 16.078 16.6482 15.888 16.9702 15.338L17.6342 14.231C17.7822 13.976 17.8252 13.656 17.7462 13.361C17.6682 13.066 17.4722 12.81 17.2082 12.659C16.5902 12.303 16.1492 11.729 15.9662 11.041C15.7852 10.366 15.8842 9.629 16.2372 9.022C16.4672 8.622 16.8042 8.285 17.2082 8.053C17.7502 7.736 17.9402 7.027 17.6252 6.475C17.6122 6.453 17.6002 6.43 17.5902 6.406L17.0042 5.39C16.6852 4.835 15.9752 4.644 15.4182 4.961C14.8162 5.317 14.1002 5.419 13.4122 5.238C12.7252 5.06 12.1492 4.625 11.7902 4.011C11.5602 3.627 11.4352 3.18 11.4312 2.725C11.4402 2.383 11.3202 2.076 11.1022 1.851C10.8852 1.627 10.5802 1.5 10.2672 1.5H9.0142C8.7042 1.5 8.4142 1.621 8.1952 1.839C7.9772 2.058 7.8582 2.349 7.8602 2.659C7.8392 4.121 6.6442 5.298 5.1972 5.298C4.7332 5.293 4.2862 5.168 3.8982 4.936C3.3532 4.626 2.6412 4.817 2.3222 5.372L1.6452 6.485C1.3352 7.023 1.5252 7.734 2.0772 8.055C2.8962 8.529 3.4072 9.413 3.4072 10.361C3.4072 11.309 2.8962 12.192 2.0752 12.667C1.5262 12.985 1.3362 13.692 1.6542 14.242L2.2852 15.33C2.4412 15.611 2.6962 15.814 2.9912 15.897C3.2852 15.979 3.6092 15.944 3.8792 15.794C4.2762 15.561 4.7382 15.44 5.2022 15.44ZM10.2672 20.721H9.0142C7.5452 20.721 6.3502 19.527 6.3502 18.058C6.3482 17.877 6.2962 17.689 6.1992 17.526C6.0422 17.252 5.7882 17.056 5.4952 16.978C5.2042 16.9 4.8852 16.943 4.6232 17.095C3.9952 17.445 3.2562 17.53 2.5802 17.34C1.9052 17.149 1.3222 16.685 0.980198 16.07L0.355198 14.993C-0.375802 13.725 0.0591977 12.1 1.3252 11.368C1.6842 11.161 1.9072 10.775 1.9072 10.361C1.9072 9.947 1.6842 9.56 1.3252 9.353C0.0581977 8.617 -0.375802 6.988 0.354198 5.72L1.0322 4.607C1.7532 3.353 3.3832 2.911 4.6542 3.641C4.8272 3.744 5.0152 3.796 5.2062 3.798C5.8292 3.798 6.3502 3.284 6.3602 2.652C6.3562 1.955 6.6312 1.286 7.1322 0.781C7.6352 0.277 8.3032 0 9.0142 0H10.2672C10.9832 0 11.6792 0.294 12.1782 0.805C12.6762 1.319 12.9512 2.024 12.9302 2.739C12.9322 2.9 12.9852 3.086 13.0812 3.249C13.2402 3.519 13.4912 3.709 13.7892 3.787C14.0872 3.861 14.3992 3.821 14.6642 3.664C15.9442 2.933 17.5732 3.371 18.3042 4.641L18.9272 5.72C18.9432 5.749 18.9572 5.777 18.9692 5.806C19.6312 7.057 19.1892 8.632 17.9592 9.351C17.7802 9.454 17.6352 9.598 17.5352 9.772C17.3802 10.041 17.3372 10.361 17.4152 10.655C17.4952 10.955 17.6862 11.204 17.9552 11.358C18.5622 11.707 19.0152 12.295 19.1962 12.974C19.3772 13.652 19.2782 14.388 18.9252 14.995L18.2612 16.101C17.5302 17.357 15.9012 17.792 14.6342 17.06C14.4652 16.963 14.2702 16.91 14.0762 16.905H14.0702C13.7812 16.905 13.4842 17.028 13.2682 17.243C13.0492 17.462 12.9292 17.754 12.9312 18.064C12.9242 19.533 11.7292 20.721 10.2672 20.721Z" fill="white"/>
</g>
<path fill-rule="evenodd" clip-rule="evenodd" d="M9.64516 8.47412C8.60516 8.47412 7.75916 9.32112 7.75916 10.3611C7.75916 11.4011 8.60516 12.2461 9.64516 12.2461C10.6852 12.2461 11.5312 11.4011 11.5312 10.3611C11.5312 9.32112 10.6852 8.47412 9.64516 8.47412ZM9.64516 13.7461C7.77816 13.7461 6.25916 12.2281 6.25916 10.3611C6.25916 8.49412 7.77816 6.97412 9.64516 6.97412C11.5122 6.97412 13.0312 8.49412 13.0312 10.3611C13.0312 12.2281 11.5122 13.7461 9.64516 13.7461Z" fill="white"/>
</svg>
