<svg width="36" height="37" viewBox="0 0 36 37" fill="none" xmlns="http://www.w3.org/2000/svg">
<rect x="5" y="5" width="26" height="26.2" rx="13" fill="#E8F0F7"/>
<path fill-rule="evenodd" clip-rule="evenodd" d="M11 14.8442C11 12.7763 12.6763 11.1 14.7442 11.1H21.2558C23.3237 11.1 25 12.7763 25 14.8442V21.3558C25 23.4236 23.3237 25.1 21.2558 25.1H14.7442C12.6763 25.1 11 23.4236 11 21.3558V14.8442ZM16.0736 21.1207C16.2178 21.3369 16.4637 21.4631 16.7235 21.4542C16.9833 21.4452 17.2199 21.3024 17.3488 21.0767L19.2582 17.7353L19.9338 19.0865C20.0609 19.3406 20.3206 19.5011 20.6046 19.5011H21.907C22.3212 19.5011 22.657 19.1654 22.657 18.7511C22.657 18.3369 22.3212 18.0011 21.907 18.0011H21.0682L19.9731 15.8111C19.8494 15.5637 19.5996 15.4044 19.3231 15.3968C19.0466 15.3891 18.7884 15.5342 18.6511 15.7744L16.6486 19.2789L16.0194 18.3351C15.8803 18.1265 15.6461 18.0011 15.3953 18.0011H14.093C13.6788 18.0011 13.343 18.3369 13.343 18.7511C13.343 19.1654 13.6788 19.5011 14.093 19.5011H14.9939L16.0736 21.1207Z" fill="#6699CC"/>
<rect x="2.5" y="2.5" width="31" height="31.2" rx="15.5" stroke="#F0F5FA" stroke-opacity="0.5" stroke-width="5"/>
</svg>
