<svg width="16" height="17" viewBox="0 0 16 17" fill="none" xmlns="http://www.w3.org/2000/svg">
<path d="M3.6129 11.9902L3.70711 11.9071L6 9.61495L7.29289 10.9071C7.65338 11.2675 8.22061 11.2953 8.6129 10.9902L8.70711 10.9071L11.5 8.11495L12.2929 8.90706C12.8955 9.50963 13.9072 9.12762 13.994 8.31358L14 8.19995L13.9983 5.14057L13.9893 5.053L13.9643 4.93411L13.9401 4.85828L13.9063 4.77673L13.854 4.67924L13.7871 4.58293L13.7071 4.49281C13.6717 4.45745 13.6343 4.42526 13.5953 4.39629L13.4841 4.32462L13.3713 4.27118L13.266 4.2358L13.1485 4.21097L13.0892 4.20392L13 4.19995H10C9.14783 4.19995 8.70257 5.18546 9.21677 5.82248L9.29289 5.90706L10.085 6.69995L8 8.78495L6.70711 7.49284C6.34662 7.13236 5.77939 7.10463 5.3871 7.40966L5.29289 7.49284L2.29289 10.4928C1.90237 10.8834 1.90237 11.5165 2.29289 11.9071C2.65338 12.2675 3.22061 12.2953 3.6129 11.9902Z" fill="#4ADE80"/>
</svg>
