<svg width="27" height="20" viewBox="0 0 27 20" fill="none" xmlns="http://www.w3.org/2000/svg">
<path d="M20.7503 15.6403C23.463 15.3727 25.5817 13.0989 25.5817 10.3333C25.5817 7.12534 22.6157 4.60218 19.444 5.05438C19.4398 5.05499 19.4355 5.05282 19.4336 5.04898C18.221 2.64793 15.7203 1 12.8322 1C8.98496 1 5.82517 3.92427 5.48187 7.65761C5.48139 7.66277 5.477 7.66676 5.47182 7.66675C3.27033 7.6638 1.4248 9.47203 1.4248 11.6667C1.4248 13.8758 3.22737 15.6667 5.45095 15.6667H6.25618" stroke="black" stroke-width="1.5" stroke-linecap="round"/>
<path d="M10.4836 13.6001L13.1508 10.9502C13.3458 10.7565 13.6606 10.7565 13.8556 10.9502L16.5228 13.6001" stroke="black" stroke-width="1.5" stroke-linecap="round"/>
<path d="M13.5032 11.8L13.5032 19" stroke="black" stroke-width="1.5" stroke-linecap="round"/>
</svg>
