<svg width="37" height="37" viewBox="0 0 37 37" fill="none" xmlns="http://www.w3.org/2000/svg">
<rect x="5" y="5" width="26.0961" height="26.1195" rx="13.0481" fill="#E8F0F7"/>
<path fill-rule="evenodd" clip-rule="evenodd" d="M14.6144 13.8389C12.6848 13.8389 11.1205 15.4032 11.1205 17.3328V21.5255C11.1205 23.4552 12.6848 25.0195 14.6144 25.0195H21.6023C23.3965 25.0195 24.8748 23.6671 25.0735 21.9261H21.9516C20.5726 21.9261 19.4547 20.8082 19.4547 19.4292C19.4547 18.0501 20.5726 16.9322 21.9516 16.9322H25.0735C24.8748 15.1912 23.3965 13.8389 21.6023 13.8389H14.6144ZM21.9516 18.4322H25.0962V20.4261H21.9516C21.401 20.4261 20.9547 19.9798 20.9547 19.4292C20.9547 18.8786 21.401 18.4322 21.9516 18.4322ZM13.9156 21.1249C13.5014 21.1249 13.1656 21.4607 13.1656 21.8749C13.1656 22.2891 13.5014 22.6249 13.9156 22.6249H18.1083C18.5225 22.6249 18.8583 22.2891 18.8583 21.8749C18.8583 21.4607 18.5225 21.1249 18.1083 21.1249H13.9156ZM21.9516 18.6792C21.5374 18.6792 21.2016 19.015 21.2016 19.4292C21.2016 19.8434 21.5374 20.1792 21.9516 20.1792H22.0914C22.5056 20.1792 22.8414 19.8434 22.8414 19.4292C22.8414 19.015 22.5056 18.6792 22.0914 18.6792H21.9516Z" fill="#6699CC"/>
<path d="M23.3408 13.1352C22.8369 11.7436 21.3652 10.8452 19.8144 11.1645L13.8044 12.4019C12.5491 12.6603 11.5321 13.4878 11.0001 14.5817C11.8299 13.4931 13.1402 12.7906 14.6146 12.7906H21.6025C22.2182 12.7906 22.8054 12.9132 23.3408 13.1352Z" fill="#6699CC"/>
<rect x="2.5" y="2.5" width="31.0961" height="31.1195" rx="15.5481" stroke="#F0F5FA" stroke-opacity="0.5" stroke-width="5"/>
</svg>
