<svg width="21" height="20" viewBox="0 0 21 20" fill="none" xmlns="http://www.w3.org/2000/svg">
<path d="M10.2452 14.9271V12.3901" stroke="white" stroke-width="1.5" stroke-linecap="round" stroke-linejoin="round"/>
<path fill-rule="evenodd" clip-rule="evenodd" d="M16.44 3.58057C18.13 3.58057 19.49 4.95057 19.49 6.64057V10.0806C17.03 11.5206 13.78 12.3906 10.24 12.3906C6.7 12.3906 3.46 11.5206 1 10.0806V6.63057C1 4.94057 2.37 3.58057 4.06 3.58057H16.44Z" stroke="white" stroke-width="1.5" stroke-linecap="round" stroke-linejoin="round"/>
<path d="M13.7452 3.576V3.21C13.7452 1.99 12.7552 1 11.5352 1H8.95521C7.73521 1 6.74521 1.99 6.74521 3.21V3.576" stroke="white" stroke-width="1.5" stroke-linecap="round" stroke-linejoin="round"/>
<path d="M1.02451 13.7334L1.21351 16.2424C1.34151 17.9334 2.75051 19.2404 4.44551 19.2404H16.0445C17.7395 19.2404 19.1485 17.9334 19.2765 16.2424L19.4655 13.7334" stroke="white" stroke-width="1.5" stroke-linecap="round" stroke-linejoin="round"/>
</svg>
