<svg width="21" height="20" viewBox="0 0 21 20" fill="none" xmlns="http://www.w3.org/2000/svg">
<path fill-rule="evenodd" clip-rule="evenodd" d="M16.44 3.58044C18.13 3.58044 19.49 4.95044 19.49 6.64044V10.0804C17.03 11.5204 13.78 12.3904 10.24 12.3904C6.7 12.3904 3.46 11.5204 1 10.0804V6.63044C1 4.94044 2.37 3.58044 4.06 3.58044H16.44Z" stroke="#6699CC" stroke-width="1.5" stroke-linecap="round" stroke-linejoin="round"/>
<path d="M13.7451 3.576V3.21C13.7451 1.99 12.7551 1 11.5351 1H8.95512C7.73512 1 6.74512 1.99 6.74512 3.21V3.576" stroke="#6699CC" stroke-width="1.5" stroke-linecap="round" stroke-linejoin="round"/>
<path d="M1.02441 13.7332L1.21341 16.2422C1.34141 17.9332 2.75041 19.2402 4.44541 19.2402H16.0444C17.7394 19.2402 19.1484 17.9332 19.2764 16.2422L19.4654 13.7332" stroke="#6699CC" stroke-width="1.5" stroke-linecap="round" stroke-linejoin="round"/>
</svg>
